<svg width="90" height="100" viewBox="0 0 90 100" fill="none" xmlns="http://www.w3.org/2000/svg" xmlns:xlink="http://www.w3.org/1999/xlink">
<path d="M47.857,23.571C49.829,23.571 51.428,25.17 51.428,27.143L51.428,70C51.428,71.972 49.829,73.571 47.857,73.571C45.884,73.571 44.285,71.972 44.285,70L44.285,27.143C44.285,25.17 45.884,23.571 47.857,23.571Z" clip-rule="evenodd" fill-rule="evenodd" fill="#FFFFFF"/>
<path d="M78.571,43.571C80.544,43.571 82.143,45.17 82.143,47.143L82.143,69.285C82.143,71.258 80.544,72.857 78.571,72.857C76.599,72.857 75,71.258 75,69.285L75,47.143C75,45.17 76.599,43.571 78.571,43.571Z" clip-rule="evenodd" fill-rule="evenodd" fill="#FFFFFF"/>
<path d="M62.857,43.571C64.829,43.571 66.428,45.17 66.428,47.143L66.428,69.285C66.428,71.258 64.829,72.857 62.857,72.857C60.884,72.857 59.285,71.258 59.285,69.285L59.285,47.143C59.285,45.17 60.884,43.571 62.857,43.571Z" clip-rule="evenodd" fill-rule="evenodd" fill="#FFFFFF"/>
<path d="M32.857,43.571C34.829,43.571 36.428,45.17 36.428,47.143L36.428,69.285C36.428,71.258 34.829,72.857 32.857,72.857C30.884,72.857 29.285,71.258 29.285,69.285L29.285,47.143C29.285,45.17 30.884,43.571 32.857,43.571Z" clip-rule="evenodd" fill-rule="evenodd" fill="#FFFFFF"/>
<path d="M47.473,24.739C48.011,25.316 47.98,26.22 47.403,26.759L4.546,66.758C3.969,67.297 3.065,67.266 2.527,66.689C1.988,66.112 2.02,65.208 2.596,64.67L45.714,24.286C46.291,23.747 46.934,24.163 47.473,24.739Z" clip-rule="evenodd" fill-rule="evenodd" fill="#FFFFFF"/>
<path d="M78.203,44.757C78.731,45.343 78.685,46.246 78.099,46.775L49.999,72.857C49.413,73.385 47.324,73.685 46.796,73.1C46.267,72.514 46.313,71.611 46.899,71.082L76.428,44.286C77.014,43.757 77.674,44.171 78.203,44.757Z" clip-rule="evenodd" fill-rule="evenodd" fill="#FFFFFF"/>
<path d="M62.49,44.758C63.017,45.345 62.97,46.248 62.384,46.776L34.999,72.143C34.413,72.671 32.322,72.971 31.795,72.384C31.267,71.798 31.314,70.894 31.901,70.367L60.714,44.286C61.3,43.758 61.962,44.172 62.49,44.758Z" clip-rule="evenodd" fill-rule="evenodd" fill="#FFFFFF"/>
<path d="M32.439,44.704C32.997,45.262 32.997,46.166 32.439,46.724L28.154,51.01C27.596,51.568 26.691,51.568 26.133,51.01C25.575,50.452 25.575,49.547 26.133,48.99L30.001,45C30.558,44.442 31.881,44.146 32.439,44.704Z" clip-rule="evenodd" fill-rule="evenodd" fill="#FFFFFF"/>
<path d="M86.83,64.822C87.323,65.438 87.223,66.337 86.607,66.83L80.714,72.143C80.098,72.636 77.949,72.937 77.456,72.321C76.963,71.705 77.063,70.806 77.679,70.313L84.822,64.599C85.438,64.106 86.337,64.206 86.83,64.822Z" clip-rule="evenodd" fill-rule="evenodd" fill="#FFFFFF"/>
<path d="M71.115,64.822C71.608,65.438 71.508,66.337 70.892,66.83L64.999,72.143C64.383,72.636 62.234,72.937 61.741,72.321C61.248,71.705 61.348,70.806 61.964,70.313L69.107,64.599C69.723,64.106 70.622,64.206 71.115,64.822Z" clip-rule="evenodd" fill-rule="evenodd" fill="#FFFFFF"/>
<path d="M62.932,22.957C62.593,22.521 61.965,22.443 61.529,22.782C61.093,23.121 61.014,23.749 61.353,24.185L62.932,22.957ZM61.353,35.814C61.014,36.25 61.093,36.879 61.529,37.218C61.965,37.557 62.593,37.478 62.932,37.042L61.353,35.814ZM61.353,24.185C62.88,26.148 64.953,31.187 61.353,35.814L62.932,37.042C67.332,31.385 64.739,25.28 62.932,22.957L61.353,24.185Z" fill="#FFFFFF"/>
<path d="M69.362,22.957C69.023,22.521 68.394,22.443 67.958,22.782C67.522,23.121 67.444,23.749 67.783,24.185L69.362,22.957ZM67.783,35.814C67.444,36.25 67.522,36.879 67.958,37.218C68.394,37.557 69.023,37.478 69.362,37.042L67.783,35.814ZM67.783,24.185C69.31,26.148 71.382,31.187 67.783,35.814L69.362,37.042C73.762,31.385 71.168,25.28 69.362,22.957L67.783,24.185Z" fill="#FFFFFF"/>
<path d="M75.075,22.957C74.735,22.521 74.107,22.443 73.671,22.782C73.235,23.121 73.157,23.749 73.496,24.185L75.075,22.957ZM73.496,35.814C73.157,36.25 73.235,36.879 73.671,37.218C74.107,37.557 74.735,37.478 75.075,37.042L73.496,35.814ZM73.496,24.185C75.022,26.148 77.095,31.187 73.496,35.814L75.075,37.042C79.475,31.385 76.881,25.28 75.075,22.957L73.496,24.185Z" fill="#FFFFFF"/>
<path d="M1.664,0.398C1.489,-0.126 0.923,-0.409 0.399,-0.234C-0.125,-0.06 -0.408,0.507 -0.234,1.031L1.664,0.398ZM43.346,12.485C43.535,13.004 44.109,13.271 44.628,13.083C45.147,12.894 45.415,12.32 45.226,11.801L43.346,12.485ZM-0.234,1.031C0.051,1.884 0.705,3.101 1.776,4.118C2.865,5.151 4.411,6 6.429,6L6.429,4C5.019,4 3.946,3.42 3.153,2.668C2.344,1.899 1.855,0.973 1.664,0.398L-0.234,1.031ZM6.429,6C6.436,6 6.443,6 6.449,6C6.456,6 6.463,6 6.47,6C6.477,6 6.484,6 6.491,6C6.498,6 6.505,6 6.512,6C6.519,6 6.526,6 6.533,6C6.541,6 6.548,6 6.555,6C6.563,6 6.57,6 6.577,6C6.585,6 6.592,6 6.6,6C6.607,6 6.615,6 6.622,6C6.63,6 6.638,6 6.645,6C6.653,6 6.661,6 6.669,6C6.677,6 6.684,6 6.692,6C6.7,6 6.708,6 6.716,6C6.724,6 6.732,6 6.74,6C6.749,6 6.757,6 6.765,6C6.773,6 6.781,6 6.79,6C6.798,6 6.806,6 6.815,6C6.823,6 6.832,6 6.84,6C6.849,6 6.857,6 6.866,6C6.875,6 6.883,6 6.892,6C6.901,6 6.909,6 6.918,6C6.927,6 6.936,6 6.945,6C6.954,6 6.963,6 6.972,6C6.981,6 6.99,6 6.999,6C7.008,6 7.017,6 7.026,6C7.035,6 7.045,6 7.054,6C7.063,6 7.072,6 7.082,6C7.091,6 7.101,6 7.11,6C7.12,6 7.129,6 7.139,6C7.148,6 7.158,6 7.168,6C7.177,6 7.187,6 7.197,6C7.206,6 7.216,6 7.226,6C7.236,6 7.246,6 7.256,6C7.266,6 7.276,6 7.286,6C7.296,6 7.306,6 7.316,6C7.326,6 7.336,6 7.346,6C7.357,6 7.367,6 7.377,6C7.388,6 7.398,6 7.408,6C7.419,6 7.429,6 7.44,6C7.45,6 7.461,6 7.471,6C7.482,6 7.493,6 7.503,6C7.514,6 7.525,6 7.535,6C7.546,6 7.557,6 7.568,6C7.579,6 7.59,6 7.6,6C7.611,6 7.622,6 7.633,6C7.644,6 7.656,6 7.667,6C7.678,6 7.689,6 7.7,6C7.711,6 7.723,6 7.734,6C7.745,6 7.757,6 7.768,6C7.779,6 7.791,6 7.802,6C7.814,6 7.825,6 7.837,6C7.848,6 7.86,6 7.872,6C7.883,6 7.895,6 7.907,6C7.918,6 7.93,6 7.942,6C7.954,6 7.966,6 7.978,6C7.989,6 8.001,6 8.013,6C8.025,6 8.037,6 8.049,6C8.062,6 8.074,6 8.086,6C8.098,6 8.11,6 8.122,6C8.135,6 8.147,6 8.159,6C8.172,6 8.184,6 8.196,6C8.209,6 8.221,6 8.234,6C8.246,6 8.259,6 8.271,6C8.284,6 8.296,6 8.309,6C8.322,6 8.335,6 8.347,6C8.36,6 8.373,6 8.386,6C8.398,6 8.411,6 8.424,6C8.437,6 8.45,6 8.463,6C8.476,6 8.489,6 8.502,6C8.515,6 8.528,6 8.541,6C8.555,6 8.568,6 8.581,6C8.594,6 8.607,6 8.621,6C8.634,6 8.647,6 8.661,6C8.674,6 8.688,6 8.701,6C8.715,6 8.728,6 8.742,6C8.755,6 8.769,6 8.782,6C8.796,6 8.81,6 8.823,6C8.837,6 8.851,6 8.865,6C8.878,6 8.892,6 8.906,6C8.92,6 8.934,6 8.948,6C8.962,6 8.976,6 8.99,6C9.004,6 9.018,6 9.032,6C9.046,6 9.06,6 9.074,6C9.088,6 9.102,6 9.117,6C9.131,6 9.145,6 9.16,6C9.174,6 9.188,6 9.203,6C9.217,6 9.231,6 9.246,6C9.26,6 9.275,6 9.289,6C9.304,6 9.318,6 9.333,6C9.348,6 9.362,6 9.377,6C9.392,6 9.406,6 9.421,6C9.436,6 9.451,6 9.466,6C9.48,6 9.495,6 9.51,6C9.525,6 9.54,6 9.555,6C9.57,6 9.585,6 9.6,6C9.615,6 9.63,6 9.645,6C9.66,6 9.676,6 9.691,6C9.706,6 9.721,6 9.736,6C9.752,6 9.767,6 9.782,6C9.798,6 9.813,6 9.828,6C9.844,6 9.859,6 9.875,6C9.89,6 9.906,6 9.921,6C9.937,6 9.952,6 9.968,6C9.984,6 9.999,6 10.015,6C10.031,6 10.046,6 10.062,6C10.078,6 10.094,6 10.11,6C10.125,6 10.141,6 10.157,6C10.173,6 10.189,6 10.205,6C10.221,6 10.237,6 10.253,6C10.269,6 10.285,6 10.301,6C10.317,6 10.333,6 10.349,6C10.366,6 10.382,6 10.398,6C10.414,6 10.43,6 10.447,6C10.463,6 10.479,6 10.496,6C10.512,6 10.528,6 10.545,6C10.561,6 10.578,6 10.594,6C10.611,6 10.627,6 10.644,6C10.66,6 10.677,6 10.694,6C10.71,6 10.727,6 10.743,6C10.76,6 10.777,6 10.794,6C10.81,6 10.827,6 10.844,6C10.861,6 10.878,6 10.894,6C10.911,6 10.928,6 10.945,6C10.962,6 10.979,6 10.996,6C11.013,6 11.03,6 11.047,6C11.064,6 11.081,6 11.098,6C11.115,6 11.133,6 11.15,6C11.167,6 11.184,6 11.201,6C11.219,6 11.236,6 11.253,6C11.271,6 11.288,6 11.305,6C11.323,6 11.34,6 11.357,6C11.375,6 11.392,6 11.41,6C11.427,6 11.445,6 11.462,6C11.48,6 11.497,6 11.515,6C11.533,6 11.55,6 11.568,6C11.586,6 11.603,6 11.621,6C11.639,6 11.656,6 11.674,6C11.692,6 11.71,6 11.728,6C11.745,6 11.763,6 11.781,6C11.799,6 11.817,6 11.835,6C11.853,6 11.871,6 11.889,6C11.907,6 11.925,6 11.943,6C11.961,6 11.979,6 11.997,6C12.015,6 12.034,6 12.052,6C12.07,6 12.088,6 12.106,6C12.125,6 12.143,6 12.161,6C12.179,6 12.198,6 12.216,6C12.234,6 12.253,6 12.271,6C12.289,6 12.308,6 12.326,6C12.345,6 12.363,6 12.382,6C12.4,6 12.419,6 12.437,6C12.456,6 12.474,6 12.493,6C12.512,6 12.53,6 12.549,6C12.568,6 12.586,6 12.605,6C12.624,6 12.642,6 12.661,6C12.68,6 12.699,6 12.718,6C12.736,6 12.755,6 12.774,6C12.793,6 12.812,6 12.831,6C12.85,6 12.869,6 12.888,6C12.907,6 12.926,6 12.945,6C12.964,6 12.983,6 13.002,6C13.021,6 13.04,6 13.059,6C13.078,6 13.097,6 13.116,6C13.136,6 13.155,6 13.174,6C13.193,6 13.212,6 13.232,6C13.251,6 13.27,6 13.289,6C13.309,6 13.328,6 13.348,6C13.367,6 13.386,6 13.406,6C13.425,6 13.444,6 13.464,6C13.483,6 13.503,6 13.522,6C13.542,6 13.561,6 13.581,6C13.6,6 13.62,6 13.64,6C13.659,6 13.679,6 13.698,6C13.718,6 13.738,6 13.757,6C13.777,6 13.797,6 13.817,6C13.836,6 13.856,6 13.876,6C13.896,6 13.915,6 13.935,6C13.955,6 13.975,6 13.995,6C14.015,6 14.035,6 14.054,6C14.074,6 14.094,6 14.114,6C14.134,6 14.154,6 14.174,6C14.194,6 14.214,6 14.234,6C14.254,6 14.274,6 14.294,6C14.314,6 14.335,6 14.355,6C14.375,6 14.395,6 14.415,6C14.435,6 14.455,6 14.476,6C14.496,6 14.516,6 14.536,6C14.557,6 14.577,6 14.597,6C14.617,6 14.638,6 14.658,6C14.678,6 14.699,6 14.719,6C14.739,6 14.76,6 14.78,6C14.801,6 14.821,6 14.842,6C14.862,6 14.882,6 14.903,6C14.923,6 14.944,6 14.964,6C14.985,6 15.005,6 15.026,6C15.047,6 15.067,6 15.088,6C15.108,6 15.129,6 15.15,6C15.17,6 15.191,6 15.212,6C15.232,6 15.253,6 15.274,6C15.294,6 15.315,6 15.336,6C15.357,6 15.377,6 15.398,6C15.419,6 15.44,6 15.461,6C15.481,6 15.502,6 15.523,6C15.544,6 15.565,6 15.586,6C15.607,6 15.628,6 15.649,6C15.669,6 15.69,6 15.711,6C15.732,6 15.753,6 15.774,6C15.795,6 15.816,6 15.837,6C15.858,6 15.879,6 15.901,6C15.922,6 15.943,6 15.964,6C15.985,6 16.006,6 16.027,6C16.048,6 16.069,6 16.091,6C16.112,6 16.133,6 16.154,6C16.175,6 16.197,6 16.218,6C16.239,6 16.26,6 16.281,6C16.303,6 16.324,6 16.345,6C16.367,6 16.388,6 16.409,6C16.431,6 16.452,6 16.473,6C16.495,6 16.516,6 16.537,6C16.559,6 16.58,6 16.602,6C16.623,6 16.644,6 16.666,6C16.687,6 16.709,6 16.73,6C16.752,6 16.773,6 16.795,6C16.816,6 16.838,6 16.859,6C16.881,6 16.902,6 16.924,6C16.945,6 16.967,6 16.989,6C17.01,6 17.032,6 17.053,6C17.075,6 17.097,6 17.118,6C17.14,6 17.162,6 17.183,6C17.205,6 17.227,6 17.248,6C17.27,6 17.292,6 17.314,6C17.335,6 17.357,6 17.379,6C17.4,6 17.422,6 17.444,6C17.466,6 17.488,6 17.509,6C17.531,6 17.553,6 17.575,6C17.597,6 17.619,6 17.64,6C17.662,6 17.684,6 17.706,6C17.728,6 17.75,6 17.772,6C17.794,6 17.815,6 17.837,6C17.859,6 17.881,6 17.903,6C17.925,6 17.947,6 17.969,6C17.991,6 18.013,6 18.035,6C18.057,6 18.079,6 18.101,6C18.123,6 18.145,6 18.167,6C18.189,6 18.211,6 18.233,6C18.255,6 18.277,6 18.299,6C18.322,6 18.344,6 18.366,6C18.388,6 18.41,6 18.432,6C18.454,6 18.476,6 18.498,6C18.521,6 18.543,6 18.565,6C18.587,6 18.609,6 18.631,6C18.654,6 18.676,6 18.698,6C18.72,6 18.742,6 18.765,6C18.787,6 18.809,6 18.831,6C18.854,6 18.876,6 18.898,6C18.92,6 18.943,6 18.965,6C18.987,6 19.009,6 19.032,6C19.054,6 19.076,6 19.099,6C19.121,6 19.143,6 19.166,6C19.188,6 19.21,6 19.233,6C19.255,6 19.277,6 19.3,6C19.322,6 19.344,6 19.367,6C19.389,6 19.411,6 19.434,6C19.456,6 19.479,6 19.501,6C19.523,6 19.546,6 19.568,6C19.591,6 19.613,6 19.636,6C19.658,6 19.68,6 19.703,6C19.725,6 19.748,6 19.77,6C19.793,6 19.815,6 19.838,6C19.86,6 19.883,6 19.905,6C19.928,6 19.95,6 19.973,6C19.995,6 20.018,6 20.04,6C20.063,6 20.085,6 20.108,6C20.13,6 20.153,6 20.175,6C20.198,6 20.22,6 20.243,6C20.266,6 20.288,6 20.311,6C20.333,6 20.356,6 20.378,6C20.401,6 20.424,6 20.446,6C20.469,6 20.491,6 20.514,6C20.536,6 20.559,6 20.582,6C20.604,6 20.627,6 20.65,6C20.672,6 20.695,6 20.717,6C20.74,6 20.763,6 20.785,6C20.808,6 20.83,6 20.853,6C20.876,6 20.898,6 20.921,6C20.944,6 20.966,6 20.989,6C21.012,6 21.034,6 21.057,6C21.08,6 21.102,6 21.125,6C21.148,6 21.17,6 21.193,6C21.216,6 21.238,6 21.261,6C21.284,6 21.306,6 21.329,6C21.352,6 21.375,6 21.397,6C21.42,6 21.443,6 21.465,6C21.488,6 21.511,6 21.533,6C21.556,6 21.579,6 21.602,6C21.624,6 21.647,6 21.67,6C21.692,6 21.715,6 21.738,6C21.761,6 21.783,6 21.806,6C21.829,6 21.852,6 21.874,6C21.897,6 21.92,6 21.942,6C21.965,6 21.988,6 22.011,6C22.033,6 22.056,6 22.079,6C22.102,6 22.124,6 22.147,6C22.17,6 22.193,6 22.215,6C22.238,6 22.261,6 22.284,6C22.306,6 22.329,6 22.352,6C22.374,6 22.397,6 22.42,6C22.443,6 22.465,6 22.488,6C22.511,6 22.534,6 22.556,6C22.579,6 22.602,6 22.625,6C22.647,6 22.67,6 22.693,6C22.716,6 22.738,6 22.761,6C22.784,6 22.807,6 22.829,6C22.852,6 22.875,6 22.898,6C22.92,6 22.943,6 22.966,6C22.989,6 23.011,6 23.034,6C23.057,6 23.08,6 23.102,6C23.125,6 23.148,6 23.17,6C23.193,6 23.216,6 23.239,6C23.261,6 23.284,6 23.307,6C23.33,6 23.352,6 23.375,6C23.398,6 23.42,6 23.443,6C23.466,6 23.489,6 23.511,6C23.534,6 23.557,6 23.579,6C23.602,6 23.625,6 23.648,6C23.67,6 23.693,6 23.716,6C23.738,6 23.761,6 23.784,6C23.806,6 23.829,6 23.852,6C23.875,6 23.897,6 23.92,6C23.943,6 23.965,6 23.988,6C24.011,6 24.033,6 24.056,6C24.079,6 24.101,6 24.124,6C24.147,6 24.169,6 24.192,6C24.214,6 24.237,6 24.26,6C24.282,6 24.305,6 24.328,6C24.35,6 24.373,6 24.396,6C24.418,6 24.441,6 24.463,6C24.486,6 24.509,6 24.531,6C24.554,6 24.576,6 24.599,6C24.622,6 24.644,6 24.667,6C24.689,6 24.712,6 24.735,6C24.757,6 24.78,6 24.802,6C24.825,6 24.847,6 24.87,6C24.892,6 24.915,6 24.938,6C24.96,6 24.983,6 25.005,6C25.028,6 25.05,6 25.073,6C25.095,6 25.118,6 25.14,6C25.163,6 25.185,6 25.208,6C25.23,6 25.253,6 25.275,6C25.298,6 25.32,6 25.343,6C25.365,6 25.387,6 25.41,6C25.432,6 25.455,6 25.477,6C25.5,6 25.522,6 25.545,6C25.567,6 25.589,6 25.612,6C25.634,6 25.657,6 25.679,6C25.701,6 25.724,6 25.746,6C25.768,6 25.791,6 25.813,6C25.836,6 25.858,6 25.88,6C25.903,6 25.925,6 25.947,6C25.97,6 25.992,6 26.014,6C26.037,6 26.059,6 26.081,6C26.103,6 26.126,6 26.148,6C26.17,6 26.192,6 26.215,6C26.237,6 26.259,6 26.281,6C26.304,6 26.326,6 26.348,6C26.37,6 26.393,6 26.415,6C26.437,6 26.459,6 26.481,6C26.504,6 26.526,6 26.548,6C26.57,6 26.592,6 26.614,6C26.636,6 26.659,6 26.681,6C26.703,6 26.725,6 26.747,6C26.769,6 26.791,6 26.813,6C26.835,6 26.857,6 26.879,6C26.902,6 26.924,6 26.946,6C26.968,6 26.99,6 27.012,6C27.034,6 27.056,6 27.078,6C27.1,6 27.122,6 27.144,6C27.166,6 27.188,6 27.209,6C27.231,6 27.253,6 27.275,6C27.297,6 27.319,6 27.341,6C27.363,6 27.385,6 27.407,6C27.429,6 27.45,6 27.472,6C27.494,6 27.516,6 27.538,6C27.56,6 27.581,6 27.603,6C27.625,6 27.647,6 27.669,6C27.69,6 27.712,6 27.734,6C27.756,6 27.777,6 27.799,6C27.821,6 27.842,6 27.864,6C27.886,6 27.908,6 27.929,6C27.951,6 27.972,6 27.994,6C28.016,6 28.037,6 28.059,6C28.081,6 28.102,6 28.124,6C28.145,6 28.167,6 28.189,6C28.21,6 28.232,6 28.253,6C28.275,6 28.296,6 28.318,6C28.339,6 28.361,6 28.382,6C28.404,6 28.425,6 28.447,6C28.468,6 28.489,6 28.511,6C28.532,6 28.554,6 28.575,6C28.596,6 28.618,6 28.639,6C28.66,6 28.682,6 28.703,6C28.724,6 28.746,6 28.767,6C28.788,6 28.81,6 28.831,6C28.852,6 28.873,6 28.895,6C28.916,6 28.937,6 28.958,6C28.979,6 29.001,6 29.022,6C29.043,6 29.064,6 29.085,6C29.106,6 29.127,6 29.149,6C29.17,6 29.191,6 29.212,6C29.233,6 29.254,6 29.275,6C29.296,6 29.317,6 29.338,6C29.359,6 29.38,6 29.401,6C29.422,6 29.443,6 29.464,6C29.485,6 29.506,6 29.526,6C29.547,6 29.568,6 29.589,6C29.61,6 29.631,6 29.652,6C29.672,6 29.693,6 29.714,6C29.735,6 29.755,6 29.776,6C29.797,6 29.818,6 29.838,6C29.859,6 29.88,6 29.9,6C29.921,6 29.942,6 29.962,6C29.983,6 30.004,6 30.024,6C30.045,6 30.065,6 30.086,6C30.107,6 30.127,6 30.148,6C30.168,6 30.189,6 30.209,6C30.23,6 30.25,6 30.27,6C30.291,6 30.311,6 30.332,6C30.352,6 30.373,6 30.393,6C30.413,6 30.434,6 30.454,6C30.474,6 30.495,6 30.515,6C30.535,6 30.555,6 30.576,6C30.596,6 30.616,6 30.636,6C30.656,6 30.677,6 30.697,6C30.717,6 30.737,6 30.757,6C30.777,6 30.797,6 30.817,6C30.838,6 30.858,6 30.878,6C30.898,6 30.918,6 30.938,6C30.958,6 30.978,6 30.998,6C31.018,6 31.037,6 31.057,6C31.077,6 31.097,6 31.117,6C31.137,6 31.157,6 31.176,6C31.196,6 31.216,6 31.236,6C31.256,6 31.275,6 31.295,6C31.315,6 31.335,6 31.354,6C31.374,6 31.394,6 31.413,6C31.433,6 31.452,6 31.472,6C31.492,6 31.511,6 31.531,6C31.55,6 31.57,6 31.589,6C31.609,6 31.628,6 31.648,6C31.667,6 31.687,6 31.706,6C31.725,6 31.745,6 31.764,6C31.783,6 31.803,6 31.822,6C31.841,6 31.861,6 31.88,6C31.899,6 31.918,6 31.938,6C31.957,6 31.976,6 31.995,6C32.014,6 32.033,6 32.052,6C32.072,6 32.091,6 32.11,6C32.129,6 32.148,6 32.167,6C32.186,6 32.205,6 32.224,6C32.243,6 32.262,6 32.281,6C32.3,6 32.318,6 32.337,6C32.356,6 32.375,6 32.394,6C32.413,6 32.431,6 32.45,6C32.469,6 32.488,6 32.506,6C32.525,6 32.544,6 32.562,6C32.581,6 32.6,6 32.618,6C32.637,6 32.655,6 32.674,6C32.692,6 32.711,6 32.729,6C32.748,6 32.766,6 32.785,6C32.803,6 32.822,6 32.84,6C32.858,6 32.877,6 32.895,6C32.913,6 32.932,6 32.95,6C32.968,6 32.987,6 33.005,6C33.023,6 33.041,6 33.059,6C33.077,6 33.096,6 33.114,6C33.132,6 33.15,6 33.168,6C33.186,6 33.204,6 33.222,6C33.24,6 33.258,6 33.276,6C33.294,6 33.312,6 33.33,6C33.348,6 33.365,6 33.383,6C33.401,6 33.419,6 33.437,6C33.454,6 33.472,6 33.49,6C33.508,6 33.525,6 33.543,6C33.561,6 33.578,6 33.596,6C33.613,6 33.631,6 33.648,6C33.666,6 33.683,6 33.701,6C33.718,6 33.736,6 33.753,6C33.771,6 33.788,6 33.805,6C33.823,6 33.84,6 33.857,6C33.875,6 33.892,6 33.909,6C33.926,6 33.944,6 33.961,6C33.978,6 33.995,6 34.012,6C34.029,6 34.046,6 34.063,6C34.08,6 34.098,6 34.115,6C34.131,6 34.148,6 34.165,6C34.182,6 34.199,6 34.216,6C34.233,6 34.25,6 34.267,6C34.283,6 34.3,6 34.317,6C34.334,6 34.35,6 34.367,6C34.384,6 34.4,6 34.417,6C34.433,6 34.45,6 34.467,6C34.483,6 34.5,6 34.516,6C34.533,6 34.549,6 34.565,6C34.582,6 34.598,6 34.615,6C34.631,6 34.647,6 34.664,6C34.68,6 34.696,6 34.712,6C34.728,6 34.745,6 34.761,6C34.777,6 34.793,6 34.809,6C34.825,6 34.841,6 34.857,6C34.873,6 34.889,6 34.905,6C34.921,6 34.937,6 34.953,6C34.969,6 34.985,6 35.001,6L35.001,4C34.985,4 34.969,4 34.953,4C34.937,4 34.921,4 34.905,4C34.889,4 34.873,4 34.857,4C34.841,4 34.825,4 34.809,4C34.793,4 34.777,4 34.761,4C34.745,4 34.728,4 34.712,4C34.696,4 34.68,4 34.664,4C34.647,4 34.631,4 34.615,4C34.598,4 34.582,4 34.565,4C34.549,4 34.533,4 34.516,4C34.5,4 34.483,4 34.467,4C34.45,4 34.433,4 34.417,4C34.4,4 34.384,4 34.367,4C34.35,4 34.334,4 34.317,4C34.3,4 34.283,4 34.267,4C34.25,4 34.233,4 34.216,4C34.199,4 34.182,4 34.165,4C34.148,4 34.131,4 34.115,4C34.098,4 34.08,4 34.063,4C34.046,4 34.029,4 34.012,4C33.995,4 33.978,4 33.961,4C33.944,4 33.926,4 33.909,4C33.892,4 33.875,4 33.857,4C33.84,4 33.823,4 33.805,4C33.788,4 33.771,4 33.753,4C33.736,4 33.718,4 33.701,4C33.683,4 33.666,4 33.648,4C33.631,4 33.613,4 33.596,4C33.578,4 33.561,4 33.543,4C33.525,4 33.508,4 33.49,4C33.472,4 33.454,4 33.437,4C33.419,4 33.401,4 33.383,4C33.365,4 33.348,4 33.33,4C33.312,4 33.294,4 33.276,4C33.258,4 33.24,4 33.222,4C33.204,4 33.186,4 33.168,4C33.15,4 33.132,4 33.114,4C33.096,4 33.077,4 33.059,4C33.041,4 33.023,4 33.005,4C32.987,4 32.968,4 32.95,4C32.932,4 32.913,4 32.895,4C32.877,4 32.858,4 32.84,4C32.822,4 32.803,4 32.785,4C32.766,4 32.748,4 32.729,4C32.711,4 32.692,4 32.674,4C32.655,4 32.637,4 32.618,4C32.6,4 32.581,4 32.562,4C32.544,4 32.525,4 32.506,4C32.488,4 32.469,4 32.45,4C32.431,4 32.413,4 32.394,4C32.375,4 32.356,4 32.337,4C32.318,4 32.3,4 32.281,4C32.262,4 32.243,4 32.224,4C32.205,4 32.186,4 32.167,4C32.148,4 32.129,4 32.11,4C32.091,4 32.072,4 32.052,4C32.033,4 32.014,4 31.995,4C31.976,4 31.957,4 31.938,4C31.918,4 31.899,4 31.88,4C31.861,4 31.841,4 31.822,4C31.803,4 31.783,4 31.764,4C31.745,4 31.725,4 31.706,4C31.687,4 31.667,4 31.648,4C31.628,4 31.609,4 31.589,4C31.57,4 31.55,4 31.531,4C31.511,4 31.492,4 31.472,4C31.452,4 31.433,4 31.413,4C31.394,4 31.374,4 31.354,4C31.335,4 31.315,4 31.295,4C31.275,4 31.256,4 31.236,4C31.216,4 31.196,4 31.176,4C31.157,4 31.137,4 31.117,4C31.097,4 31.077,4 31.057,4C31.037,4 31.018,4 30.998,4C30.978,4 30.958,4 30.938,4C30.918,4 30.898,4 30.878,4C30.858,4 30.838,4 30.817,4C30.797,4 30.777,4 30.757,4C30.737,4 30.717,4 30.697,4C30.677,4 30.656,4 30.636,4C30.616,4 30.596,4 30.576,4C30.555,4 30.535,4 30.515,4C30.495,4 30.474,4 30.454,4C30.434,4 30.413,4 30.393,4C30.373,4 30.352,4 30.332,4C30.311,4 30.291,4 30.27,4C30.25,4 30.23,4 30.209,4C30.189,4 30.168,4 30.148,4C30.127,4 30.107,4 30.086,4C30.065,4 30.045,4 30.024,4C30.004,4 29.983,4 29.962,4C29.942,4 29.921,4 29.9,4C29.88,4 29.859,4 29.838,4C29.818,4 29.797,4 29.776,4C29.755,4 29.735,4 29.714,4C29.693,4 29.672,4 29.652,4C29.631,4 29.61,4 29.589,4C29.568,4 29.547,4 29.526,4C29.506,4 29.485,4 29.464,4C29.443,4 29.422,4 29.401,4C29.38,4 29.359,4 29.338,4C29.317,4 29.296,4 29.275,4C29.254,4 29.233,4 29.212,4C29.191,4 29.17,4 29.149,4C29.127,4 29.106,4 29.085,4C29.064,4 29.043,4 29.022,4C29.001,4 28.979,4 28.958,4C28.937,4 28.916,4 28.895,4C28.873,4 28.852,4 28.831,4C28.81,4 28.788,4 28.767,4C28.746,4 28.724,4 28.703,4C28.682,4 28.66,4 28.639,4C28.618,4 28.596,4 28.575,4C28.554,4 28.532,4 28.511,4C28.489,4 28.468,4 28.447,4C28.425,4 28.404,4 28.382,4C28.361,4 28.339,4 28.318,4C28.296,4 28.275,4 28.253,4C28.232,4 28.21,4 28.189,4C28.167,4 28.145,4 28.124,4C28.102,4 28.081,4 28.059,4C28.037,4 28.016,4 27.994,4C27.972,4 27.951,4 27.929,4C27.908,4 27.886,4 27.864,4C27.842,4 27.821,4 27.799,4C27.777,4 27.756,4 27.734,4C27.712,4 27.69,4 27.669,4C27.647,4 27.625,4 27.603,4C27.581,4 27.56,4 27.538,4C27.516,4 27.494,4 27.472,4C27.45,4 27.429,4 27.407,4C27.385,4 27.363,4 27.341,4C27.319,4 27.297,4 27.275,4C27.253,4 27.231,4 27.209,4C27.188,4 27.166,4 27.144,4C27.122,4 27.1,4 27.078,4C27.056,4 27.034,4 27.012,4C26.99,4 26.968,4 26.946,4C26.924,4 26.902,4 26.879,4C26.857,4 26.835,4 26.813,4C26.791,4 26.769,4 26.747,4C26.725,4 26.703,4 26.681,4C26.659,4 26.636,4 26.614,4C26.592,4 26.57,4 26.548,4C26.526,4 26.504,4 26.481,4C26.459,4 26.437,4 26.415,4C26.393,4 26.37,4 26.348,4C26.326,4 26.304,4 26.281,4C26.259,4 26.237,4 26.215,4C26.192,4 26.17,4 26.148,4C26.126,4 26.103,4 26.081,4C26.059,4 26.037,4 26.014,4C25.992,4 25.97,4 25.947,4C25.925,4 25.903,4 25.88,4C25.858,4 25.836,4 25.813,4C25.791,4 25.768,4 25.746,4C25.724,4 25.701,4 25.679,4C25.657,4 25.634,4 25.612,4C25.589,4 25.567,4 25.545,4C25.522,4 25.5,4 25.477,4C25.455,4 25.432,4 25.41,4C25.387,4 25.365,4 25.343,4C25.32,4 25.298,4 25.275,4C25.253,4 25.23,4 25.208,4C25.185,4 25.163,4 25.14,4C25.118,4 25.095,4 25.073,4C25.05,4 25.028,4 25.005,4C24.983,4 24.96,4 24.938,4C24.915,4 24.892,4 24.87,4C24.847,4 24.825,4 24.802,4C24.78,4 24.757,4 24.735,4C24.712,4 24.689,4 24.667,4C24.644,4 24.622,4 24.599,4C24.576,4 24.554,4 24.531,4C24.509,4 24.486,4 24.463,4C24.441,4 24.418,4 24.396,4C24.373,4 24.35,4 24.328,4C24.305,4 24.282,4 24.26,4C24.237,4 24.214,4 24.192,4C24.169,4 24.147,4 24.124,4C24.101,4 24.079,4 24.056,4C24.033,4 24.011,4 23.988,4C23.965,4 23.943,4 23.92,4C23.897,4 23.875,4 23.852,4C23.829,4 23.806,4 23.784,4C23.761,4 23.738,4 23.716,4C23.693,4 23.67,4 23.648,4C23.625,4 23.602,4 23.579,4C23.557,4 23.534,4 23.511,4C23.489,4 23.466,4 23.443,4C23.42,4 23.398,4 23.375,4C23.352,4 23.33,4 23.307,4C23.284,4 23.261,4 23.239,4C23.216,4 23.193,4 23.17,4C23.148,4 23.125,4 23.102,4C23.08,4 23.057,4 23.034,4C23.011,4 22.989,4 22.966,4C22.943,4 22.92,4 22.898,4C22.875,4 22.852,4 22.829,4C22.807,4 22.784,4 22.761,4C22.738,4 22.716,4 22.693,4C22.67,4 22.647,4 22.625,4C22.602,4 22.579,4 22.556,4C22.534,4 22.511,4 22.488,4C22.465,4 22.443,4 22.42,4C22.397,4 22.374,4 22.352,4C22.329,4 22.306,4 22.284,4C22.261,4 22.238,4 22.215,4C22.193,4 22.17,4 22.147,4C22.124,4 22.102,4 22.079,4C22.056,4 22.033,4 22.011,4C21.988,4 21.965,4 21.942,4C21.92,4 21.897,4 21.874,4C21.852,4 21.829,4 21.806,4C21.783,4 21.761,4 21.738,4C21.715,4 21.692,4 21.67,4C21.647,4 21.624,4 21.602,4C21.579,4 21.556,4 21.533,4C21.511,4 21.488,4 21.465,4C21.443,4 21.42,4 21.397,4C21.375,4 21.352,4 21.329,4C21.306,4 21.284,4 21.261,4C21.238,4 21.216,4 21.193,4C21.17,4 21.148,4 21.125,4C21.102,4 21.08,4 21.057,4C21.034,4 21.012,4 20.989,4C20.966,4 20.944,4 20.921,4C20.898,4 20.876,4 20.853,4C20.83,4 20.808,4 20.785,4C20.763,4 20.74,4 20.717,4C20.695,4 20.672,4 20.65,4C20.627,4 20.604,4 20.582,4C20.559,4 20.536,4 20.514,4C20.491,4 20.469,4 20.446,4C20.424,4 20.401,4 20.378,4C20.356,4 20.333,4 20.311,4C20.288,4 20.266,4 20.243,4C20.22,4 20.198,4 20.175,4C20.153,4 20.13,4 20.108,4C20.085,4 20.063,4 20.04,4C20.018,4 19.995,4 19.973,4C19.95,4 19.928,4 19.905,4C19.883,4 19.86,4 19.838,4C19.815,4 19.793,4 19.77,4C19.748,4 19.725,4 19.703,4C19.68,4 19.658,4 19.636,4C19.613,4 19.591,4 19.568,4C19.546,4 19.523,4 19.501,4C19.479,4 19.456,4 19.434,4C19.411,4 19.389,4 19.367,4C19.344,4 19.322,4 19.3,4C19.277,4 19.255,4 19.233,4C19.21,4 19.188,4 19.166,4C19.143,4 19.121,4 19.099,4C19.076,4 19.054,4 19.032,4C19.009,4 18.987,4 18.965,4C18.943,4 18.92,4 18.898,4C18.876,4 18.854,4 18.831,4C18.809,4 18.787,4 18.765,4C18.742,4 18.72,4 18.698,4C18.676,4 18.654,4 18.631,4C18.609,4 18.587,4 18.565,4C18.543,4 18.521,4 18.498,4C18.476,4 18.454,4 18.432,4C18.41,4 18.388,4 18.366,4C18.344,4 18.322,4 18.299,4C18.277,4 18.255,4 18.233,4C18.211,4 18.189,4 18.167,4C18.145,4 18.123,4 18.101,4C18.079,4 18.057,4 18.035,4C18.013,4 17.991,4 17.969,4C17.947,4 17.925,4 17.903,4C17.881,4 17.859,4 17.837,4C17.815,4 17.794,4 17.772,4C17.75,4 17.728,4 17.706,4C17.684,4 17.662,4 17.64,4C17.619,4 17.597,4 17.575,4C17.553,4 17.531,4 17.509,4C17.488,4 17.466,4 17.444,4C17.422,4 17.4,4 17.379,4C17.357,4 17.335,4 17.314,4C17.292,4 17.27,4 17.248,4C17.227,4 17.205,4 17.183,4C17.162,4 17.14,4 17.118,4C17.097,4 17.075,4 17.053,4C17.032,4 17.01,4 16.989,4C16.967,4 16.945,4 16.924,4C16.902,4 16.881,4 16.859,4C16.838,4 16.816,4 16.795,4C16.773,4 16.752,4 16.73,4C16.709,4 16.687,4 16.666,4C16.644,4 16.623,4 16.602,4C16.58,4 16.559,4 16.537,4C16.516,4 16.495,4 16.473,4C16.452,4 16.431,4 16.409,4C16.388,4 16.367,4 16.345,4C16.324,4 16.303,4 16.281,4C16.26,4 16.239,4 16.218,4C16.197,4 16.175,4 16.154,4C16.133,4 16.112,4 16.091,4C16.069,4 16.048,4 16.027,4C16.006,4 15.985,4 15.964,4C15.943,4 15.922,4 15.901,4C15.879,4 15.858,4 15.837,4C15.816,4 15.795,4 15.774,4C15.753,4 15.732,4 15.711,4C15.69,4 15.669,4 15.649,4C15.628,4 15.607,4 15.586,4C15.565,4 15.544,4 15.523,4C15.502,4 15.481,4 15.461,4C15.44,4 15.419,4 15.398,4C15.377,4 15.357,4 15.336,4C15.315,4 15.294,4 15.274,4C15.253,4 15.232,4 15.212,4C15.191,4 15.17,4 15.15,4C15.129,4 15.108,4 15.088,4C15.067,4 15.047,4 15.026,4C15.005,4 14.985,4 14.964,4C14.944,4 14.923,4 14.903,4C14.882,4 14.862,4 14.842,4C14.821,4 14.801,4 14.78,4C14.76,4 14.739,4 14.719,4C14.699,4 14.678,4 14.658,4C14.638,4 14.617,4 14.597,4C14.577,4 14.557,4 14.536,4C14.516,4 14.496,4 14.476,4C14.455,4 14.435,4 14.415,4C14.395,4 14.375,4 14.355,4C14.335,4 14.314,4 14.294,4C14.274,4 14.254,4 14.234,4C14.214,4 14.194,4 14.174,4C14.154,4 14.134,4 14.114,4C14.094,4 14.074,4 14.054,4C14.035,4 14.015,4 13.995,4C13.975,4 13.955,4 13.935,4C13.915,4 13.896,4 13.876,4C13.856,4 13.836,4 13.817,4C13.797,4 13.777,4 13.757,4C13.738,4 13.718,4 13.698,4C13.679,4 13.659,4 13.64,4C13.62,4 13.6,4 13.581,4C13.561,4 13.542,4 13.522,4C13.503,4 13.483,4 13.464,4C13.444,4 13.425,4 13.406,4C13.386,4 13.367,4 13.348,4C13.328,4 13.309,4 13.289,4C13.27,4 13.251,4 13.232,4C13.212,4 13.193,4 13.174,4C13.155,4 13.136,4 13.116,4C13.097,4 13.078,4 13.059,4C13.04,4 13.021,4 13.002,4C12.983,4 12.964,4 12.945,4C12.926,4 12.907,4 12.888,4C12.869,4 12.85,4 12.831,4C12.812,4 12.793,4 12.774,4C12.755,4 12.736,4 12.718,4C12.699,4 12.68,4 12.661,4C12.642,4 12.624,4 12.605,4C12.586,4 12.568,4 12.549,4C12.53,4 12.512,4 12.493,4C12.474,4 12.456,4 12.437,4C12.419,4 12.4,4 12.382,4C12.363,4 12.345,4 12.326,4C12.308,4 12.289,4 12.271,4C12.253,4 12.234,4 12.216,4C12.198,4 12.179,4 12.161,4C12.143,4 12.125,4 12.106,4C12.088,4 12.07,4 12.052,4C12.034,4 12.015,4 11.997,4C11.979,4 11.961,4 11.943,4C11.925,4 11.907,4 11.889,4C11.871,4 11.853,4 11.835,4C11.817,4 11.799,4 11.781,4C11.763,4 11.745,4 11.728,4C11.71,4 11.692,4 11.674,4C11.656,4 11.639,4 11.621,4C11.603,4 11.586,4 11.568,4C11.55,4 11.533,4 11.515,4C11.497,4 11.48,4 11.462,4C11.445,4 11.427,4 11.41,4C11.392,4 11.375,4 11.357,4C11.34,4 11.323,4 11.305,4C11.288,4 11.271,4 11.253,4C11.236,4 11.219,4 11.201,4C11.184,4 11.167,4 11.15,4C11.133,4 11.115,4 11.098,4C11.081,4 11.064,4 11.047,4C11.03,4 11.013,4 10.996,4C10.979,4 10.962,4 10.945,4C10.928,4 10.911,4 10.894,4C10.878,4 10.861,4 10.844,4C10.827,4 10.81,4 10.794,4C10.777,4 10.76,4 10.743,4C10.727,4 10.71,4 10.694,4C10.677,4 10.66,4 10.644,4C10.627,4 10.611,4 10.594,4C10.578,4 10.561,4 10.545,4C10.528,4 10.512,4 10.496,4C10.479,4 10.463,4 10.447,4C10.43,4 10.414,4 10.398,4C10.382,4 10.366,4 10.349,4C10.333,4 10.317,4 10.301,4C10.285,4 10.269,4 10.253,4C10.237,4 10.221,4 10.205,4C10.189,4 10.173,4 10.157,4C10.141,4 10.125,4 10.11,4C10.094,4 10.078,4 10.062,4C10.046,4 10.031,4 10.015,4C9.999,4 9.984,4 9.968,4C9.952,4 9.937,4 9.921,4C9.906,4 9.89,4 9.875,4C9.859,4 9.844,4 9.828,4C9.813,4 9.798,4 9.782,4C9.767,4 9.752,4 9.736,4C9.721,4 9.706,4 9.691,4C9.676,4 9.66,4 9.645,4C9.63,4 9.615,4 9.6,4C9.585,4 9.57,4 9.555,4C9.54,4 9.525,4 9.51,4C9.495,4 9.48,4 9.466,4C9.451,4 9.436,4 9.421,4C9.406,4 9.392,4 9.377,4C9.362,4 9.348,4 9.333,4C9.318,4 9.304,4 9.289,4C9.275,4 9.26,4 9.246,4C9.231,4 9.217,4 9.203,4C9.188,4 9.174,4 9.16,4C9.145,4 9.131,4 9.117,4C9.102,4 9.088,4 9.074,4C9.06,4 9.046,4 9.032,4C9.018,4 9.004,4 8.99,4C8.976,4 8.962,4 8.948,4C8.934,4 8.92,4 8.906,4C8.892,4 8.878,4 8.865,4C8.851,4 8.837,4 8.823,4C8.81,4 8.796,4 8.782,4C8.769,4 8.755,4 8.742,4C8.728,4 8.715,4 8.701,4C8.688,4 8.674,4 8.661,4C8.647,4 8.634,4 8.621,4C8.607,4 8.594,4 8.581,4C8.568,4 8.555,4 8.541,4C8.528,4 8.515,4 8.502,4C8.489,4 8.476,4 8.463,4C8.45,4 8.437,4 8.424,4C8.411,4 8.398,4 8.386,4C8.373,4 8.36,4 8.347,4C8.335,4 8.322,4 8.309,4C8.296,4 8.284,4 8.271,4C8.259,4 8.246,4 8.234,4C8.221,4 8.209,4 8.196,4C8.184,4 8.172,4 8.159,4C8.147,4 8.135,4 8.122,4C8.11,4 8.098,4 8.086,4C8.074,4 8.062,4 8.049,4C8.037,4 8.025,4 8.013,4C8.001,4 7.989,4 7.978,4C7.966,4 7.954,4 7.942,4C7.93,4 7.918,4 7.907,4C7.895,4 7.883,4 7.872,4C7.86,4 7.848,4 7.837,4C7.825,4 7.814,4 7.802,4C7.791,4 7.779,4 7.768,4C7.757,4 7.745,4 7.734,4C7.723,4 7.711,4 7.7,4C7.689,4 7.678,4 7.667,4C7.656,4 7.644,4 7.633,4C7.622,4 7.611,4 7.6,4C7.59,4 7.579,4 7.568,4C7.557,4 7.546,4 7.535,4C7.525,4 7.514,4 7.503,4C7.493,4 7.482,4 7.471,4C7.461,4 7.45,4 7.44,4C7.429,4 7.419,4 7.408,4C7.398,4 7.388,4 7.377,4C7.367,4 7.357,4 7.346,4C7.336,4 7.326,4 7.316,4C7.306,4 7.296,4 7.286,4C7.276,4 7.266,4 7.256,4C7.246,4 7.236,4 7.226,4C7.216,4 7.206,4 7.197,4C7.187,4 7.177,4 7.168,4C7.158,4 7.148,4 7.139,4C7.129,4 7.12,4 7.11,4C7.101,4 7.091,4 7.082,4C7.072,4 7.063,4 7.054,4C7.045,4 7.035,4 7.026,4C7.017,4 7.008,4 6.999,4C6.99,4 6.981,4 6.972,4C6.963,4 6.954,4 6.945,4C6.936,4 6.927,4 6.918,4C6.909,4 6.901,4 6.892,4C6.883,4 6.875,4 6.866,4C6.857,4 6.849,4 6.84,4C6.832,4 6.823,4 6.815,4C6.806,4 6.798,4 6.79,4C6.781,4 6.773,4 6.765,4C6.757,4 6.749,4 6.74,4C6.732,4 6.724,4 6.716,4C6.708,4 6.7,4 6.692,4C6.684,4 6.677,4 6.669,4C6.661,4 6.653,4 6.645,4C6.638,4 6.63,4 6.622,4C6.615,4 6.607,4 6.6,4C6.592,4 6.585,4 6.577,4C6.57,4 6.563,4 6.555,4C6.548,4 6.541,4 6.533,4C6.526,4 6.519,4 6.512,4C6.505,4 6.498,4 6.491,4C6.484,4 6.477,4 6.47,4C6.463,4 6.456,4 6.449,4C6.443,4 6.436,4 6.429,4L6.429,6ZM35.001,6C36.334,6 37.882,6.201 39.346,7.073C40.795,7.937 42.269,9.521 43.346,12.485L45.226,11.801C44.018,8.479 42.278,6.492 40.369,5.355C38.477,4.228 36.524,4 35.001,4L35.001,6Z" fill="#5E80C9"/>
<path d="M88.091,1.031C88.266,0.507 87.982,-0.06 87.459,-0.234C86.935,-0.409 86.368,-0.126 86.194,0.398L88.091,1.031ZM43.345,11.801C43.157,12.32 43.424,12.894 43.943,13.083C44.462,13.271 45.036,13.004 45.225,12.485L43.345,11.801ZM86.194,0.398C86.002,0.973 85.513,1.899 84.704,2.668C83.911,3.42 82.838,4 81.428,4L81.428,6C83.447,6 84.993,5.151 86.081,4.118C87.152,3.101 87.807,1.884 88.091,1.031L86.194,0.398ZM81.428,4C81.421,4 81.415,4 81.408,4C81.401,4 81.394,4 81.387,4C81.38,4 81.373,4 81.366,4C81.359,4 81.352,4 81.345,4C81.338,4 81.331,4 81.324,4C81.317,4 81.309,4 81.302,4C81.295,4 81.287,4 81.28,4C81.272,4 81.265,4 81.257,4C81.25,4 81.242,4 81.235,4C81.227,4 81.219,4 81.212,4C81.204,4 81.196,4 81.188,4C81.181,4 81.173,4 81.165,4C81.157,4 81.149,4 81.141,4C81.133,4 81.125,4 81.117,4C81.109,4 81.1,4 81.092,4C81.084,4 81.076,4 81.067,4C81.059,4 81.051,4 81.042,4C81.034,4 81.025,4 81.017,4C81.008,4 81,4 80.991,4C80.983,4 80.974,4 80.965,4C80.957,4 80.948,4 80.939,4C80.93,4 80.921,4 80.912,4C80.904,4 80.895,4 80.886,4C80.877,4 80.868,4 80.858,4C80.849,4 80.84,4 80.831,4C80.822,4 80.813,4 80.803,4C80.794,4 80.785,4 80.775,4C80.766,4 80.757,4 80.747,4C80.738,4 80.728,4 80.718,4C80.709,4 80.699,4 80.69,4C80.68,4 80.67,4 80.661,4C80.651,4 80.641,4 80.631,4C80.621,4 80.611,4 80.601,4C80.591,4 80.581,4 80.571,4C80.561,4 80.551,4 80.541,4C80.531,4 80.521,4 80.511,4C80.5,4 80.49,4 80.48,4C80.47,4 80.459,4 80.449,4C80.438,4 80.428,4 80.417,4C80.407,4 80.396,4 80.386,4C80.375,4 80.365,4 80.354,4C80.343,4 80.333,4 80.322,4C80.311,4 80.3,4 80.289,4C80.279,4 80.268,4 80.257,4C80.246,4 80.235,4 80.224,4C80.213,4 80.202,4 80.191,4C80.179,4 80.168,4 80.157,4C80.146,4 80.135,4 80.123,4C80.112,4 80.101,4 80.089,4C80.078,4 80.066,4 80.055,4C80.044,4 80.032,4 80.02,4C80.009,4 79.997,4 79.986,4C79.974,4 79.962,4 79.951,4C79.939,4 79.927,4 79.915,4C79.903,4 79.892,4 79.88,4C79.868,4 79.856,4 79.844,4C79.832,4 79.82,4 79.808,4C79.796,4 79.784,4 79.771,4C79.759,4 79.747,4 79.735,4C79.723,4 79.71,4 79.698,4C79.686,4 79.673,4 79.661,4C79.648,4 79.636,4 79.623,4C79.611,4 79.598,4 79.586,4C79.573,4 79.561,4 79.548,4C79.535,4 79.523,4 79.51,4C79.497,4 79.484,4 79.472,4C79.459,4 79.446,4 79.433,4C79.42,4 79.407,4 79.394,4C79.381,4 79.368,4 79.355,4C79.342,4 79.329,4 79.316,4C79.303,4 79.289,4 79.276,4C79.263,4 79.25,4 79.236,4C79.223,4 79.21,4 79.196,4C79.183,4 79.17,4 79.156,4C79.143,4 79.129,4 79.116,4C79.102,4 79.088,4 79.075,4C79.061,4 79.048,4 79.034,4C79.02,4 79.006,4 78.993,4C78.979,4 78.965,4 78.951,4C78.937,4 78.923,4 78.91,4C78.896,4 78.882,4 78.868,4C78.854,4 78.84,4 78.825,4C78.811,4 78.797,4 78.783,4C78.769,4 78.755,4 78.741,4C78.726,4 78.712,4 78.698,4C78.683,4 78.669,4 78.655,4C78.64,4 78.626,4 78.611,4C78.597,4 78.582,4 78.568,4C78.553,4 78.539,4 78.524,4C78.51,4 78.495,4 78.48,4C78.465,4 78.451,4 78.436,4C78.421,4 78.406,4 78.392,4C78.377,4 78.362,4 78.347,4C78.332,4 78.317,4 78.302,4C78.287,4 78.272,4 78.257,4C78.242,4 78.227,4 78.212,4C78.197,4 78.182,4 78.166,4C78.151,4 78.136,4 78.121,4C78.105,4 78.09,4 78.075,4C78.06,4 78.044,4 78.029,4C78.013,4 77.998,4 77.982,4C77.967,4 77.951,4 77.936,4C77.92,4 77.905,4 77.889,4C77.874,4 77.858,4 77.842,4C77.827,4 77.811,4 77.795,4C77.779,4 77.763,4 77.748,4C77.732,4 77.716,4 77.7,4C77.684,4 77.668,4 77.652,4C77.636,4 77.62,4 77.604,4C77.588,4 77.572,4 77.556,4C77.54,4 77.524,4 77.508,4C77.492,4 77.475,4 77.459,4C77.443,4 77.427,4 77.41,4C77.394,4 77.378,4 77.362,4C77.345,4 77.329,4 77.312,4C77.296,4 77.279,4 77.263,4C77.246,4 77.23,4 77.213,4C77.197,4 77.18,4 77.164,4C77.147,4 77.13,4 77.114,4C77.097,4 77.08,4 77.064,4C77.047,4 77.03,4 77.013,4C76.996,4 76.98,4 76.963,4C76.946,4 76.929,4 76.912,4C76.895,4 76.878,4 76.861,4C76.844,4 76.827,4 76.81,4C76.793,4 76.776,4 76.759,4C76.742,4 76.725,4 76.707,4C76.69,4 76.673,4 76.656,4C76.639,4 76.621,4 76.604,4C76.587,4 76.569,4 76.552,4C76.535,4 76.517,4 76.5,4C76.482,4 76.465,4 76.447,4C76.43,4 76.412,4 76.395,4C76.377,4 76.36,4 76.342,4C76.325,4 76.307,4 76.289,4C76.272,4 76.254,4 76.236,4C76.218,4 76.201,4 76.183,4C76.165,4 76.147,4 76.13,4C76.112,4 76.094,4 76.076,4C76.058,4 76.04,4 76.022,4C76.004,4 75.986,4 75.968,4C75.95,4 75.932,4 75.914,4C75.896,4 75.878,4 75.86,4C75.842,4 75.824,4 75.805,4C75.787,4 75.769,4 75.751,4C75.733,4 75.714,4 75.696,4C75.678,4 75.66,4 75.641,4C75.623,4 75.605,4 75.586,4C75.568,4 75.549,4 75.531,4C75.512,4 75.494,4 75.475,4C75.457,4 75.438,4 75.42,4C75.401,4 75.383,4 75.364,4C75.346,4 75.327,4 75.308,4C75.29,4 75.271,4 75.252,4C75.233,4 75.215,4 75.196,4C75.177,4 75.158,4 75.14,4C75.121,4 75.102,4 75.083,4C75.064,4 75.045,4 75.026,4C75.008,4 74.989,4 74.97,4C74.951,4 74.932,4 74.913,4C74.894,4 74.875,4 74.856,4C74.836,4 74.817,4 74.798,4C74.779,4 74.76,4 74.741,4C74.722,4 74.702,4 74.683,4C74.664,4 74.645,4 74.626,4C74.606,4 74.587,4 74.568,4C74.548,4 74.529,4 74.51,4C74.49,4 74.471,4 74.452,4C74.432,4 74.413,4 74.393,4C74.374,4 74.354,4 74.335,4C74.315,4 74.296,4 74.276,4C74.257,4 74.237,4 74.218,4C74.198,4 74.178,4 74.159,4C74.139,4 74.119,4 74.1,4C74.08,4 74.06,4 74.041,4C74.021,4 74.001,4 73.981,4C73.962,4 73.942,4 73.922,4C73.902,4 73.882,4 73.862,4C73.843,4 73.823,4 73.803,4C73.783,4 73.763,4 73.743,4C73.723,4 73.703,4 73.683,4C73.663,4 73.643,4 73.623,4C73.603,4 73.583,4 73.563,4C73.543,4 73.523,4 73.503,4C73.482,4 73.462,4 73.442,4C73.422,4 73.402,4 73.382,4C73.361,4 73.341,4 73.321,4C73.301,4 73.28,4 73.26,4C73.24,4 73.219,4 73.199,4C73.179,4 73.158,4 73.138,4C73.118,4 73.097,4 73.077,4C73.057,4 73.036,4 73.016,4C72.995,4 72.975,4 72.954,4C72.934,4 72.913,4 72.893,4C72.872,4 72.852,4 72.831,4C72.811,4 72.79,4 72.769,4C72.749,4 72.728,4 72.708,4C72.687,4 72.666,4 72.646,4C72.625,4 72.604,4 72.583,4C72.563,4 72.542,4 72.521,4C72.501,4 72.48,4 72.459,4C72.438,4 72.417,4 72.397,4C72.376,4 72.355,4 72.334,4C72.313,4 72.292,4 72.271,4C72.25,4 72.23,4 72.209,4C72.188,4 72.167,4 72.146,4C72.125,4 72.104,4 72.083,4C72.062,4 72.041,4 72.02,4C71.999,4 71.978,4 71.957,4C71.936,4 71.915,4 71.893,4C71.872,4 71.851,4 71.83,4C71.809,4 71.788,4 71.767,4C71.745,4 71.724,4 71.703,4C71.682,4 71.661,4 71.639,4C71.618,4 71.597,4 71.576,4C71.554,4 71.533,4 71.512,4C71.491,4 71.469,4 71.448,4C71.427,4 71.405,4 71.384,4C71.363,4 71.341,4 71.32,4C71.298,4 71.277,4 71.256,4C71.234,4 71.213,4 71.191,4C71.17,4 71.148,4 71.127,4C71.105,4 71.084,4 71.062,4C71.041,4 71.019,4 70.998,4C70.976,4 70.955,4 70.933,4C70.912,4 70.89,4 70.869,4C70.847,4 70.825,4 70.804,4C70.782,4 70.76,4 70.739,4C70.717,4 70.696,4 70.674,4C70.652,4 70.63,4 70.609,4C70.587,4 70.565,4 70.544,4C70.522,4 70.5,4 70.478,4C70.457,4 70.435,4 70.413,4C70.391,4 70.37,4 70.348,4C70.326,4 70.304,4 70.282,4C70.261,4 70.239,4 70.217,4C70.195,4 70.173,4 70.151,4C70.129,4 70.107,4 70.086,4C70.064,4 70.042,4 70.02,4C69.998,4 69.976,4 69.954,4C69.932,4 69.91,4 69.888,4C69.866,4 69.844,4 69.822,4C69.8,4 69.778,4 69.756,4C69.734,4 69.712,4 69.69,4C69.668,4 69.646,4 69.624,4C69.602,4 69.58,4 69.558,4C69.536,4 69.514,4 69.491,4C69.469,4 69.447,4 69.425,4C69.403,4 69.381,4 69.359,4C69.337,4 69.314,4 69.292,4C69.27,4 69.248,4 69.226,4C69.204,4 69.181,4 69.159,4C69.137,4 69.115,4 69.093,4C69.07,4 69.048,4 69.026,4C69.004,4 68.981,4 68.959,4C68.937,4 68.915,4 68.892,4C68.87,4 68.848,4 68.826,4C68.803,4 68.781,4 68.759,4C68.736,4 68.714,4 68.692,4C68.669,4 68.647,4 68.625,4C68.602,4 68.58,4 68.558,4C68.535,4 68.513,4 68.49,4C68.468,4 68.446,4 68.423,4C68.401,4 68.379,4 68.356,4C68.334,4 68.311,4 68.289,4C68.266,4 68.244,4 68.222,4C68.199,4 68.177,4 68.154,4C68.132,4 68.109,4 68.087,4C68.064,4 68.042,4 68.019,4C67.997,4 67.975,4 67.952,4C67.93,4 67.907,4 67.885,4C67.862,4 67.84,4 67.817,4C67.795,4 67.772,4 67.749,4C67.727,4 67.704,4 67.682,4C67.659,4 67.637,4 67.614,4C67.592,4 67.569,4 67.547,4C67.524,4 67.501,4 67.479,4C67.456,4 67.434,4 67.411,4C67.388,4 67.366,4 67.343,4C67.321,4 67.298,4 67.276,4C67.253,4 67.23,4 67.208,4C67.185,4 67.162,4 67.14,4C67.117,4 67.095,4 67.072,4C67.049,4 67.027,4 67.004,4C66.981,4 66.959,4 66.936,4C66.913,4 66.891,4 66.868,4C66.845,4 66.823,4 66.8,4C66.777,4 66.755,4 66.732,4C66.709,4 66.687,4 66.664,4C66.641,4 66.619,4 66.596,4C66.573,4 66.551,4 66.528,4C66.505,4 66.483,4 66.46,4C66.437,4 66.415,4 66.392,4C66.369,4 66.346,4 66.324,4C66.301,4 66.278,4 66.256,4C66.233,4 66.21,4 66.187,4C66.165,4 66.142,4 66.119,4C66.097,4 66.074,4 66.051,4C66.028,4 66.006,4 65.983,4C65.96,4 65.937,4 65.915,4C65.892,4 65.869,4 65.847,4C65.824,4 65.801,4 65.778,4C65.756,4 65.733,4 65.71,4C65.687,4 65.665,4 65.642,4C65.619,4 65.596,4 65.574,4C65.551,4 65.528,4 65.505,4C65.483,4 65.46,4 65.437,4C65.414,4 65.392,4 65.369,4C65.346,4 65.323,4 65.301,4C65.278,4 65.255,4 65.232,4C65.21,4 65.187,4 65.164,4C65.141,4 65.119,4 65.096,4C65.073,4 65.05,4 65.028,4C65.005,4 64.982,4 64.96,4C64.937,4 64.914,4 64.891,4C64.869,4 64.846,4 64.823,4C64.8,4 64.778,4 64.755,4C64.732,4 64.709,4 64.687,4C64.664,4 64.641,4 64.618,4C64.596,4 64.573,4 64.55,4C64.528,4 64.505,4 64.482,4C64.459,4 64.437,4 64.414,4C64.391,4 64.369,4 64.346,4C64.323,4 64.3,4 64.278,4C64.255,4 64.232,4 64.21,4C64.187,4 64.164,4 64.141,4C64.119,4 64.096,4 64.073,4C64.051,4 64.028,4 64.005,4C63.983,4 63.96,4 63.937,4C63.915,4 63.892,4 63.869,4C63.847,4 63.824,4 63.801,4C63.779,4 63.756,4 63.733,4C63.711,4 63.688,4 63.665,4C63.643,4 63.62,4 63.597,4C63.575,4 63.552,4 63.529,4C63.507,4 63.484,4 63.462,4C63.439,4 63.416,4 63.394,4C63.371,4 63.348,4 63.326,4C63.303,4 63.281,4 63.258,4C63.235,4 63.213,4 63.19,4C63.168,4 63.145,4 63.123,4C63.1,4 63.077,4 63.055,4C63.032,4 63.01,4 62.987,4C62.965,4 62.942,4 62.92,4C62.897,4 62.874,4 62.852,4C62.829,4 62.807,4 62.784,4C62.762,4 62.739,4 62.717,4C62.694,4 62.672,4 62.649,4C62.627,4 62.604,4 62.582,4C62.559,4 62.537,4 62.515,4C62.492,4 62.47,4 62.447,4C62.425,4 62.402,4 62.38,4C62.357,4 62.335,4 62.313,4C62.29,4 62.268,4 62.245,4C62.223,4 62.201,4 62.178,4C62.156,4 62.133,4 62.111,4C62.089,4 62.066,4 62.044,4C62.022,4 61.999,4 61.977,4C61.954,4 61.932,4 61.91,4C61.888,4 61.865,4 61.843,4C61.821,4 61.798,4 61.776,4C61.754,4 61.731,4 61.709,4C61.687,4 61.665,4 61.642,4C61.62,4 61.598,4 61.576,4C61.553,4 61.531,4 61.509,4C61.487,4 61.465,4 61.442,4C61.42,4 61.398,4 61.376,4C61.354,4 61.331,4 61.309,4C61.287,4 61.265,4 61.243,4C61.221,4 61.199,4 61.176,4C61.154,4 61.132,4 61.11,4C61.088,4 61.066,4 61.044,4C61.022,4 61,4 60.978,4C60.956,4 60.934,4 60.911,4C60.889,4 60.867,4 60.845,4C60.823,4 60.801,4 60.779,4C60.757,4 60.735,4 60.713,4C60.692,4 60.67,4 60.648,4C60.626,4 60.604,4 60.582,4C60.56,4 60.538,4 60.516,4C60.494,4 60.472,4 60.45,4C60.429,4 60.407,4 60.385,4C60.363,4 60.341,4 60.319,4C60.298,4 60.276,4 60.254,4C60.232,4 60.21,4 60.189,4C60.167,4 60.145,4 60.123,4C60.102,4 60.08,4 60.058,4C60.036,4 60.015,4 59.993,4C59.971,4 59.95,4 59.928,4C59.906,4 59.885,4 59.863,4C59.841,4 59.82,4 59.798,4C59.776,4 59.755,4 59.733,4C59.712,4 59.69,4 59.669,4C59.647,4 59.625,4 59.604,4C59.582,4 59.561,4 59.539,4C59.518,4 59.496,4 59.475,4C59.453,4 59.432,4 59.411,4C59.389,4 59.368,4 59.346,4C59.325,4 59.303,4 59.282,4C59.261,4 59.239,4 59.218,4C59.197,4 59.175,4 59.154,4C59.133,4 59.111,4 59.09,4C59.069,4 59.048,4 59.026,4C59.005,4 58.984,4 58.963,4C58.941,4 58.92,4 58.899,4C58.878,4 58.857,4 58.835,4C58.814,4 58.793,4 58.772,4C58.751,4 58.73,4 58.709,4C58.687,4 58.666,4 58.645,4C58.624,4 58.603,4 58.582,4C58.561,4 58.54,4 58.519,4C58.498,4 58.477,4 58.456,4C58.435,4 58.414,4 58.393,4C58.372,4 58.352,4 58.331,4C58.31,4 58.289,4 58.268,4C58.247,4 58.226,4 58.206,4C58.185,4 58.164,4 58.143,4C58.122,4 58.102,4 58.081,4C58.06,4 58.039,4 58.019,4C57.998,4 57.977,4 57.957,4C57.936,4 57.915,4 57.895,4C57.874,4 57.853,4 57.833,4C57.812,4 57.792,4 57.771,4C57.751,4 57.73,4 57.709,4C57.689,4 57.668,4 57.648,4C57.628,4 57.607,4 57.587,4C57.566,4 57.546,4 57.525,4C57.505,4 57.485,4 57.464,4C57.444,4 57.423,4 57.403,4C57.383,4 57.363,4 57.342,4C57.322,4 57.302,4 57.281,4C57.261,4 57.241,4 57.221,4C57.201,4 57.18,4 57.16,4C57.14,4 57.12,4 57.1,4C57.08,4 57.06,4 57.04,4C57.02,4 56.999,4 56.979,4C56.959,4 56.939,4 56.919,4C56.899,4 56.879,4 56.86,4C56.84,4 56.82,4 56.8,4C56.78,4 56.76,4 56.74,4C56.72,4 56.7,4 56.681,4C56.661,4 56.641,4 56.621,4C56.601,4 56.582,4 56.562,4C56.542,4 56.523,4 56.503,4C56.483,4 56.464,4 56.444,4C56.424,4 56.405,4 56.385,4C56.366,4 56.346,4 56.326,4C56.307,4 56.287,4 56.268,4C56.248,4 56.229,4 56.209,4C56.19,4 56.171,4 56.151,4C56.132,4 56.112,4 56.093,4C56.074,4 56.054,4 56.035,4C56.016,4 55.996,4 55.977,4C55.958,4 55.939,4 55.92,4C55.9,4 55.881,4 55.862,4C55.843,4 55.824,4 55.805,4C55.785,4 55.766,4 55.747,4C55.728,4 55.709,4 55.69,4C55.671,4 55.652,4 55.633,4C55.614,4 55.595,4 55.576,4C55.558,4 55.539,4 55.52,4C55.501,4 55.482,4 55.463,4C55.445,4 55.426,4 55.407,4C55.388,4 55.37,4 55.351,4C55.332,4 55.313,4 55.295,4C55.276,4 55.258,4 55.239,4C55.22,4 55.202,4 55.183,4C55.165,4 55.146,4 55.128,4C55.109,4 55.091,4 55.072,4C55.054,4 55.035,4 55.017,4C54.999,4 54.98,4 54.962,4C54.944,4 54.925,4 54.907,4C54.889,4 54.871,4 54.852,4C54.834,4 54.816,4 54.798,4C54.78,4 54.761,4 54.743,4C54.725,4 54.707,4 54.689,4C54.671,4 54.653,4 54.635,4C54.617,4 54.599,4 54.581,4C54.563,4 54.545,4 54.527,4C54.51,4 54.492,4 54.474,4C54.456,4 54.438,4 54.42,4C54.403,4 54.385,4 54.367,4C54.35,4 54.332,4 54.314,4C54.297,4 54.279,4 54.261,4C54.244,4 54.226,4 54.209,4C54.191,4 54.174,4 54.156,4C54.139,4 54.121,4 54.104,4C54.086,4 54.069,4 54.052,4C54.034,4 54.017,4 54,4C53.982,4 53.965,4 53.948,4C53.931,4 53.913,4 53.896,4C53.879,4 53.862,4 53.845,4C53.828,4 53.811,4 53.794,4C53.777,4 53.76,4 53.743,4C53.726,4 53.709,4 53.692,4C53.675,4 53.658,4 53.641,4C53.624,4 53.607,4 53.591,4C53.574,4 53.557,4 53.54,4C53.524,4 53.507,4 53.49,4C53.473,4 53.457,4 53.44,4C53.424,4 53.407,4 53.391,4C53.374,4 53.357,4 53.341,4C53.325,4 53.308,4 53.292,4C53.275,4 53.259,4 53.243,4C53.226,4 53.21,4 53.194,4C53.177,4 53.161,4 53.145,4C53.129,4 53.112,4 53.096,4C53.08,4 53.064,4 53.048,4C53.032,4 53.016,4 53,4C52.984,4 52.968,4 52.952,4C52.936,4 52.92,4 52.904,4C52.888,4 52.872,4 52.857,4L52.857,6C52.872,6 52.888,6 52.904,6C52.92,6 52.936,6 52.952,6C52.968,6 52.984,6 53,6C53.016,6 53.032,6 53.048,6C53.064,6 53.08,6 53.096,6C53.112,6 53.129,6 53.145,6C53.161,6 53.177,6 53.194,6C53.21,6 53.226,6 53.243,6C53.259,6 53.275,6 53.292,6C53.308,6 53.325,6 53.341,6C53.357,6 53.374,6 53.391,6C53.407,6 53.424,6 53.44,6C53.457,6 53.473,6 53.49,6C53.507,6 53.524,6 53.54,6C53.557,6 53.574,6 53.591,6C53.607,6 53.624,6 53.641,6C53.658,6 53.675,6 53.692,6C53.709,6 53.726,6 53.743,6C53.76,6 53.777,6 53.794,6C53.811,6 53.828,6 53.845,6C53.862,6 53.879,6 53.896,6C53.913,6 53.931,6 53.948,6C53.965,6 53.982,6 54,6C54.017,6 54.034,6 54.052,6C54.069,6 54.086,6 54.104,6C54.121,6 54.139,6 54.156,6C54.174,6 54.191,6 54.209,6C54.226,6 54.244,6 54.261,6C54.279,6 54.297,6 54.314,6C54.332,6 54.35,6 54.367,6C54.385,6 54.403,6 54.42,6C54.438,6 54.456,6 54.474,6C54.492,6 54.51,6 54.527,6C54.545,6 54.563,6 54.581,6C54.599,6 54.617,6 54.635,6C54.653,6 54.671,6 54.689,6C54.707,6 54.725,6 54.743,6C54.761,6 54.78,6 54.798,6C54.816,6 54.834,6 54.852,6C54.871,6 54.889,6 54.907,6C54.925,6 54.944,6 54.962,6C54.98,6 54.999,6 55.017,6C55.035,6 55.054,6 55.072,6C55.091,6 55.109,6 55.128,6C55.146,6 55.165,6 55.183,6C55.202,6 55.22,6 55.239,6C55.258,6 55.276,6 55.295,6C55.313,6 55.332,6 55.351,6C55.37,6 55.388,6 55.407,6C55.426,6 55.445,6 55.463,6C55.482,6 55.501,6 55.52,6C55.539,6 55.558,6 55.576,6C55.595,6 55.614,6 55.633,6C55.652,6 55.671,6 55.69,6C55.709,6 55.728,6 55.747,6C55.766,6 55.785,6 55.805,6C55.824,6 55.843,6 55.862,6C55.881,6 55.9,6 55.92,6C55.939,6 55.958,6 55.977,6C55.996,6 56.016,6 56.035,6C56.054,6 56.074,6 56.093,6C56.112,6 56.132,6 56.151,6C56.171,6 56.19,6 56.209,6C56.229,6 56.248,6 56.268,6C56.287,6 56.307,6 56.326,6C56.346,6 56.366,6 56.385,6C56.405,6 56.424,6 56.444,6C56.464,6 56.483,6 56.503,6C56.523,6 56.542,6 56.562,6C56.582,6 56.601,6 56.621,6C56.641,6 56.661,6 56.681,6C56.7,6 56.72,6 56.74,6C56.76,6 56.78,6 56.8,6C56.82,6 56.84,6 56.86,6C56.879,6 56.899,6 56.919,6C56.939,6 56.959,6 56.979,6C56.999,6 57.02,6 57.04,6C57.06,6 57.08,6 57.1,6C57.12,6 57.14,6 57.16,6C57.18,6 57.201,6 57.221,6C57.241,6 57.261,6 57.281,6C57.302,6 57.322,6 57.342,6C57.363,6 57.383,6 57.403,6C57.423,6 57.444,6 57.464,6C57.485,6 57.505,6 57.525,6C57.546,6 57.566,6 57.587,6C57.607,6 57.628,6 57.648,6C57.668,6 57.689,6 57.709,6C57.73,6 57.751,6 57.771,6C57.792,6 57.812,6 57.833,6C57.853,6 57.874,6 57.895,6C57.915,6 57.936,6 57.957,6C57.977,6 57.998,6 58.019,6C58.039,6 58.06,6 58.081,6C58.102,6 58.122,6 58.143,6C58.164,6 58.185,6 58.206,6C58.226,6 58.247,6 58.268,6C58.289,6 58.31,6 58.331,6C58.352,6 58.372,6 58.393,6C58.414,6 58.435,6 58.456,6C58.477,6 58.498,6 58.519,6C58.54,6 58.561,6 58.582,6C58.603,6 58.624,6 58.645,6C58.666,6 58.687,6 58.709,6C58.73,6 58.751,6 58.772,6C58.793,6 58.814,6 58.835,6C58.857,6 58.878,6 58.899,6C58.92,6 58.941,6 58.963,6C58.984,6 59.005,6 59.026,6C59.048,6 59.069,6 59.09,6C59.111,6 59.133,6 59.154,6C59.175,6 59.197,6 59.218,6C59.239,6 59.261,6 59.282,6C59.303,6 59.325,6 59.346,6C59.368,6 59.389,6 59.411,6C59.432,6 59.453,6 59.475,6C59.496,6 59.518,6 59.539,6C59.561,6 59.582,6 59.604,6C59.625,6 59.647,6 59.669,6C59.69,6 59.712,6 59.733,6C59.755,6 59.776,6 59.798,6C59.82,6 59.841,6 59.863,6C59.885,6 59.906,6 59.928,6C59.95,6 59.971,6 59.993,6C60.015,6 60.036,6 60.058,6C60.08,6 60.102,6 60.123,6C60.145,6 60.167,6 60.189,6C60.21,6 60.232,6 60.254,6C60.276,6 60.298,6 60.319,6C60.341,6 60.363,6 60.385,6C60.407,6 60.429,6 60.45,6C60.472,6 60.494,6 60.516,6C60.538,6 60.56,6 60.582,6C60.604,6 60.626,6 60.648,6C60.67,6 60.692,6 60.713,6C60.735,6 60.757,6 60.779,6C60.801,6 60.823,6 60.845,6C60.867,6 60.889,6 60.911,6C60.934,6 60.956,6 60.978,6C61,6 61.022,6 61.044,6C61.066,6 61.088,6 61.11,6C61.132,6 61.154,6 61.176,6C61.199,6 61.221,6 61.243,6C61.265,6 61.287,6 61.309,6C61.331,6 61.354,6 61.376,6C61.398,6 61.42,6 61.442,6C61.465,6 61.487,6 61.509,6C61.531,6 61.553,6 61.576,6C61.598,6 61.62,6 61.642,6C61.665,6 61.687,6 61.709,6C61.731,6 61.754,6 61.776,6C61.798,6 61.821,6 61.843,6C61.865,6 61.888,6 61.91,6C61.932,6 61.954,6 61.977,6C61.999,6 62.022,6 62.044,6C62.066,6 62.089,6 62.111,6C62.133,6 62.156,6 62.178,6C62.201,6 62.223,6 62.245,6C62.268,6 62.29,6 62.313,6C62.335,6 62.357,6 62.38,6C62.402,6 62.425,6 62.447,6C62.47,6 62.492,6 62.515,6C62.537,6 62.559,6 62.582,6C62.604,6 62.627,6 62.649,6C62.672,6 62.694,6 62.717,6C62.739,6 62.762,6 62.784,6C62.807,6 62.829,6 62.852,6C62.874,6 62.897,6 62.92,6C62.942,6 62.965,6 62.987,6C63.01,6 63.032,6 63.055,6C63.077,6 63.1,6 63.123,6C63.145,6 63.168,6 63.19,6C63.213,6 63.235,6 63.258,6C63.281,6 63.303,6 63.326,6C63.348,6 63.371,6 63.394,6C63.416,6 63.439,6 63.462,6C63.484,6 63.507,6 63.529,6C63.552,6 63.575,6 63.597,6C63.62,6 63.643,6 63.665,6C63.688,6 63.711,6 63.733,6C63.756,6 63.779,6 63.801,6C63.824,6 63.847,6 63.869,6C63.892,6 63.915,6 63.937,6C63.96,6 63.983,6 64.005,6C64.028,6 64.051,6 64.073,6C64.096,6 64.119,6 64.141,6C64.164,6 64.187,6 64.21,6C64.232,6 64.255,6 64.278,6C64.3,6 64.323,6 64.346,6C64.369,6 64.391,6 64.414,6C64.437,6 64.459,6 64.482,6C64.505,6 64.528,6 64.55,6C64.573,6 64.596,6 64.618,6C64.641,6 64.664,6 64.687,6C64.709,6 64.732,6 64.755,6C64.778,6 64.8,6 64.823,6C64.846,6 64.869,6 64.891,6C64.914,6 64.937,6 64.96,6C64.982,6 65.005,6 65.028,6C65.05,6 65.073,6 65.096,6C65.119,6 65.141,6 65.164,6C65.187,6 65.21,6 65.232,6C65.255,6 65.278,6 65.301,6C65.323,6 65.346,6 65.369,6C65.392,6 65.414,6 65.437,6C65.46,6 65.483,6 65.505,6C65.528,6 65.551,6 65.574,6C65.596,6 65.619,6 65.642,6C65.665,6 65.687,6 65.71,6C65.733,6 65.756,6 65.778,6C65.801,6 65.824,6 65.847,6C65.869,6 65.892,6 65.915,6C65.937,6 65.96,6 65.983,6C66.006,6 66.028,6 66.051,6C66.074,6 66.097,6 66.119,6C66.142,6 66.165,6 66.187,6C66.21,6 66.233,6 66.256,6C66.278,6 66.301,6 66.324,6C66.346,6 66.369,6 66.392,6C66.415,6 66.437,6 66.46,6C66.483,6 66.505,6 66.528,6C66.551,6 66.573,6 66.596,6C66.619,6 66.641,6 66.664,6C66.687,6 66.709,6 66.732,6C66.755,6 66.777,6 66.8,6C66.823,6 66.845,6 66.868,6C66.891,6 66.913,6 66.936,6C66.959,6 66.981,6 67.004,6C67.027,6 67.049,6 67.072,6C67.095,6 67.117,6 67.14,6C67.162,6 67.185,6 67.208,6C67.23,6 67.253,6 67.276,6C67.298,6 67.321,6 67.343,6C67.366,6 67.388,6 67.411,6C67.434,6 67.456,6 67.479,6C67.501,6 67.524,6 67.547,6C67.569,6 67.592,6 67.614,6C67.637,6 67.659,6 67.682,6C67.704,6 67.727,6 67.749,6C67.772,6 67.795,6 67.817,6C67.84,6 67.862,6 67.885,6C67.907,6 67.93,6 67.952,6C67.975,6 67.997,6 68.019,6C68.042,6 68.064,6 68.087,6C68.109,6 68.132,6 68.154,6C68.177,6 68.199,6 68.222,6C68.244,6 68.266,6 68.289,6C68.311,6 68.334,6 68.356,6C68.379,6 68.401,6 68.423,6C68.446,6 68.468,6 68.49,6C68.513,6 68.535,6 68.558,6C68.58,6 68.602,6 68.625,6C68.647,6 68.669,6 68.692,6C68.714,6 68.736,6 68.759,6C68.781,6 68.803,6 68.826,6C68.848,6 68.87,6 68.892,6C68.915,6 68.937,6 68.959,6C68.981,6 69.004,6 69.026,6C69.048,6 69.07,6 69.093,6C69.115,6 69.137,6 69.159,6C69.181,6 69.204,6 69.226,6C69.248,6 69.27,6 69.292,6C69.314,6 69.337,6 69.359,6C69.381,6 69.403,6 69.425,6C69.447,6 69.469,6 69.491,6C69.514,6 69.536,6 69.558,6C69.58,6 69.602,6 69.624,6C69.646,6 69.668,6 69.69,6C69.712,6 69.734,6 69.756,6C69.778,6 69.8,6 69.822,6C69.844,6 69.866,6 69.888,6C69.91,6 69.932,6 69.954,6C69.976,6 69.998,6 70.02,6C70.042,6 70.064,6 70.086,6C70.107,6 70.129,6 70.151,6C70.173,6 70.195,6 70.217,6C70.239,6 70.261,6 70.282,6C70.304,6 70.326,6 70.348,6C70.37,6 70.391,6 70.413,6C70.435,6 70.457,6 70.478,6C70.5,6 70.522,6 70.544,6C70.565,6 70.587,6 70.609,6C70.63,6 70.652,6 70.674,6C70.696,6 70.717,6 70.739,6C70.76,6 70.782,6 70.804,6C70.825,6 70.847,6 70.869,6C70.89,6 70.912,6 70.933,6C70.955,6 70.976,6 70.998,6C71.019,6 71.041,6 71.062,6C71.084,6 71.105,6 71.127,6C71.148,6 71.17,6 71.191,6C71.213,6 71.234,6 71.256,6C71.277,6 71.298,6 71.32,6C71.341,6 71.363,6 71.384,6C71.405,6 71.427,6 71.448,6C71.469,6 71.491,6 71.512,6C71.533,6 71.554,6 71.576,6C71.597,6 71.618,6 71.639,6C71.661,6 71.682,6 71.703,6C71.724,6 71.745,6 71.767,6C71.788,6 71.809,6 71.83,6C71.851,6 71.872,6 71.893,6C71.915,6 71.936,6 71.957,6C71.978,6 71.999,6 72.02,6C72.041,6 72.062,6 72.083,6C72.104,6 72.125,6 72.146,6C72.167,6 72.188,6 72.209,6C72.23,6 72.25,6 72.271,6C72.292,6 72.313,6 72.334,6C72.355,6 72.376,6 72.397,6C72.417,6 72.438,6 72.459,6C72.48,6 72.501,6 72.521,6C72.542,6 72.563,6 72.583,6C72.604,6 72.625,6 72.646,6C72.666,6 72.687,6 72.708,6C72.728,6 72.749,6 72.769,6C72.79,6 72.811,6 72.831,6C72.852,6 72.872,6 72.893,6C72.913,6 72.934,6 72.954,6C72.975,6 72.995,6 73.016,6C73.036,6 73.057,6 73.077,6C73.097,6 73.118,6 73.138,6C73.158,6 73.179,6 73.199,6C73.219,6 73.24,6 73.26,6C73.28,6 73.301,6 73.321,6C73.341,6 73.361,6 73.382,6C73.402,6 73.422,6 73.442,6C73.462,6 73.482,6 73.503,6C73.523,6 73.543,6 73.563,6C73.583,6 73.603,6 73.623,6C73.643,6 73.663,6 73.683,6C73.703,6 73.723,6 73.743,6C73.763,6 73.783,6 73.803,6C73.823,6 73.843,6 73.862,6C73.882,6 73.902,6 73.922,6C73.942,6 73.962,6 73.981,6C74.001,6 74.021,6 74.041,6C74.06,6 74.08,6 74.1,6C74.119,6 74.139,6 74.159,6C74.178,6 74.198,6 74.218,6C74.237,6 74.257,6 74.276,6C74.296,6 74.315,6 74.335,6C74.354,6 74.374,6 74.393,6C74.413,6 74.432,6 74.452,6C74.471,6 74.49,6 74.51,6C74.529,6 74.548,6 74.568,6C74.587,6 74.606,6 74.626,6C74.645,6 74.664,6 74.683,6C74.702,6 74.722,6 74.741,6C74.76,6 74.779,6 74.798,6C74.817,6 74.836,6 74.856,6C74.875,6 74.894,6 74.913,6C74.932,6 74.951,6 74.97,6C74.989,6 75.008,6 75.026,6C75.045,6 75.064,6 75.083,6C75.102,6 75.121,6 75.14,6C75.158,6 75.177,6 75.196,6C75.215,6 75.233,6 75.252,6C75.271,6 75.29,6 75.308,6C75.327,6 75.346,6 75.364,6C75.383,6 75.401,6 75.42,6C75.438,6 75.457,6 75.475,6C75.494,6 75.512,6 75.531,6C75.549,6 75.568,6 75.586,6C75.605,6 75.623,6 75.641,6C75.66,6 75.678,6 75.696,6C75.714,6 75.733,6 75.751,6C75.769,6 75.787,6 75.805,6C75.824,6 75.842,6 75.86,6C75.878,6 75.896,6 75.914,6C75.932,6 75.95,6 75.968,6C75.986,6 76.004,6 76.022,6C76.04,6 76.058,6 76.076,6C76.094,6 76.112,6 76.13,6C76.147,6 76.165,6 76.183,6C76.201,6 76.218,6 76.236,6C76.254,6 76.272,6 76.289,6C76.307,6 76.325,6 76.342,6C76.36,6 76.377,6 76.395,6C76.412,6 76.43,6 76.447,6C76.465,6 76.482,6 76.5,6C76.517,6 76.535,6 76.552,6C76.569,6 76.587,6 76.604,6C76.621,6 76.639,6 76.656,6C76.673,6 76.69,6 76.707,6C76.725,6 76.742,6 76.759,6C76.776,6 76.793,6 76.81,6C76.827,6 76.844,6 76.861,6C76.878,6 76.895,6 76.912,6C76.929,6 76.946,6 76.963,6C76.98,6 76.996,6 77.013,6C77.03,6 77.047,6 77.064,6C77.08,6 77.097,6 77.114,6C77.13,6 77.147,6 77.164,6C77.18,6 77.197,6 77.213,6C77.23,6 77.246,6 77.263,6C77.279,6 77.296,6 77.312,6C77.329,6 77.345,6 77.362,6C77.378,6 77.394,6 77.41,6C77.427,6 77.443,6 77.459,6C77.475,6 77.492,6 77.508,6C77.524,6 77.54,6 77.556,6C77.572,6 77.588,6 77.604,6C77.62,6 77.636,6 77.652,6C77.668,6 77.684,6 77.7,6C77.716,6 77.732,6 77.748,6C77.763,6 77.779,6 77.795,6C77.811,6 77.827,6 77.842,6C77.858,6 77.874,6 77.889,6C77.905,6 77.92,6 77.936,6C77.951,6 77.967,6 77.982,6C77.998,6 78.013,6 78.029,6C78.044,6 78.06,6 78.075,6C78.09,6 78.105,6 78.121,6C78.136,6 78.151,6 78.166,6C78.182,6 78.197,6 78.212,6C78.227,6 78.242,6 78.257,6C78.272,6 78.287,6 78.302,6C78.317,6 78.332,6 78.347,6C78.362,6 78.377,6 78.392,6C78.406,6 78.421,6 78.436,6C78.451,6 78.465,6 78.48,6C78.495,6 78.51,6 78.524,6C78.539,6 78.553,6 78.568,6C78.582,6 78.597,6 78.611,6C78.626,6 78.64,6 78.655,6C78.669,6 78.683,6 78.698,6C78.712,6 78.726,6 78.741,6C78.755,6 78.769,6 78.783,6C78.797,6 78.811,6 78.825,6C78.84,6 78.854,6 78.868,6C78.882,6 78.896,6 78.91,6C78.923,6 78.937,6 78.951,6C78.965,6 78.979,6 78.993,6C79.006,6 79.02,6 79.034,6C79.048,6 79.061,6 79.075,6C79.088,6 79.102,6 79.116,6C79.129,6 79.143,6 79.156,6C79.17,6 79.183,6 79.196,6C79.21,6 79.223,6 79.236,6C79.25,6 79.263,6 79.276,6C79.289,6 79.303,6 79.316,6C79.329,6 79.342,6 79.355,6C79.368,6 79.381,6 79.394,6C79.407,6 79.42,6 79.433,6C79.446,6 79.459,6 79.472,6C79.484,6 79.497,6 79.51,6C79.523,6 79.535,6 79.548,6C79.561,6 79.573,6 79.586,6C79.598,6 79.611,6 79.623,6C79.636,6 79.648,6 79.661,6C79.673,6 79.686,6 79.698,6C79.71,6 79.723,6 79.735,6C79.747,6 79.759,6 79.771,6C79.784,6 79.796,6 79.808,6C79.82,6 79.832,6 79.844,6C79.856,6 79.868,6 79.88,6C79.892,6 79.903,6 79.915,6C79.927,6 79.939,6 79.951,6C79.962,6 79.974,6 79.986,6C79.997,6 80.009,6 80.02,6C80.032,6 80.044,6 80.055,6C80.066,6 80.078,6 80.089,6C80.101,6 80.112,6 80.123,6C80.135,6 80.146,6 80.157,6C80.168,6 80.179,6 80.191,6C80.202,6 80.213,6 80.224,6C80.235,6 80.246,6 80.257,6C80.268,6 80.279,6 80.289,6C80.3,6 80.311,6 80.322,6C80.333,6 80.343,6 80.354,6C80.365,6 80.375,6 80.386,6C80.396,6 80.407,6 80.417,6C80.428,6 80.438,6 80.449,6C80.459,6 80.47,6 80.48,6C80.49,6 80.5,6 80.511,6C80.521,6 80.531,6 80.541,6C80.551,6 80.561,6 80.571,6C80.581,6 80.591,6 80.601,6C80.611,6 80.621,6 80.631,6C80.641,6 80.651,6 80.661,6C80.67,6 80.68,6 80.69,6C80.699,6 80.709,6 80.718,6C80.728,6 80.738,6 80.747,6C80.757,6 80.766,6 80.775,6C80.785,6 80.794,6 80.803,6C80.813,6 80.822,6 80.831,6C80.84,6 80.849,6 80.858,6C80.868,6 80.877,6 80.886,6C80.895,6 80.904,6 80.912,6C80.921,6 80.93,6 80.939,6C80.948,6 80.957,6 80.965,6C80.974,6 80.983,6 80.991,6C81,6 81.008,6 81.017,6C81.025,6 81.034,6 81.042,6C81.051,6 81.059,6 81.067,6C81.076,6 81.084,6 81.092,6C81.1,6 81.109,6 81.117,6C81.125,6 81.133,6 81.141,6C81.149,6 81.157,6 81.165,6C81.173,6 81.181,6 81.188,6C81.196,6 81.204,6 81.212,6C81.219,6 81.227,6 81.235,6C81.242,6 81.25,6 81.257,6C81.265,6 81.272,6 81.28,6C81.287,6 81.295,6 81.302,6C81.309,6 81.317,6 81.324,6C81.331,6 81.338,6 81.345,6C81.352,6 81.359,6 81.366,6C81.373,6 81.38,6 81.387,6C81.394,6 81.401,6 81.408,6C81.415,6 81.421,6 81.428,6L81.428,4ZM52.857,4C51.327,4 49.531,4.229 47.802,5.382C46.074,6.534 44.537,8.524 43.345,11.801L45.225,12.485C46.319,9.477 47.639,7.895 48.911,7.046C50.182,6.199 51.529,6 52.857,6L52.857,4Z" fill="#5E80C9"/>
<path d="M5.014,90.715C4.62,91.102 4.614,91.735 5.001,92.129C5.388,92.523 6.021,92.529 6.415,92.143L5.014,90.715ZM82.209,92.19C82.629,92.548 83.26,92.498 83.619,92.078C83.977,91.657 83.927,91.026 83.506,90.668L82.209,92.19ZM6.415,92.143C12.63,86.045 23.022,78.754 36.107,76.63C49.142,74.515 64.983,77.505 82.209,92.19L83.506,90.668C65.875,75.638 49.454,72.438 35.787,74.656C22.169,76.866 11.419,84.431 5.014,90.715L6.415,92.143Z" fill="#5D7DC4"/>
<path d="M12.804,93.645C12.45,94.07 12.508,94.7 12.932,95.054C13.356,95.407 13.987,95.35 14.34,94.926L12.804,93.645ZM73.494,94.896C73.831,95.333 74.459,95.415 74.897,95.078C75.334,94.741 75.416,94.113 75.079,93.675L73.494,94.896ZM14.34,94.926C19.687,88.511 27.977,80.024 38.13,77.36C43.168,76.038 48.684,76.146 54.58,78.69C60.493,81.242 66.849,86.272 73.494,94.896L75.079,93.675C68.295,84.871 61.687,79.579 55.372,76.854C49.041,74.122 43.065,73.998 37.622,75.426C26.811,78.262 18.172,87.204 12.804,93.645L14.34,94.926Z" fill="#5D7DC4"/>
<path d="M27.632,96.801C27.444,97.32 27.711,97.894 28.231,98.083C28.75,98.271 29.323,98.004 29.512,97.485L27.632,96.801ZM59.792,97.527C60.004,98.037 60.589,98.278 61.099,98.066C61.609,97.854 61.85,97.269 61.638,96.759L59.792,97.527ZM29.512,97.485C31.645,91.618 33.842,86.696 36.132,83.114C38.447,79.49 40.729,77.442 42.95,76.951C45.063,76.483 47.508,77.36 50.383,80.619C53.259,83.878 56.39,89.341 59.792,97.527L61.638,96.759C58.208,88.506 54.977,82.803 51.883,79.296C48.79,75.791 45.661,74.303 42.518,74.998C39.483,75.67 36.826,78.313 34.446,82.037C32.041,85.801 29.785,90.882 27.632,96.801L29.512,97.485Z" fill="#5D7DC4"/>
<line x1="43.285" y1="75.714" x2="43.285" y2="99.286" stroke="#5D7DC4" stroke-width="1" stroke-miterlimit="3.999327" stroke-linecap="round"/>
<path d="M9.725,87.673C9.229,87.43 8.63,87.635 8.387,88.131C8.144,88.627 8.349,89.226 8.845,89.469L9.725,87.673ZM79.732,89.466C80.226,89.219 80.427,88.618 80.18,88.124C79.933,87.63 79.332,87.43 78.838,87.677L79.732,89.466ZM8.845,89.469C21.141,95.497 50.776,103.944 79.732,89.466L78.838,87.677C50.652,101.77 21.715,93.551 9.725,87.673L8.845,89.469Z" fill="#5D7DC4"/>
<path d="M23.123,79.036C22.591,78.889 22.04,79.202 21.893,79.734C21.747,80.266 22.059,80.817 22.591,80.964L23.123,79.036ZM65.243,80.97C65.779,80.836 66.104,80.293 65.97,79.757C65.836,79.222 65.294,78.896 64.758,79.03L65.243,80.97ZM22.591,80.964C29.616,82.902 46.749,85.594 65.243,80.97L64.758,79.03C46.681,83.549 29.909,80.908 23.123,79.036L22.591,80.964Z" fill="#5D7DC4"/>
<path d="M17.045,19.479L11.027,11.979L16.648,9.872L17.045,19.479Z" fill="#5F83CF"/>
<path d="M15.488,21.407L5.877,21.096L7.934,15.457L15.488,21.407Z" fill="#5F83CF"/>
<path d="M20.389,19.479L26.406,11.979L20.785,9.872L20.389,19.479Z" fill="#5F83CF"/>
<path d="M21.945,21.407L31.556,21.096L29.499,15.457L21.945,21.407Z" fill="#5F83CF"/>
<path d="M17.045,25.664L11.027,33.164L16.648,35.271L17.045,25.664Z" fill="#5F83CF"/>
<path d="M15.488,23.735L5.877,24.047L7.934,29.686L15.488,23.735Z" fill="#5F83CF"/>
<path d="M20.389,25.664L26.406,33.164L20.785,35.271L20.389,25.664Z" fill="#5F83CF"/>
<path d="M21.945,23.735L31.556,24.047L29.499,29.686L21.945,23.735Z" fill="#5F83CF"/>
<path d="M18.571,27.143C20.938,27.143 22.857,25.224 22.857,22.857C22.857,20.49 20.938,18.571 18.571,18.571C16.204,18.571 14.285,20.49 14.285,22.857C14.285,25.224 16.204,27.143 18.571,27.143Z" fill="#5F83CF"/>
</svg>
