<svg width="50" height="50" viewBox="0 0 50 50" fill="none" xmlns="http://www.w3.org/2000/svg" xmlns:xlink="http://www.w3.org/1999/xlink">
<path d="M4.445,2.352L45.946,2.352L45.946,0.352L4.445,0.352L4.445,2.352ZM45.946,2.352C46.928,2.352 47.725,3.148 47.725,4.131L49.725,4.131C49.725,2.043 48.033,0.352 45.946,0.352L45.946,2.352ZM47.725,4.131L47.725,45.632L49.725,45.632L49.725,4.131L47.725,4.131ZM47.725,45.632C47.725,46.614 46.928,47.411 45.946,47.411L45.946,49.411C48.033,49.411 49.725,47.719 49.725,45.632L47.725,45.632ZM45.946,47.411L4.445,47.411L4.445,49.411L45.946,49.411L45.946,47.411ZM4.445,47.411C3.462,47.411 2.666,46.614 2.666,45.632L0.666,45.632C0.666,47.719 2.357,49.411 4.445,49.411L4.445,47.411ZM2.666,45.632L2.666,4.131L0.666,4.131L0.666,45.632L2.666,45.632ZM2.666,4.131C2.666,3.148 3.462,2.352 4.445,2.352L4.445,0.352C2.357,0.352 0.666,2.043 0.666,4.131L2.666,4.131Z" fill="#E4B474"/>
<path d="M1.858,33.809C1.487,34.219 1.519,34.851 1.928,35.222C2.337,35.592 2.97,35.561 3.34,35.152L1.858,33.809ZM10.92,25.674L11.163,26.645L11.163,26.645L10.92,25.674ZM12.812,26.742L12.127,27.471L12.127,27.471L12.812,26.742ZM17.355,33.109C17.723,33.521 18.355,33.556 18.767,33.188C19.179,32.82 19.214,32.188 18.846,31.776L17.355,33.109ZM3.34,35.152C5.89,32.335 8.432,29.526 9.798,28.052L8.33,26.693C6.955,28.178 4.403,30.998 1.858,33.809L3.34,35.152ZM9.798,28.052C10.49,27.304 10.849,26.934 11.065,26.739C11.169,26.646 11.206,26.625 11.204,26.626C11.183,26.638 11.156,26.646 11.163,26.645L10.678,24.704C10.325,24.792 10.063,24.951 9.728,25.252C9.432,25.519 9.009,25.961 8.33,26.693L9.798,28.052ZM11.163,26.645C11.177,26.641 11.14,26.651 11.089,26.647C11.043,26.643 11.04,26.633 11.096,26.659C11.235,26.724 11.542,26.92 12.127,27.471L13.497,26.013C12.869,25.423 12.376,25.05 11.944,24.848C11.716,24.741 11.485,24.672 11.246,24.653C11.003,24.634 10.809,24.672 10.677,24.704L11.163,26.645ZM12.127,27.471C13.3,28.573 15.3,30.81 17.355,33.109L18.846,31.776C16.825,29.515 14.75,27.191 13.497,26.013L12.127,27.471Z" fill="#E4B474"/>
<path d="M10.872,42.89C10.511,43.308 10.557,43.94 10.975,44.301C11.393,44.662 12.024,44.615 12.385,44.197L10.872,42.89ZM30.092,22.305L30.839,22.971L30.839,22.971L30.092,22.305ZM37.728,20.348L36.998,21.032L36.999,21.032L37.728,20.348ZM45.845,29.524L45.089,30.178L45.089,30.178L45.845,29.524ZM48.818,31.801C48.818,31.249 48.37,30.801 47.818,30.801C47.265,30.801 46.818,31.249 46.818,31.801L48.818,31.801ZM12.385,44.197C19.703,35.724 27.011,27.262 30.839,22.971L29.346,21.639C25.505,25.946 18.183,34.424 10.872,42.89L12.385,44.197ZM30.839,22.971C32.76,20.816 33.775,19.745 34.351,19.214C34.644,18.944 34.769,18.865 34.801,18.848C34.806,18.846 34.781,18.859 34.734,18.869C34.689,18.879 34.658,18.877 34.68,18.877L34.68,16.877C34.464,16.877 34.195,16.906 33.864,17.081C33.598,17.223 33.32,17.444 32.995,17.744C32.336,18.352 31.258,19.495 29.346,21.64L30.839,22.971ZM34.68,18.877C34.703,18.877 34.701,18.878 34.69,18.877C34.678,18.875 34.67,18.872 34.672,18.873C34.683,18.877 34.759,18.908 34.933,19.037C35.293,19.304 35.903,19.865 36.998,21.032L38.457,19.664C37.355,18.489 36.641,17.814 36.126,17.432C35.863,17.236 35.615,17.088 35.36,16.995C35.083,16.894 34.854,16.877 34.68,16.877L34.68,18.877ZM36.999,21.032C39.179,23.356 43.109,27.893 45.089,30.178L46.6,28.869C44.634,26.598 40.672,22.024 38.457,19.664L36.999,21.032ZM45.089,30.178C46.075,31.317 46.569,31.887 46.815,32.171C46.939,32.314 47,32.385 47.031,32.421C47.046,32.438 47.054,32.447 47.058,32.452C47.06,32.454 47.061,32.455 47.061,32.456C47.062,32.456 47.062,32.456 47.062,32.456C47.062,32.456 47.062,32.456 47.062,32.456C47.062,32.456 47.062,32.456 47.062,32.456C47.062,32.456 47.062,32.456 47.062,32.456C47.062,32.456 47.062,32.456 47.062,32.456C48.167,32.738 48.818,31.801 47.818,31.801C46.818,31.801 47.468,30.865 48.573,31.147C48.573,31.147 48.573,31.147 48.573,31.147C48.573,31.147 48.573,31.147 48.573,31.147C48.573,31.147 48.573,31.147 48.573,31.147C48.573,31.147 48.573,31.147 48.573,31.147C48.573,31.147 48.573,31.146 48.573,31.146C48.573,31.146 48.572,31.144 48.57,31.142C48.566,31.138 48.558,31.129 48.543,31.111C48.512,31.076 48.45,31.004 48.327,30.862C48.08,30.577 47.587,30.008 46.6,28.869L45.089,30.178Z" fill="#E4B474"/>
<path d="M20.638,12.648C20.638,14.931 18.827,16.749 16.633,16.749L16.633,18.749C19.967,18.749 22.638,15.999 22.638,12.648L20.638,12.648ZM16.633,16.749C14.439,16.749 12.628,14.931 12.628,12.648L10.628,12.648C10.628,15.999 13.299,18.749 16.633,18.749L16.633,16.749ZM12.628,12.648C12.628,10.365 14.439,8.547 16.633,8.547L16.633,6.547C13.299,6.547 10.628,9.296 10.628,12.648L12.628,12.648ZM16.633,8.547C18.827,8.547 20.638,10.365 20.638,12.648L22.638,12.648C22.638,9.296 19.967,6.547 16.633,6.547L16.633,8.547Z" fill="#E4B474"/>
</svg>
