<svg width="48" height="48" viewBox="0 0 48 48" fill="none" xmlns="http://www.w3.org/2000/svg" xmlns:xlink="http://www.w3.org/1999/xlink">
<path d="M23.266,46.51C36.272,46.51 46.815,35.966 46.815,22.96C46.815,9.955 36.272,-0.589 23.266,-0.589C10.26,-0.589 -0.283,9.955 -0.283,22.96C-0.283,35.966 10.26,46.51 23.266,46.51Z" fill="#544C41" stroke="#B4AEA7" stroke-width="1.5" stroke-miterlimit="22.925601"/>
<path d="M13.752,7.789C14.286,7.125 14.625,6.708 14.925,6.304C15.225,5.9 15.485,5.509 15.929,5.196C16.372,4.883 16.997,4.648 17.649,4.648C18.301,4.648 18.979,4.883 19.5,5.313C20.021,5.743 20.386,6.369 20.569,6.682C20.751,6.995 20.751,6.995 20.96,6.812C21.168,6.63 21.585,6.265 21.676,5.652C21.768,5.039 21.533,4.179 21.65,3.762C21.768,3.345 22.237,3.371 22.706,3.749C23.175,4.127 23.644,4.857 24.231,5.326C24.817,5.795 25.521,6.004 25.899,6.304C26.277,6.604 26.329,6.994 25.847,7.307C25.365,7.62 24.348,7.855 23.553,8.324C22.758,8.793 22.185,9.497 21.872,9.862C21.559,10.227 21.507,10.253 21.885,10.266C22.263,10.279 23.071,10.279 23.683,10.67C24.296,11.061 24.713,11.843 25.287,12.416C25.86,12.99 26.59,13.355 26.955,13.537C27.32,13.719 27.32,13.719 27.541,13.303C27.763,12.885 28.206,12.051 28.363,11.243C28.519,10.435 28.388,9.653 28.401,9.106C28.415,8.558 28.571,8.246 29.105,8.467C29.64,8.689 30.552,9.445 31.399,9.823C32.246,10.201 33.028,10.201 33.901,10.657C34.775,11.113 35.739,12.025 36.195,12.651C36.652,13.276 36.599,13.615 36.573,13.785C36.547,13.954 36.547,13.954 36.13,13.993C35.713,14.032 34.879,14.111 34.201,14.554C33.524,14.997 33.002,15.805 32.403,16.522C31.803,17.239 31.125,17.864 30.474,18.32C29.822,18.776 29.197,19.063 28.845,19.767C28.493,20.471 28.415,21.592 28.323,22.556C28.232,23.521 28.128,24.329 27.958,24.759C27.789,25.189 27.554,25.241 27.111,24.994C26.668,24.746 26.016,24.198 25.326,23.742C24.635,23.286 23.905,22.921 23.267,22.96C22.628,22.999 22.08,23.442 21.715,24.055C21.35,24.668 21.168,25.45 21.116,26.167C21.064,26.883 21.142,27.535 21.376,27.939C21.611,28.343 22.002,28.5 22.341,28.552C22.68,28.604 22.967,28.552 23.201,28.291C23.436,28.03 23.618,27.561 23.84,27.483C24.061,27.405 24.322,27.717 24.452,28.135C24.583,28.552 24.583,29.073 24.765,29.399C24.948,29.725 25.313,29.855 25.678,29.816C26.042,29.777 26.407,29.568 26.577,29.842C26.746,30.116 26.72,30.872 26.577,31.641C26.434,32.41 26.173,33.191 25.925,33.569C25.678,33.947 25.443,33.921 25.221,33.583C25,33.244 24.791,32.592 24.4,31.966C24.009,31.341 23.436,30.741 22.849,30.311C22.263,29.881 21.663,29.62 20.972,29.568C20.282,29.516 19.5,29.672 18.952,29.607C18.405,29.542 18.092,29.255 17.897,28.695C17.701,28.135 17.623,27.3 17.063,26.388C16.502,25.476 15.459,24.485 14.638,23.56C13.817,22.634 13.218,21.774 12.527,21.331C11.836,20.888 11.054,20.862 10.846,20.393C10.637,19.923 11.002,19.011 11.315,17.955C11.628,16.9 11.888,15.701 11.706,15.036C11.523,14.371 10.898,14.241 10.39,13.993C9.881,13.746 9.49,13.381 9.464,12.86C9.438,12.338 9.777,11.66 10.22,11.204C10.663,10.748 11.21,10.514 11.849,9.94C12.488,9.367 13.218,8.454 13.752,7.789Z" clip-rule="evenodd" fill-rule="evenodd" fill="#B4AEA7"/>
<path d="M28.465,33.4C28.387,33.765 28.674,34.26 28.635,34.782C28.596,35.303 28.231,35.85 27.762,36.137C27.292,36.424 26.719,36.45 26.341,36.775C25.963,37.101 25.781,37.727 25.676,38.496C25.572,39.265 25.546,40.177 25.833,40.764C26.119,41.35 26.719,41.611 27.475,41.481C28.231,41.35 29.143,40.829 29.677,40.347C30.212,39.865 30.368,39.421 30.733,39.07C31.098,38.718 31.671,38.457 32.245,38.04C32.818,37.623 33.392,37.049 34.174,36.828C34.956,36.606 35.946,36.737 36.637,36.802C37.328,36.867 37.719,36.867 37.745,36.359C37.771,35.85 37.432,34.834 36.807,34.117C36.181,33.4 35.269,32.983 34.461,32.853C33.652,32.722 32.949,32.878 32.362,32.735C31.776,32.592 31.306,32.149 30.837,32.071C30.368,31.992 29.899,32.279 29.443,32.54C28.987,32.801 28.543,33.035 28.465,33.4Z" clip-rule="evenodd" fill-rule="evenodd" fill="#B4AEA7"/>
<path d="M40.902,18.654C40.754,19.225 40.833,20.171 41.04,21.275C41.247,22.379 41.582,23.641 42.056,24.706C42.529,25.77 43.14,26.638 43.446,27.278C43.751,27.919 43.751,28.333 43.879,28.294C44.007,28.254 44.264,27.761 44.491,26.953C44.717,26.145 44.914,25.021 44.806,24.262C44.697,23.503 44.283,23.109 44.205,22.34C44.126,21.571 44.382,20.428 44.412,19.393C44.441,18.358 44.244,17.431 43.86,16.741C43.475,16.051 42.903,15.598 42.499,15.469C42.095,15.341 41.859,15.538 41.77,15.962C41.681,16.386 41.74,17.036 41.583,17.46C41.425,17.884 41.05,18.082 40.902,18.654Z" clip-rule="evenodd" fill-rule="evenodd" fill="#B4AEA7"/>
<path d="M40.433,11.269C40.844,11.594 41.29,11.954 41.573,12.392C41.856,12.829 41.976,13.343 42.01,13.677C42.044,14.012 41.993,14.166 41.787,14.2C41.582,14.235 41.222,14.149 40.939,13.823C40.656,13.497 40.45,12.932 40.184,12.314C39.919,11.697 39.593,11.028 39.619,10.84C39.644,10.651 40.022,10.943 40.433,11.269Z" clip-rule="evenodd" fill-rule="evenodd" fill="#B4AEA7"/>
</svg>
