<svg width="90" height="100" viewBox="0 0 90 100" fill="none" xmlns="http://www.w3.org/2000/svg" xmlns:xlink="http://www.w3.org/1999/xlink">
<path d="M47.857,23.572C49.83,23.572 51.429,25.171 51.429,27.143L51.429,70C51.429,71.973 49.83,73.572 47.857,73.572C45.885,73.572 44.286,71.973 44.286,70L44.286,27.143C44.286,25.171 45.885,23.572 47.857,23.572Z" clip-rule="evenodd" fill-rule="evenodd" fill="#FFFFFF"/>
<path d="M78.571,43.572C80.544,43.572 82.143,45.171 82.143,47.143L82.143,69.286C82.143,71.258 80.544,72.857 78.571,72.857C76.599,72.857 75,71.258 75,69.286L75,47.143C75,45.171 76.599,43.572 78.571,43.572Z" clip-rule="evenodd" fill-rule="evenodd" fill="#FFFFFF"/>
<path d="M62.857,43.572C64.83,43.572 66.429,45.171 66.429,47.143L66.429,69.286C66.429,71.258 64.83,72.857 62.857,72.857C60.885,72.857 59.286,71.258 59.286,69.286L59.286,47.143C59.286,45.171 60.885,43.572 62.857,43.572Z" clip-rule="evenodd" fill-rule="evenodd" fill="#FFFFFF"/>
<path d="M32.857,43.572C34.83,43.572 36.429,45.171 36.429,47.143L36.429,69.286C36.429,71.258 34.83,72.857 32.857,72.857C30.885,72.857 29.286,71.258 29.286,69.286L29.286,47.143C29.286,45.171 30.885,43.572 32.857,43.572Z" clip-rule="evenodd" fill-rule="evenodd" fill="#FFFFFF"/>
<path d="M47.473,24.74C48.011,25.316 47.98,26.22 47.403,26.759L4.546,66.759C3.97,67.297 3.066,67.266 2.527,66.689C1.989,66.112 2.02,65.208 2.597,64.67L45.714,24.286C46.291,23.747 46.935,24.163 47.473,24.74Z" clip-rule="evenodd" fill-rule="evenodd" fill="#FFFFFF"/>
<path d="M78.204,44.757C78.732,45.343 78.686,46.246 78.1,46.775L50,72.857C49.414,73.386 47.325,73.686 46.797,73.1C46.268,72.514 46.314,71.611 46.9,71.082L76.429,44.286C77.015,43.757 77.675,44.172 78.204,44.757Z" clip-rule="evenodd" fill-rule="evenodd" fill="#FFFFFF"/>
<path d="M62.491,44.759C63.018,45.345 62.971,46.248 62.385,46.776L35,72.143C34.414,72.671 32.323,72.971 31.795,72.384C31.268,71.798 31.315,70.895 31.902,70.367L60.715,44.286C61.301,43.758 61.963,44.172 62.491,44.759Z" clip-rule="evenodd" fill-rule="evenodd" fill="#FFFFFF"/>
<path d="M32.439,44.704C32.997,45.262 32.997,46.167 32.439,46.724L28.153,51.01C27.595,51.568 26.691,51.568 26.133,51.01C25.575,50.452 25.575,49.548 26.133,48.99L30,45C30.558,44.442 31.881,44.146 32.439,44.704Z" clip-rule="evenodd" fill-rule="evenodd" fill="#FFFFFF"/>
<path d="M86.83,64.822C87.323,65.438 87.223,66.337 86.607,66.83L80.714,72.143C80.098,72.636 77.949,72.937 77.456,72.321C76.963,71.705 77.063,70.806 77.679,70.313L84.822,64.599C85.438,64.106 86.337,64.206 86.83,64.822Z" clip-rule="evenodd" fill-rule="evenodd" fill="#FFFFFF"/>
<path d="M71.116,64.822C71.609,65.438 71.509,66.337 70.893,66.83L65,72.143C64.384,72.636 62.235,72.937 61.742,72.321C61.249,71.705 61.349,70.806 61.965,70.313L69.108,64.599C69.724,64.106 70.623,64.206 71.116,64.822Z" clip-rule="evenodd" fill-rule="evenodd" fill="#FFFFFF"/>
<path d="M62.932,22.958C62.593,22.522 61.965,22.443 61.529,22.782C61.093,23.121 61.015,23.75 61.354,24.185L62.932,22.958ZM61.354,35.815C61.015,36.251 61.093,36.879 61.529,37.218C61.965,37.557 62.593,37.479 62.932,37.043L61.354,35.815ZM61.354,24.185C62.88,26.148 64.953,31.187 61.354,35.815L62.932,37.043C67.333,31.385 64.739,25.281 62.932,22.958L61.354,24.185Z" fill="#FFFFFF"/>
<path d="M69.361,22.958C69.022,22.522 68.393,22.443 67.957,22.782C67.521,23.121 67.443,23.75 67.782,24.185L69.361,22.958ZM67.782,35.815C67.443,36.251 67.521,36.879 67.957,37.218C68.393,37.557 69.022,37.479 69.361,37.043L67.782,35.815ZM67.782,24.185C69.309,26.148 71.381,31.187 67.782,35.815L69.361,37.043C73.761,31.385 71.167,25.281 69.361,22.958L67.782,24.185Z" fill="#FFFFFF"/>
<path d="M75.075,22.958C74.736,22.522 74.108,22.443 73.672,22.782C73.236,23.121 73.157,23.75 73.496,24.185L75.075,22.958ZM73.496,35.815C73.157,36.251 73.236,36.879 73.672,37.218C74.108,37.557 74.736,37.479 75.075,37.043L73.496,35.815ZM73.496,24.185C75.023,26.148 77.096,31.187 73.496,35.815L75.075,37.043C79.476,31.385 76.882,25.281 75.075,22.958L73.496,24.185Z" fill="#FFFFFF"/>
<path d="M1.663,0.398C1.488,-0.126 0.922,-0.409 0.398,-0.234C-0.126,-0.06 -0.409,0.507 -0.234,1.031L1.663,0.398ZM43.346,12.485C43.535,13.004 44.109,13.271 44.628,13.083C45.147,12.894 45.414,12.32 45.226,11.801L43.346,12.485ZM-0.234,1.031C0.05,1.884 0.705,3.101 1.776,4.118C2.864,5.151 4.41,6 6.429,6L6.429,4C5.019,4 3.945,3.42 3.153,2.668C2.343,1.899 1.855,0.973 1.663,0.398L-0.234,1.031ZM6.429,6C6.435,6 6.442,6 6.449,6C6.456,6 6.463,6 6.469,6C6.476,6 6.483,6 6.49,6C6.497,6 6.504,6 6.511,6C6.519,6 6.526,6 6.533,6C6.54,6 6.547,6 6.555,6C6.562,6 6.569,6 6.577,6C6.584,6 6.592,6 6.599,6C6.607,6 6.614,6 6.622,6C6.63,6 6.637,6 6.645,6C6.653,6 6.66,6 6.668,6C6.676,6 6.684,6 6.692,6C6.7,6 6.708,6 6.716,6C6.724,6 6.732,6 6.74,6C6.748,6 6.756,6 6.764,6C6.773,6 6.781,6 6.789,6C6.798,6 6.806,6 6.814,6C6.823,6 6.831,6 6.84,6C6.848,6 6.857,6 6.865,6C6.874,6 6.883,6 6.891,6C6.9,6 6.909,6 6.918,6C6.926,6 6.935,6 6.944,6C6.953,6 6.962,6 6.971,6C6.98,6 6.989,6 6.998,6C7.007,6 7.016,6 7.026,6C7.035,6 7.044,6 7.053,6C7.063,6 7.072,6 7.081,6C7.091,6 7.1,6 7.11,6C7.119,6 7.129,6 7.138,6C7.148,6 7.157,6 7.167,6C7.177,6 7.186,6 7.196,6C7.206,6 7.216,6 7.226,6C7.235,6 7.245,6 7.255,6C7.265,6 7.275,6 7.285,6C7.295,6 7.305,6 7.315,6C7.326,6 7.336,6 7.346,6C7.356,6 7.366,6 7.377,6C7.387,6 7.397,6 7.408,6C7.418,6 7.429,6 7.439,6C7.45,6 7.46,6 7.471,6C7.481,6 7.492,6 7.503,6C7.513,6 7.524,6 7.535,6C7.546,6 7.556,6 7.567,6C7.578,6 7.589,6 7.6,6C7.611,6 7.622,6 7.633,6C7.644,6 7.655,6 7.666,6C7.677,6 7.688,6 7.7,6C7.711,6 7.722,6 7.733,6C7.745,6 7.756,6 7.767,6C7.779,6 7.79,6 7.802,6C7.813,6 7.825,6 7.836,6C7.848,6 7.859,6 7.871,6C7.883,6 7.894,6 7.906,6C7.918,6 7.93,6 7.941,6C7.953,6 7.965,6 7.977,6C7.989,6 8.001,6 8.013,6C8.025,6 8.037,6 8.049,6C8.061,6 8.073,6 8.085,6C8.097,6 8.11,6 8.122,6C8.134,6 8.146,6 8.159,6C8.171,6 8.183,6 8.196,6C8.208,6 8.221,6 8.233,6C8.246,6 8.258,6 8.271,6C8.283,6 8.296,6 8.309,6C8.321,6 8.334,6 8.347,6C8.359,6 8.372,6 8.385,6C8.398,6 8.411,6 8.424,6C8.437,6 8.45,6 8.463,6C8.475,6 8.489,6 8.502,6C8.515,6 8.528,6 8.541,6C8.554,6 8.567,6 8.58,6C8.594,6 8.607,6 8.62,6C8.634,6 8.647,6 8.66,6C8.674,6 8.687,6 8.701,6C8.714,6 8.728,6 8.741,6C8.755,6 8.768,6 8.782,6C8.795,6 8.809,6 8.823,6C8.837,6 8.85,6 8.864,6C8.878,6 8.892,6 8.905,6C8.919,6 8.933,6 8.947,6C8.961,6 8.975,6 8.989,6C9.003,6 9.017,6 9.031,6C9.045,6 9.059,6 9.074,6C9.088,6 9.102,6 9.116,6C9.13,6 9.145,6 9.159,6C9.173,6 9.188,6 9.202,6C9.216,6 9.231,6 9.245,6C9.26,6 9.274,6 9.289,6C9.303,6 9.318,6 9.333,6C9.347,6 9.362,6 9.377,6C9.391,6 9.406,6 9.421,6C9.435,6 9.45,6 9.465,6C9.48,6 9.495,6 9.51,6C9.525,6 9.54,6 9.555,6C9.569,6 9.584,6 9.6,6C9.615,6 9.63,6 9.645,6C9.66,6 9.675,6 9.69,6C9.705,6 9.721,6 9.736,6C9.751,6 9.767,6 9.782,6C9.797,6 9.813,6 9.828,6C9.843,6 9.859,6 9.874,6C9.89,6 9.905,6 9.921,6C9.936,6 9.952,6 9.968,6C9.983,6 9.999,6 10.015,6C10.03,6 10.046,6 10.062,6C10.077,6 10.093,6 10.109,6C10.125,6 10.141,6 10.157,6C10.172,6 10.188,6 10.204,6C10.22,6 10.236,6 10.252,6C10.268,6 10.284,6 10.3,6C10.317,6 10.333,6 10.349,6C10.365,6 10.381,6 10.397,6C10.414,6 10.43,6 10.446,6C10.463,6 10.479,6 10.495,6C10.512,6 10.528,6 10.544,6C10.561,6 10.577,6 10.594,6C10.61,6 10.627,6 10.643,6C10.66,6 10.676,6 10.693,6C10.71,6 10.726,6 10.743,6C10.76,6 10.776,6 10.793,6C10.81,6 10.827,6 10.843,6C10.86,6 10.877,6 10.894,6C10.911,6 10.928,6 10.945,6C10.962,6 10.979,6 10.996,6C11.013,6 11.03,6 11.047,6C11.064,6 11.081,6 11.098,6C11.115,6 11.132,6 11.149,6C11.166,6 11.184,6 11.201,6C11.218,6 11.235,6 11.253,6C11.27,6 11.287,6 11.305,6C11.322,6 11.34,6 11.357,6C11.374,6 11.392,6 11.409,6C11.427,6 11.444,6 11.462,6C11.479,6 11.497,6 11.515,6C11.532,6 11.55,6 11.567,6C11.585,6 11.603,6 11.62,6C11.638,6 11.656,6 11.674,6C11.692,6 11.709,6 11.727,6C11.745,6 11.763,6 11.781,6C11.799,6 11.817,6 11.834,6C11.852,6 11.87,6 11.888,6C11.906,6 11.924,6 11.942,6C11.961,6 11.979,6 11.997,6C12.015,6 12.033,6 12.051,6C12.069,6 12.088,6 12.106,6C12.124,6 12.142,6 12.161,6C12.179,6 12.197,6 12.215,6C12.234,6 12.252,6 12.271,6C12.289,6 12.307,6 12.326,6C12.344,6 12.363,6 12.381,6C12.4,6 12.418,6 12.437,6C12.455,6 12.474,6 12.493,6C12.511,6 12.53,6 12.548,6C12.567,6 12.586,6 12.604,6C12.623,6 12.642,6 12.661,6C12.679,6 12.698,6 12.717,6C12.736,6 12.755,6 12.774,6C12.792,6 12.811,6 12.83,6C12.849,6 12.868,6 12.887,6C12.906,6 12.925,6 12.944,6C12.963,6 12.982,6 13.001,6C13.02,6 13.039,6 13.058,6C13.078,6 13.097,6 13.116,6C13.135,6 13.154,6 13.173,6C13.193,6 13.212,6 13.231,6C13.25,6 13.27,6 13.289,6C13.308,6 13.328,6 13.347,6C13.366,6 13.386,6 13.405,6C13.425,6 13.444,6 13.463,6C13.483,6 13.502,6 13.522,6C13.541,6 13.561,6 13.58,6C13.6,6 13.62,6 13.639,6C13.659,6 13.678,6 13.698,6C13.718,6 13.737,6 13.757,6C13.777,6 13.796,6 13.816,6C13.836,6 13.856,6 13.875,6C13.895,6 13.915,6 13.935,6C13.955,6 13.974,6 13.994,6C14.014,6 14.034,6 14.054,6C14.074,6 14.094,6 14.114,6C14.134,6 14.154,6 14.174,6C14.194,6 14.214,6 14.234,6C14.254,6 14.274,6 14.294,6C14.314,6 14.334,6 14.354,6C14.374,6 14.394,6 14.415,6C14.435,6 14.455,6 14.475,6C14.495,6 14.516,6 14.536,6C14.556,6 14.576,6 14.597,6C14.617,6 14.637,6 14.658,6C14.678,6 14.698,6 14.719,6C14.739,6 14.759,6 14.78,6C14.8,6 14.821,6 14.841,6C14.861,6 14.882,6 14.902,6C14.923,6 14.943,6 14.964,6C14.984,6 15.005,6 15.026,6C15.046,6 15.067,6 15.087,6C15.108,6 15.129,6 15.149,6C15.17,6 15.19,6 15.211,6C15.232,6 15.253,6 15.273,6C15.294,6 15.315,6 15.335,6C15.356,6 15.377,6 15.398,6C15.419,6 15.439,6 15.46,6C15.481,6 15.502,6 15.523,6C15.544,6 15.564,6 15.585,6C15.606,6 15.627,6 15.648,6C15.669,6 15.69,6 15.711,6C15.732,6 15.753,6 15.774,6C15.795,6 15.816,6 15.837,6C15.858,6 15.879,6 15.9,6C15.921,6 15.942,6 15.963,6C15.984,6 16.005,6 16.027,6C16.048,6 16.069,6 16.09,6C16.111,6 16.132,6 16.154,6C16.175,6 16.196,6 16.217,6C16.238,6 16.26,6 16.281,6C16.302,6 16.324,6 16.345,6C16.366,6 16.387,6 16.409,6C16.43,6 16.451,6 16.473,6C16.494,6 16.516,6 16.537,6C16.558,6 16.58,6 16.601,6C16.623,6 16.644,6 16.665,6C16.687,6 16.708,6 16.73,6C16.751,6 16.773,6 16.794,6C16.816,6 16.837,6 16.859,6C16.88,6 16.902,6 16.923,6C16.945,6 16.967,6 16.988,6C17.01,6 17.031,6 17.053,6C17.075,6 17.096,6 17.118,6C17.14,6 17.161,6 17.183,6C17.205,6 17.226,6 17.248,6C17.27,6 17.291,6 17.313,6C17.335,6 17.356,6 17.378,6C17.4,6 17.422,6 17.444,6C17.465,6 17.487,6 17.509,6C17.531,6 17.553,6 17.574,6C17.596,6 17.618,6 17.64,6C17.662,6 17.684,6 17.705,6C17.727,6 17.749,6 17.771,6C17.793,6 17.815,6 17.837,6C17.859,6 17.881,6 17.903,6C17.925,6 17.947,6 17.969,6C17.991,6 18.012,6 18.034,6C18.056,6 18.078,6 18.1,6C18.123,6 18.145,6 18.167,6C18.189,6 18.211,6 18.233,6C18.255,6 18.277,6 18.299,6C18.321,6 18.343,6 18.365,6C18.387,6 18.409,6 18.432,6C18.454,6 18.476,6 18.498,6C18.52,6 18.542,6 18.564,6C18.587,6 18.609,6 18.631,6C18.653,6 18.675,6 18.697,6C18.72,6 18.742,6 18.764,6C18.786,6 18.809,6 18.831,6C18.853,6 18.875,6 18.898,6C18.92,6 18.942,6 18.964,6C18.987,6 19.009,6 19.031,6C19.053,6 19.076,6 19.098,6C19.12,6 19.143,6 19.165,6C19.187,6 19.21,6 19.232,6C19.254,6 19.277,6 19.299,6C19.321,6 19.344,6 19.366,6C19.389,6 19.411,6 19.433,6C19.456,6 19.478,6 19.501,6C19.523,6 19.545,6 19.568,6C19.59,6 19.613,6 19.635,6C19.658,6 19.68,6 19.702,6C19.725,6 19.747,6 19.77,6C19.792,6 19.815,6 19.837,6C19.86,6 19.882,6 19.905,6C19.927,6 19.95,6 19.972,6C19.995,6 20.017,6 20.04,6C20.062,6 20.085,6 20.107,6C20.13,6 20.152,6 20.175,6C20.197,6 20.22,6 20.242,6C20.265,6 20.288,6 20.31,6C20.333,6 20.355,6 20.378,6C20.4,6 20.423,6 20.446,6C20.468,6 20.491,6 20.513,6C20.536,6 20.559,6 20.581,6C20.604,6 20.626,6 20.649,6C20.672,6 20.694,6 20.717,6C20.74,6 20.762,6 20.785,6C20.807,6 20.83,6 20.853,6C20.875,6 20.898,6 20.921,6C20.943,6 20.966,6 20.989,6C21.011,6 21.034,6 21.057,6C21.079,6 21.102,6 21.125,6C21.147,6 21.17,6 21.193,6C21.215,6 21.238,6 21.261,6C21.283,6 21.306,6 21.329,6C21.351,6 21.374,6 21.397,6C21.42,6 21.442,6 21.465,6C21.488,6 21.51,6 21.533,6C21.556,6 21.578,6 21.601,6C21.624,6 21.647,6 21.669,6C21.692,6 21.715,6 21.737,6C21.76,6 21.783,6 21.806,6C21.828,6 21.851,6 21.874,6C21.897,6 21.919,6 21.942,6C21.965,6 21.988,6 22.01,6C22.033,6 22.056,6 22.078,6C22.101,6 22.124,6 22.147,6C22.169,6 22.192,6 22.215,6C22.238,6 22.26,6 22.283,6C22.306,6 22.329,6 22.351,6C22.374,6 22.397,6 22.42,6C22.442,6 22.465,6 22.488,6C22.511,6 22.533,6 22.556,6C22.579,6 22.602,6 22.624,6C22.647,6 22.67,6 22.693,6C22.715,6 22.738,6 22.761,6C22.784,6 22.806,6 22.829,6C22.852,6 22.874,6 22.897,6C22.92,6 22.943,6 22.965,6C22.988,6 23.011,6 23.034,6C23.056,6 23.079,6 23.102,6C23.125,6 23.147,6 23.17,6C23.193,6 23.216,6 23.238,6C23.261,6 23.284,6 23.306,6C23.329,6 23.352,6 23.375,6C23.397,6 23.42,6 23.443,6C23.466,6 23.488,6 23.511,6C23.534,6 23.556,6 23.579,6C23.602,6 23.624,6 23.647,6C23.67,6 23.693,6 23.715,6C23.738,6 23.761,6 23.783,6C23.806,6 23.829,6 23.851,6C23.874,6 23.897,6 23.919,6C23.942,6 23.965,6 23.987,6C24.01,6 24.033,6 24.055,6C24.078,6 24.101,6 24.123,6C24.146,6 24.169,6 24.191,6C24.214,6 24.237,6 24.259,6C24.282,6 24.305,6 24.327,6C24.35,6 24.373,6 24.395,6C24.418,6 24.44,6 24.463,6C24.486,6 24.508,6 24.531,6C24.553,6 24.576,6 24.599,6C24.621,6 24.644,6 24.666,6C24.689,6 24.712,6 24.734,6C24.757,6 24.779,6 24.802,6C24.824,6 24.847,6 24.87,6C24.892,6 24.915,6 24.937,6C24.96,6 24.982,6 25.005,6C25.027,6 25.05,6 25.072,6C25.095,6 25.117,6 25.14,6C25.162,6 25.185,6 25.207,6C25.23,6 25.252,6 25.275,6C25.297,6 25.32,6 25.342,6C25.365,6 25.387,6 25.41,6C25.432,6 25.454,6 25.477,6C25.499,6 25.522,6 25.544,6C25.567,6 25.589,6 25.611,6C25.634,6 25.656,6 25.679,6C25.701,6 25.723,6 25.746,6C25.768,6 25.79,6 25.813,6C25.835,6 25.858,6 25.88,6C25.902,6 25.925,6 25.947,6C25.969,6 25.991,6 26.014,6C26.036,6 26.058,6 26.081,6C26.103,6 26.125,6 26.148,6C26.17,6 26.192,6 26.214,6C26.237,6 26.259,6 26.281,6C26.303,6 26.326,6 26.348,6C26.37,6 26.392,6 26.414,6C26.437,6 26.459,6 26.481,6C26.503,6 26.525,6 26.547,6C26.57,6 26.592,6 26.614,6C26.636,6 26.658,6 26.68,6C26.702,6 26.725,6 26.747,6C26.769,6 26.791,6 26.813,6C26.835,6 26.857,6 26.879,6C26.901,6 26.923,6 26.945,6C26.967,6 26.989,6 27.011,6C27.033,6 27.055,6 27.077,6C27.099,6 27.121,6 27.143,6C27.165,6 27.187,6 27.209,6C27.231,6 27.253,6 27.275,6C27.297,6 27.319,6 27.341,6C27.362,6 27.384,6 27.406,6C27.428,6 27.45,6 27.472,6C27.494,6 27.516,6 27.537,6C27.559,6 27.581,6 27.603,6C27.625,6 27.646,6 27.668,6C27.69,6 27.712,6 27.733,6C27.755,6 27.777,6 27.799,6C27.82,6 27.842,6 27.864,6C27.885,6 27.907,6 27.929,6C27.95,6 27.972,6 27.994,6C28.015,6 28.037,6 28.059,6C28.08,6 28.102,6 28.123,6C28.145,6 28.167,6 28.188,6C28.21,6 28.231,6 28.253,6C28.274,6 28.296,6 28.317,6C28.339,6 28.36,6 28.382,6C28.403,6 28.425,6 28.446,6C28.468,6 28.489,6 28.51,6C28.532,6 28.553,6 28.575,6C28.596,6 28.617,6 28.639,6C28.66,6 28.681,6 28.703,6C28.724,6 28.745,6 28.767,6C28.788,6 28.809,6 28.83,6C28.852,6 28.873,6 28.894,6C28.915,6 28.937,6 28.958,6C28.979,6 29,6 29.021,6C29.042,6 29.064,6 29.085,6C29.106,6 29.127,6 29.148,6C29.169,6 29.19,6 29.211,6C29.232,6 29.253,6 29.274,6C29.296,6 29.317,6 29.338,6C29.359,6 29.379,6 29.4,6C29.421,6 29.442,6 29.463,6C29.484,6 29.505,6 29.526,6C29.547,6 29.568,6 29.589,6C29.609,6 29.63,6 29.651,6C29.672,6 29.693,6 29.714,6C29.734,6 29.755,6 29.776,6C29.797,6 29.817,6 29.838,6C29.859,6 29.879,6 29.9,6C29.921,6 29.941,6 29.962,6C29.983,6 30.003,6 30.024,6C30.044,6 30.065,6 30.086,6C30.106,6 30.127,6 30.147,6C30.168,6 30.188,6 30.209,6C30.229,6 30.25,6 30.27,6C30.291,6 30.311,6 30.331,6C30.352,6 30.372,6 30.392,6C30.413,6 30.433,6 30.454,6C30.474,6 30.494,6 30.514,6C30.535,6 30.555,6 30.575,6C30.595,6 30.616,6 30.636,6C30.656,6 30.676,6 30.696,6C30.717,6 30.737,6 30.757,6C30.777,6 30.797,6 30.817,6C30.837,6 30.857,6 30.877,6C30.897,6 30.917,6 30.937,6C30.957,6 30.977,6 30.997,6C31.017,6 31.037,6 31.057,6C31.077,6 31.097,6 31.117,6C31.136,6 31.156,6 31.176,6C31.196,6 31.216,6 31.235,6C31.255,6 31.275,6 31.295,6C31.314,6 31.334,6 31.354,6C31.373,6 31.393,6 31.413,6C31.432,6 31.452,6 31.472,6C31.491,6 31.511,6 31.53,6C31.55,6 31.569,6 31.589,6C31.608,6 31.628,6 31.647,6C31.667,6 31.686,6 31.706,6C31.725,6 31.744,6 31.764,6C31.783,6 31.802,6 31.822,6C31.841,6 31.86,6 31.879,6C31.899,6 31.918,6 31.937,6C31.956,6 31.976,6 31.995,6C32.014,6 32.033,6 32.052,6C32.071,6 32.09,6 32.109,6C32.128,6 32.147,6 32.166,6C32.185,6 32.204,6 32.223,6C32.242,6 32.261,6 32.28,6C32.299,6 32.318,6 32.337,6C32.356,6 32.375,6 32.393,6C32.412,6 32.431,6 32.45,6C32.468,6 32.487,6 32.506,6C32.525,6 32.543,6 32.562,6C32.581,6 32.599,6 32.618,6C32.636,6 32.655,6 32.673,6C32.692,6 32.711,6 32.729,6C32.748,6 32.766,6 32.784,6C32.803,6 32.821,6 32.84,6C32.858,6 32.876,6 32.895,6C32.913,6 32.931,6 32.95,6C32.968,6 32.986,6 33.004,6C33.023,6 33.041,6 33.059,6C33.077,6 33.095,6 33.113,6C33.131,6 33.15,6 33.168,6C33.186,6 33.204,6 33.222,6C33.24,6 33.258,6 33.276,6C33.293,6 33.311,6 33.329,6C33.347,6 33.365,6 33.383,6C33.401,6 33.418,6 33.436,6C33.454,6 33.472,6 33.489,6C33.507,6 33.525,6 33.542,6C33.56,6 33.578,6 33.595,6C33.613,6 33.631,6 33.648,6C33.666,6 33.683,6 33.701,6C33.718,6 33.735,6 33.753,6C33.77,6 33.788,6 33.805,6C33.822,6 33.84,6 33.857,6C33.874,6 33.892,6 33.909,6C33.926,6 33.943,6 33.96,6C33.978,6 33.995,6 34.012,6C34.029,6 34.046,6 34.063,6C34.08,6 34.097,6 34.114,6C34.131,6 34.148,6 34.165,6C34.182,6 34.199,6 34.216,6C34.233,6 34.249,6 34.266,6C34.283,6 34.3,6 34.316,6C34.333,6 34.35,6 34.367,6C34.383,6 34.4,6 34.416,6C34.433,6 34.45,6 34.466,6C34.483,6 34.499,6 34.516,6C34.532,6 34.549,6 34.565,6C34.581,6 34.598,6 34.614,6C34.631,6 34.647,6 34.663,6C34.679,6 34.696,6 34.712,6C34.728,6 34.744,6 34.76,6C34.777,6 34.793,6 34.809,6C34.825,6 34.841,6 34.857,6C34.873,6 34.889,6 34.905,6C34.921,6 34.937,6 34.953,6C34.968,6 34.984,6 35,6L35,4C34.984,4 34.968,4 34.953,4C34.937,4 34.921,4 34.905,4C34.889,4 34.873,4 34.857,4C34.841,4 34.825,4 34.809,4C34.793,4 34.777,4 34.76,4C34.744,4 34.728,4 34.712,4C34.696,4 34.679,4 34.663,4C34.647,4 34.631,4 34.614,4C34.598,4 34.581,4 34.565,4C34.549,4 34.532,4 34.516,4C34.499,4 34.483,4 34.466,4C34.45,4 34.433,4 34.416,4C34.4,4 34.383,4 34.367,4C34.35,4 34.333,4 34.316,4C34.3,4 34.283,4 34.266,4C34.249,4 34.233,4 34.216,4C34.199,4 34.182,4 34.165,4C34.148,4 34.131,4 34.114,4C34.097,4 34.08,4 34.063,4C34.046,4 34.029,4 34.012,4C33.995,4 33.978,4 33.96,4C33.943,4 33.926,4 33.909,4C33.892,4 33.874,4 33.857,4C33.84,4 33.822,4 33.805,4C33.788,4 33.77,4 33.753,4C33.735,4 33.718,4 33.701,4C33.683,4 33.666,4 33.648,4C33.631,4 33.613,4 33.595,4C33.578,4 33.56,4 33.542,4C33.525,4 33.507,4 33.489,4C33.472,4 33.454,4 33.436,4C33.418,4 33.401,4 33.383,4C33.365,4 33.347,4 33.329,4C33.311,4 33.293,4 33.276,4C33.258,4 33.24,4 33.222,4C33.204,4 33.186,4 33.168,4C33.15,4 33.131,4 33.113,4C33.095,4 33.077,4 33.059,4C33.041,4 33.023,4 33.004,4C32.986,4 32.968,4 32.95,4C32.931,4 32.913,4 32.895,4C32.876,4 32.858,4 32.84,4C32.821,4 32.803,4 32.784,4C32.766,4 32.748,4 32.729,4C32.711,4 32.692,4 32.673,4C32.655,4 32.636,4 32.618,4C32.599,4 32.581,4 32.562,4C32.543,4 32.525,4 32.506,4C32.487,4 32.468,4 32.45,4C32.431,4 32.412,4 32.393,4C32.375,4 32.356,4 32.337,4C32.318,4 32.299,4 32.28,4C32.261,4 32.242,4 32.223,4C32.204,4 32.185,4 32.166,4C32.147,4 32.128,4 32.109,4C32.09,4 32.071,4 32.052,4C32.033,4 32.014,4 31.995,4C31.976,4 31.956,4 31.937,4C31.918,4 31.899,4 31.879,4C31.86,4 31.841,4 31.822,4C31.802,4 31.783,4 31.764,4C31.744,4 31.725,4 31.706,4C31.686,4 31.667,4 31.647,4C31.628,4 31.608,4 31.589,4C31.569,4 31.55,4 31.53,4C31.511,4 31.491,4 31.472,4C31.452,4 31.432,4 31.413,4C31.393,4 31.373,4 31.354,4C31.334,4 31.314,4 31.295,4C31.275,4 31.255,4 31.235,4C31.216,4 31.196,4 31.176,4C31.156,4 31.136,4 31.117,4C31.097,4 31.077,4 31.057,4C31.037,4 31.017,4 30.997,4C30.977,4 30.957,4 30.937,4C30.917,4 30.897,4 30.877,4C30.857,4 30.837,4 30.817,4C30.797,4 30.777,4 30.757,4C30.737,4 30.717,4 30.696,4C30.676,4 30.656,4 30.636,4C30.616,4 30.595,4 30.575,4C30.555,4 30.535,4 30.514,4C30.494,4 30.474,4 30.454,4C30.433,4 30.413,4 30.392,4C30.372,4 30.352,4 30.331,4C30.311,4 30.291,4 30.27,4C30.25,4 30.229,4 30.209,4C30.188,4 30.168,4 30.147,4C30.127,4 30.106,4 30.086,4C30.065,4 30.044,4 30.024,4C30.003,4 29.983,4 29.962,4C29.941,4 29.921,4 29.9,4C29.879,4 29.859,4 29.838,4C29.817,4 29.797,4 29.776,4C29.755,4 29.734,4 29.714,4C29.693,4 29.672,4 29.651,4C29.63,4 29.609,4 29.589,4C29.568,4 29.547,4 29.526,4C29.505,4 29.484,4 29.463,4C29.442,4 29.421,4 29.4,4C29.379,4 29.359,4 29.338,4C29.317,4 29.296,4 29.274,4C29.253,4 29.232,4 29.211,4C29.19,4 29.169,4 29.148,4C29.127,4 29.106,4 29.085,4C29.064,4 29.042,4 29.021,4C29,4 28.979,4 28.958,4C28.937,4 28.915,4 28.894,4C28.873,4 28.852,4 28.83,4C28.809,4 28.788,4 28.767,4C28.745,4 28.724,4 28.703,4C28.681,4 28.66,4 28.639,4C28.617,4 28.596,4 28.575,4C28.553,4 28.532,4 28.51,4C28.489,4 28.468,4 28.446,4C28.425,4 28.403,4 28.382,4C28.36,4 28.339,4 28.317,4C28.296,4 28.274,4 28.253,4C28.231,4 28.21,4 28.188,4C28.167,4 28.145,4 28.123,4C28.102,4 28.08,4 28.059,4C28.037,4 28.015,4 27.994,4C27.972,4 27.95,4 27.929,4C27.907,4 27.885,4 27.864,4C27.842,4 27.82,4 27.799,4C27.777,4 27.755,4 27.733,4C27.712,4 27.69,4 27.668,4C27.646,4 27.625,4 27.603,4C27.581,4 27.559,4 27.537,4C27.516,4 27.494,4 27.472,4C27.45,4 27.428,4 27.406,4C27.384,4 27.362,4 27.341,4C27.319,4 27.297,4 27.275,4C27.253,4 27.231,4 27.209,4C27.187,4 27.165,4 27.143,4C27.121,4 27.099,4 27.077,4C27.055,4 27.033,4 27.011,4C26.989,4 26.967,4 26.945,4C26.923,4 26.901,4 26.879,4C26.857,4 26.835,4 26.813,4C26.791,4 26.769,4 26.747,4C26.725,4 26.702,4 26.68,4C26.658,4 26.636,4 26.614,4C26.592,4 26.57,4 26.547,4C26.525,4 26.503,4 26.481,4C26.459,4 26.437,4 26.414,4C26.392,4 26.37,4 26.348,4C26.326,4 26.303,4 26.281,4C26.259,4 26.237,4 26.214,4C26.192,4 26.17,4 26.148,4C26.125,4 26.103,4 26.081,4C26.058,4 26.036,4 26.014,4C25.991,4 25.969,4 25.947,4C25.925,4 25.902,4 25.88,4C25.858,4 25.835,4 25.813,4C25.79,4 25.768,4 25.746,4C25.723,4 25.701,4 25.679,4C25.656,4 25.634,4 25.611,4C25.589,4 25.567,4 25.544,4C25.522,4 25.499,4 25.477,4C25.454,4 25.432,4 25.41,4C25.387,4 25.365,4 25.342,4C25.32,4 25.297,4 25.275,4C25.252,4 25.23,4 25.207,4C25.185,4 25.162,4 25.14,4C25.117,4 25.095,4 25.072,4C25.05,4 25.027,4 25.005,4C24.982,4 24.96,4 24.937,4C24.915,4 24.892,4 24.87,4C24.847,4 24.824,4 24.802,4C24.779,4 24.757,4 24.734,4C24.712,4 24.689,4 24.666,4C24.644,4 24.621,4 24.599,4C24.576,4 24.553,4 24.531,4C24.508,4 24.486,4 24.463,4C24.44,4 24.418,4 24.395,4C24.373,4 24.35,4 24.327,4C24.305,4 24.282,4 24.259,4C24.237,4 24.214,4 24.191,4C24.169,4 24.146,4 24.123,4C24.101,4 24.078,4 24.055,4C24.033,4 24.01,4 23.987,4C23.965,4 23.942,4 23.919,4C23.897,4 23.874,4 23.851,4C23.829,4 23.806,4 23.783,4C23.761,4 23.738,4 23.715,4C23.693,4 23.67,4 23.647,4C23.624,4 23.602,4 23.579,4C23.556,4 23.534,4 23.511,4C23.488,4 23.466,4 23.443,4C23.42,4 23.397,4 23.375,4C23.352,4 23.329,4 23.306,4C23.284,4 23.261,4 23.238,4C23.216,4 23.193,4 23.17,4C23.147,4 23.125,4 23.102,4C23.079,4 23.056,4 23.034,4C23.011,4 22.988,4 22.965,4C22.943,4 22.92,4 22.897,4C22.874,4 22.852,4 22.829,4C22.806,4 22.784,4 22.761,4C22.738,4 22.715,4 22.693,4C22.67,4 22.647,4 22.624,4C22.602,4 22.579,4 22.556,4C22.533,4 22.511,4 22.488,4C22.465,4 22.442,4 22.42,4C22.397,4 22.374,4 22.351,4C22.329,4 22.306,4 22.283,4C22.26,4 22.238,4 22.215,4C22.192,4 22.169,4 22.147,4C22.124,4 22.101,4 22.078,4C22.056,4 22.033,4 22.01,4C21.988,4 21.965,4 21.942,4C21.919,4 21.897,4 21.874,4C21.851,4 21.828,4 21.806,4C21.783,4 21.76,4 21.737,4C21.715,4 21.692,4 21.669,4C21.647,4 21.624,4 21.601,4C21.578,4 21.556,4 21.533,4C21.51,4 21.488,4 21.465,4C21.442,4 21.42,4 21.397,4C21.374,4 21.351,4 21.329,4C21.306,4 21.283,4 21.261,4C21.238,4 21.215,4 21.193,4C21.17,4 21.147,4 21.125,4C21.102,4 21.079,4 21.057,4C21.034,4 21.011,4 20.989,4C20.966,4 20.943,4 20.921,4C20.898,4 20.875,4 20.853,4C20.83,4 20.807,4 20.785,4C20.762,4 20.74,4 20.717,4C20.694,4 20.672,4 20.649,4C20.626,4 20.604,4 20.581,4C20.559,4 20.536,4 20.513,4C20.491,4 20.468,4 20.446,4C20.423,4 20.4,4 20.378,4C20.355,4 20.333,4 20.31,4C20.288,4 20.265,4 20.242,4C20.22,4 20.197,4 20.175,4C20.152,4 20.13,4 20.107,4C20.085,4 20.062,4 20.04,4C20.017,4 19.995,4 19.972,4C19.95,4 19.927,4 19.905,4C19.882,4 19.86,4 19.837,4C19.815,4 19.792,4 19.77,4C19.747,4 19.725,4 19.702,4C19.68,4 19.658,4 19.635,4C19.613,4 19.59,4 19.568,4C19.545,4 19.523,4 19.501,4C19.478,4 19.456,4 19.433,4C19.411,4 19.389,4 19.366,4C19.344,4 19.321,4 19.299,4C19.277,4 19.254,4 19.232,4C19.21,4 19.187,4 19.165,4C19.143,4 19.12,4 19.098,4C19.076,4 19.053,4 19.031,4C19.009,4 18.987,4 18.964,4C18.942,4 18.92,4 18.898,4C18.875,4 18.853,4 18.831,4C18.809,4 18.786,4 18.764,4C18.742,4 18.72,4 18.697,4C18.675,4 18.653,4 18.631,4C18.609,4 18.587,4 18.564,4C18.542,4 18.52,4 18.498,4C18.476,4 18.454,4 18.432,4C18.409,4 18.387,4 18.365,4C18.343,4 18.321,4 18.299,4C18.277,4 18.255,4 18.233,4C18.211,4 18.189,4 18.167,4C18.145,4 18.123,4 18.1,4C18.078,4 18.056,4 18.034,4C18.012,4 17.991,4 17.969,4C17.947,4 17.925,4 17.903,4C17.881,4 17.859,4 17.837,4C17.815,4 17.793,4 17.771,4C17.749,4 17.727,4 17.705,4C17.684,4 17.662,4 17.64,4C17.618,4 17.596,4 17.574,4C17.553,4 17.531,4 17.509,4C17.487,4 17.465,4 17.444,4C17.422,4 17.4,4 17.378,4C17.356,4 17.335,4 17.313,4C17.291,4 17.27,4 17.248,4C17.226,4 17.205,4 17.183,4C17.161,4 17.14,4 17.118,4C17.096,4 17.075,4 17.053,4C17.031,4 17.01,4 16.988,4C16.967,4 16.945,4 16.923,4C16.902,4 16.88,4 16.859,4C16.837,4 16.816,4 16.794,4C16.773,4 16.751,4 16.73,4C16.708,4 16.687,4 16.665,4C16.644,4 16.623,4 16.601,4C16.58,4 16.558,4 16.537,4C16.516,4 16.494,4 16.473,4C16.451,4 16.43,4 16.409,4C16.387,4 16.366,4 16.345,4C16.324,4 16.302,4 16.281,4C16.26,4 16.238,4 16.217,4C16.196,4 16.175,4 16.154,4C16.132,4 16.111,4 16.09,4C16.069,4 16.048,4 16.027,4C16.005,4 15.984,4 15.963,4C15.942,4 15.921,4 15.9,4C15.879,4 15.858,4 15.837,4C15.816,4 15.795,4 15.774,4C15.753,4 15.732,4 15.711,4C15.69,4 15.669,4 15.648,4C15.627,4 15.606,4 15.585,4C15.564,4 15.544,4 15.523,4C15.502,4 15.481,4 15.46,4C15.439,4 15.419,4 15.398,4C15.377,4 15.356,4 15.335,4C15.315,4 15.294,4 15.273,4C15.253,4 15.232,4 15.211,4C15.19,4 15.17,4 15.149,4C15.129,4 15.108,4 15.087,4C15.067,4 15.046,4 15.026,4C15.005,4 14.984,4 14.964,4C14.943,4 14.923,4 14.902,4C14.882,4 14.861,4 14.841,4C14.821,4 14.8,4 14.78,4C14.759,4 14.739,4 14.719,4C14.698,4 14.678,4 14.658,4C14.637,4 14.617,4 14.597,4C14.576,4 14.556,4 14.536,4C14.516,4 14.495,4 14.475,4C14.455,4 14.435,4 14.415,4C14.394,4 14.374,4 14.354,4C14.334,4 14.314,4 14.294,4C14.274,4 14.254,4 14.234,4C14.214,4 14.194,4 14.174,4C14.154,4 14.134,4 14.114,4C14.094,4 14.074,4 14.054,4C14.034,4 14.014,4 13.994,4C13.974,4 13.955,4 13.935,4C13.915,4 13.895,4 13.875,4C13.856,4 13.836,4 13.816,4C13.796,4 13.777,4 13.757,4C13.737,4 13.718,4 13.698,4C13.678,4 13.659,4 13.639,4C13.62,4 13.6,4 13.58,4C13.561,4 13.541,4 13.522,4C13.502,4 13.483,4 13.463,4C13.444,4 13.425,4 13.405,4C13.386,4 13.366,4 13.347,4C13.328,4 13.308,4 13.289,4C13.27,4 13.25,4 13.231,4C13.212,4 13.193,4 13.173,4C13.154,4 13.135,4 13.116,4C13.097,4 13.078,4 13.058,4C13.039,4 13.02,4 13.001,4C12.982,4 12.963,4 12.944,4C12.925,4 12.906,4 12.887,4C12.868,4 12.849,4 12.83,4C12.811,4 12.792,4 12.774,4C12.755,4 12.736,4 12.717,4C12.698,4 12.679,4 12.661,4C12.642,4 12.623,4 12.604,4C12.586,4 12.567,4 12.548,4C12.53,4 12.511,4 12.493,4C12.474,4 12.455,4 12.437,4C12.418,4 12.4,4 12.381,4C12.363,4 12.344,4 12.326,4C12.307,4 12.289,4 12.271,4C12.252,4 12.234,4 12.215,4C12.197,4 12.179,4 12.161,4C12.142,4 12.124,4 12.106,4C12.088,4 12.069,4 12.051,4C12.033,4 12.015,4 11.997,4C11.979,4 11.961,4 11.942,4C11.924,4 11.906,4 11.888,4C11.87,4 11.852,4 11.834,4C11.817,4 11.799,4 11.781,4C11.763,4 11.745,4 11.727,4C11.709,4 11.692,4 11.674,4C11.656,4 11.638,4 11.62,4C11.603,4 11.585,4 11.567,4C11.55,4 11.532,4 11.515,4C11.497,4 11.479,4 11.462,4C11.444,4 11.427,4 11.409,4C11.392,4 11.374,4 11.357,4C11.34,4 11.322,4 11.305,4C11.287,4 11.27,4 11.253,4C11.235,4 11.218,4 11.201,4C11.184,4 11.166,4 11.149,4C11.132,4 11.115,4 11.098,4C11.081,4 11.064,4 11.047,4C11.03,4 11.013,4 10.996,4C10.979,4 10.962,4 10.945,4C10.928,4 10.911,4 10.894,4C10.877,4 10.86,4 10.843,4C10.827,4 10.81,4 10.793,4C10.776,4 10.76,4 10.743,4C10.726,4 10.71,4 10.693,4C10.676,4 10.66,4 10.643,4C10.627,4 10.61,4 10.594,4C10.577,4 10.561,4 10.544,4C10.528,4 10.512,4 10.495,4C10.479,4 10.463,4 10.446,4C10.43,4 10.414,4 10.397,4C10.381,4 10.365,4 10.349,4C10.333,4 10.317,4 10.3,4C10.284,4 10.268,4 10.252,4C10.236,4 10.22,4 10.204,4C10.188,4 10.172,4 10.157,4C10.141,4 10.125,4 10.109,4C10.093,4 10.077,4 10.062,4C10.046,4 10.03,4 10.015,4C9.999,4 9.983,4 9.968,4C9.952,4 9.936,4 9.921,4C9.905,4 9.89,4 9.874,4C9.859,4 9.843,4 9.828,4C9.813,4 9.797,4 9.782,4C9.767,4 9.751,4 9.736,4C9.721,4 9.705,4 9.69,4C9.675,4 9.66,4 9.645,4C9.63,4 9.615,4 9.6,4C9.584,4 9.569,4 9.555,4C9.54,4 9.525,4 9.51,4C9.495,4 9.48,4 9.465,4C9.45,4 9.435,4 9.421,4C9.406,4 9.391,4 9.377,4C9.362,4 9.347,4 9.333,4C9.318,4 9.303,4 9.289,4C9.274,4 9.26,4 9.245,4C9.231,4 9.216,4 9.202,4C9.188,4 9.173,4 9.159,4C9.145,4 9.13,4 9.116,4C9.102,4 9.088,4 9.074,4C9.059,4 9.045,4 9.031,4C9.017,4 9.003,4 8.989,4C8.975,4 8.961,4 8.947,4C8.933,4 8.919,4 8.905,4C8.892,4 8.878,4 8.864,4C8.85,4 8.837,4 8.823,4C8.809,4 8.795,4 8.782,4C8.768,4 8.755,4 8.741,4C8.728,4 8.714,4 8.701,4C8.687,4 8.674,4 8.66,4C8.647,4 8.634,4 8.62,4C8.607,4 8.594,4 8.58,4C8.567,4 8.554,4 8.541,4C8.528,4 8.515,4 8.502,4C8.489,4 8.475,4 8.463,4C8.45,4 8.437,4 8.424,4C8.411,4 8.398,4 8.385,4C8.372,4 8.359,4 8.347,4C8.334,4 8.321,4 8.309,4C8.296,4 8.283,4 8.271,4C8.258,4 8.246,4 8.233,4C8.221,4 8.208,4 8.196,4C8.183,4 8.171,4 8.159,4C8.146,4 8.134,4 8.122,4C8.11,4 8.097,4 8.085,4C8.073,4 8.061,4 8.049,4C8.037,4 8.025,4 8.013,4C8.001,4 7.989,4 7.977,4C7.965,4 7.953,4 7.941,4C7.93,4 7.918,4 7.906,4C7.894,4 7.883,4 7.871,4C7.859,4 7.848,4 7.836,4C7.825,4 7.813,4 7.802,4C7.79,4 7.779,4 7.767,4C7.756,4 7.745,4 7.733,4C7.722,4 7.711,4 7.7,4C7.688,4 7.677,4 7.666,4C7.655,4 7.644,4 7.633,4C7.622,4 7.611,4 7.6,4C7.589,4 7.578,4 7.567,4C7.556,4 7.546,4 7.535,4C7.524,4 7.513,4 7.503,4C7.492,4 7.481,4 7.471,4C7.46,4 7.45,4 7.439,4C7.429,4 7.418,4 7.408,4C7.397,4 7.387,4 7.377,4C7.366,4 7.356,4 7.346,4C7.336,4 7.326,4 7.315,4C7.305,4 7.295,4 7.285,4C7.275,4 7.265,4 7.255,4C7.245,4 7.235,4 7.226,4C7.216,4 7.206,4 7.196,4C7.186,4 7.177,4 7.167,4C7.157,4 7.148,4 7.138,4C7.129,4 7.119,4 7.11,4C7.1,4 7.091,4 7.081,4C7.072,4 7.063,4 7.053,4C7.044,4 7.035,4 7.026,4C7.016,4 7.007,4 6.998,4C6.989,4 6.98,4 6.971,4C6.962,4 6.953,4 6.944,4C6.935,4 6.926,4 6.918,4C6.909,4 6.9,4 6.891,4C6.883,4 6.874,4 6.865,4C6.857,4 6.848,4 6.84,4C6.831,4 6.823,4 6.814,4C6.806,4 6.798,4 6.789,4C6.781,4 6.773,4 6.764,4C6.756,4 6.748,4 6.74,4C6.732,4 6.724,4 6.716,4C6.708,4 6.7,4 6.692,4C6.684,4 6.676,4 6.668,4C6.66,4 6.653,4 6.645,4C6.637,4 6.63,4 6.622,4C6.614,4 6.607,4 6.599,4C6.592,4 6.584,4 6.577,4C6.569,4 6.562,4 6.555,4C6.547,4 6.54,4 6.533,4C6.526,4 6.519,4 6.511,4C6.504,4 6.497,4 6.49,4C6.483,4 6.476,4 6.469,4C6.463,4 6.456,4 6.449,4C6.442,4 6.435,4 6.429,4L6.429,6ZM35,6C36.333,6 37.881,6.201 39.345,7.073C40.794,7.937 42.268,9.521 43.346,12.485L45.226,11.801C44.018,8.479 42.277,6.492 40.369,5.355C38.476,4.228 36.524,4 35,4L35,6Z" fill="#5E80C9"/>
<path d="M88.091,1.031C88.266,0.507 87.983,-0.06 87.459,-0.234C86.935,-0.409 86.369,-0.126 86.194,0.398L88.091,1.031ZM43.346,11.801C43.157,12.32 43.425,12.894 43.944,13.083C44.463,13.271 45.037,13.004 45.225,12.485L43.346,11.801ZM86.194,0.398C86.002,0.973 85.514,1.899 84.704,2.668C83.912,3.42 82.839,4 81.428,4L81.428,6C83.447,6 84.993,5.151 86.081,4.118C87.153,3.101 87.807,1.884 88.091,1.031L86.194,0.398ZM81.428,4C81.422,4 81.415,4 81.408,4C81.401,4 81.395,4 81.388,4C81.381,4 81.374,4 81.367,4C81.36,4 81.353,4 81.346,4C81.339,4 81.331,4 81.324,4C81.317,4 81.31,4 81.302,4C81.295,4 81.288,4 81.28,4C81.273,4 81.265,4 81.258,4C81.25,4 81.243,4 81.235,4C81.228,4 81.22,4 81.212,4C81.204,4 81.197,4 81.189,4C81.181,4 81.173,4 81.165,4C81.157,4 81.149,4 81.141,4C81.133,4 81.125,4 81.117,4C81.109,4 81.101,4 81.093,4C81.084,4 81.076,4 81.068,4C81.06,4 81.051,4 81.043,4C81.034,4 81.026,4 81.017,4C81.009,4 81,4 80.992,4C80.983,4 80.974,4 80.966,4C80.957,4 80.948,4 80.939,4C80.931,4 80.922,4 80.913,4C80.904,4 80.895,4 80.886,4C80.877,4 80.868,4 80.859,4C80.85,4 80.841,4 80.831,4C80.822,4 80.813,4 80.804,4C80.794,4 80.785,4 80.776,4C80.766,4 80.757,4 80.747,4C80.738,4 80.728,4 80.719,4C80.709,4 80.7,4 80.69,4C80.68,4 80.671,4 80.661,4C80.651,4 80.641,4 80.632,4C80.622,4 80.612,4 80.602,4C80.592,4 80.582,4 80.572,4C80.562,4 80.552,4 80.542,4C80.531,4 80.521,4 80.511,4C80.501,4 80.491,4 80.48,4C80.47,4 80.46,4 80.449,4C80.439,4 80.428,4 80.418,4C80.407,4 80.397,4 80.386,4C80.376,4 80.365,4 80.354,4C80.344,4 80.333,4 80.322,4C80.311,4 80.301,4 80.29,4C80.279,4 80.268,4 80.257,4C80.246,4 80.235,4 80.224,4C80.213,4 80.202,4 80.191,4C80.18,4 80.169,4 80.157,4C80.146,4 80.135,4 80.124,4C80.112,4 80.101,4 80.09,4C80.078,4 80.067,4 80.055,4C80.044,4 80.032,4 80.021,4C80.009,4 79.998,4 79.986,4C79.974,4 79.963,4 79.951,4C79.939,4 79.927,4 79.916,4C79.904,4 79.892,4 79.88,4C79.868,4 79.856,4 79.844,4C79.832,4 79.82,4 79.808,4C79.796,4 79.784,4 79.772,4C79.76,4 79.747,4 79.735,4C79.723,4 79.711,4 79.698,4C79.686,4 79.674,4 79.661,4C79.649,4 79.636,4 79.624,4C79.611,4 79.599,4 79.586,4C79.574,4 79.561,4 79.548,4C79.536,4 79.523,4 79.51,4C79.498,4 79.485,4 79.472,4C79.459,4 79.446,4 79.433,4C79.421,4 79.408,4 79.395,4C79.382,4 79.369,4 79.356,4C79.342,4 79.329,4 79.316,4C79.303,4 79.29,4 79.277,4C79.263,4 79.25,4 79.237,4C79.224,4 79.21,4 79.197,4C79.183,4 79.17,4 79.157,4C79.143,4 79.13,4 79.116,4C79.102,4 79.089,4 79.075,4C79.062,4 79.048,4 79.034,4C79.021,4 79.007,4 78.993,4C78.979,4 78.965,4 78.952,4C78.938,4 78.924,4 78.91,4C78.896,4 78.882,4 78.868,4C78.854,4 78.84,4 78.826,4C78.812,4 78.798,4 78.784,4C78.769,4 78.755,4 78.741,4C78.727,4 78.712,4 78.698,4C78.684,4 78.669,4 78.655,4C78.641,4 78.626,4 78.612,4C78.597,4 78.583,4 78.568,4C78.554,4 78.539,4 78.525,4C78.51,4 78.495,4 78.481,4C78.466,4 78.451,4 78.436,4C78.422,4 78.407,4 78.392,4C78.377,4 78.362,4 78.347,4C78.333,4 78.318,4 78.303,4C78.288,4 78.273,4 78.258,4C78.243,4 78.227,4 78.212,4C78.197,4 78.182,4 78.167,4C78.152,4 78.136,4 78.121,4C78.106,4 78.091,4 78.075,4C78.06,4 78.045,4 78.029,4C78.014,4 77.998,4 77.983,4C77.967,4 77.952,4 77.936,4C77.921,4 77.905,4 77.89,4C77.874,4 77.858,4 77.843,4C77.827,4 77.811,4 77.795,4C77.78,4 77.764,4 77.748,4C77.732,4 77.716,4 77.701,4C77.685,4 77.669,4 77.653,4C77.637,4 77.621,4 77.605,4C77.589,4 77.573,4 77.557,4C77.541,4 77.524,4 77.508,4C77.492,4 77.476,4 77.46,4C77.443,4 77.427,4 77.411,4C77.395,4 77.378,4 77.362,4C77.346,4 77.329,4 77.313,4C77.296,4 77.28,4 77.263,4C77.247,4 77.23,4 77.214,4C77.197,4 77.181,4 77.164,4C77.147,4 77.131,4 77.114,4C77.097,4 77.081,4 77.064,4C77.047,4 77.03,4 77.014,4C76.997,4 76.98,4 76.963,4C76.946,4 76.929,4 76.912,4C76.896,4 76.879,4 76.862,4C76.845,4 76.828,4 76.81,4C76.793,4 76.776,4 76.759,4C76.742,4 76.725,4 76.708,4C76.691,4 76.673,4 76.656,4C76.639,4 76.622,4 76.604,4C76.587,4 76.57,4 76.552,4C76.535,4 76.518,4 76.5,4C76.483,4 76.465,4 76.448,4C76.43,4 76.413,4 76.395,4C76.378,4 76.36,4 76.343,4C76.325,4 76.307,4 76.29,4C76.272,4 76.254,4 76.237,4C76.219,4 76.201,4 76.183,4C76.166,4 76.148,4 76.13,4C76.112,4 76.094,4 76.076,4C76.058,4 76.041,4 76.023,4C76.005,4 75.987,4 75.969,4C75.951,4 75.933,4 75.915,4C75.897,4 75.878,4 75.86,4C75.842,4 75.824,4 75.806,4C75.788,4 75.77,4 75.751,4C75.733,4 75.715,4 75.697,4C75.678,4 75.66,4 75.642,4C75.623,4 75.605,4 75.587,4C75.568,4 75.55,4 75.531,4C75.513,4 75.494,4 75.476,4C75.457,4 75.439,4 75.42,4C75.402,4 75.383,4 75.365,4C75.346,4 75.327,4 75.309,4C75.29,4 75.271,4 75.253,4C75.234,4 75.215,4 75.196,4C75.178,4 75.159,4 75.14,4C75.121,4 75.102,4 75.084,4C75.065,4 75.046,4 75.027,4C75.008,4 74.989,4 74.97,4C74.951,4 74.932,4 74.913,4C74.894,4 74.875,4 74.856,4C74.837,4 74.818,4 74.799,4C74.78,4 74.76,4 74.741,4C74.722,4 74.703,4 74.684,4C74.664,4 74.645,4 74.626,4C74.607,4 74.587,4 74.568,4C74.549,4 74.529,4 74.51,4C74.491,4 74.471,4 74.452,4C74.433,4 74.413,4 74.394,4C74.374,4 74.355,4 74.335,4C74.316,4 74.296,4 74.277,4C74.257,4 74.238,4 74.218,4C74.198,4 74.179,4 74.159,4C74.139,4 74.12,4 74.1,4C74.08,4 74.061,4 74.041,4C74.021,4 74.002,4 73.982,4C73.962,4 73.942,4 73.922,4C73.903,4 73.883,4 73.863,4C73.843,4 73.823,4 73.803,4C73.783,4 73.763,4 73.743,4C73.723,4 73.703,4 73.683,4C73.663,4 73.643,4 73.623,4C73.603,4 73.583,4 73.563,4C73.543,4 73.523,4 73.503,4C73.483,4 73.463,4 73.443,4C73.422,4 73.402,4 73.382,4C73.362,4 73.342,4 73.321,4C73.301,4 73.281,4 73.26,4C73.24,4 73.22,4 73.2,4C73.179,4 73.159,4 73.139,4C73.118,4 73.098,4 73.077,4C73.057,4 73.037,4 73.016,4C72.996,4 72.975,4 72.955,4C72.934,4 72.914,4 72.893,4C72.873,4 72.852,4 72.832,4C72.811,4 72.79,4 72.77,4C72.749,4 72.729,4 72.708,4C72.687,4 72.667,4 72.646,4C72.625,4 72.605,4 72.584,4C72.563,4 72.542,4 72.522,4C72.501,4 72.48,4 72.459,4C72.439,4 72.418,4 72.397,4C72.376,4 72.355,4 72.334,4C72.314,4 72.293,4 72.272,4C72.251,4 72.23,4 72.209,4C72.188,4 72.167,4 72.146,4C72.125,4 72.104,4 72.083,4C72.062,4 72.041,4 72.02,4C71.999,4 71.978,4 71.957,4C71.936,4 71.915,4 71.894,4C71.873,4 71.852,4 71.83,4C71.809,4 71.788,4 71.767,4C71.746,4 71.725,4 71.703,4C71.682,4 71.661,4 71.64,4C71.619,4 71.597,4 71.576,4C71.555,4 71.534,4 71.512,4C71.491,4 71.47,4 71.448,4C71.427,4 71.406,4 71.384,4C71.363,4 71.342,4 71.32,4C71.299,4 71.277,4 71.256,4C71.235,4 71.213,4 71.192,4C71.17,4 71.149,4 71.127,4C71.106,4 71.084,4 71.063,4C71.041,4 71.02,4 70.998,4C70.977,4 70.955,4 70.934,4C70.912,4 70.891,4 70.869,4C70.847,4 70.826,4 70.804,4C70.783,4 70.761,4 70.739,4C70.718,4 70.696,4 70.674,4C70.653,4 70.631,4 70.609,4C70.587,4 70.566,4 70.544,4C70.522,4 70.501,4 70.479,4C70.457,4 70.435,4 70.414,4C70.392,4 70.37,4 70.348,4C70.326,4 70.305,4 70.283,4C70.261,4 70.239,4 70.217,4C70.195,4 70.174,4 70.152,4C70.13,4 70.108,4 70.086,4C70.064,4 70.042,4 70.02,4C69.998,4 69.976,4 69.954,4C69.932,4 69.911,4 69.889,4C69.867,4 69.845,4 69.823,4C69.801,4 69.779,4 69.757,4C69.735,4 69.713,4 69.691,4C69.668,4 69.646,4 69.624,4C69.602,4 69.58,4 69.558,4C69.536,4 69.514,4 69.492,4C69.47,4 69.448,4 69.426,4C69.403,4 69.381,4 69.359,4C69.337,4 69.315,4 69.293,4C69.271,4 69.248,4 69.226,4C69.204,4 69.182,4 69.16,4C69.137,4 69.115,4 69.093,4C69.071,4 69.049,4 69.026,4C69.004,4 68.982,4 68.96,4C68.937,4 68.915,4 68.893,4C68.87,4 68.848,4 68.826,4C68.804,4 68.781,4 68.759,4C68.737,4 68.714,4 68.692,4C68.67,4 68.647,4 68.625,4C68.603,4 68.58,4 68.558,4C68.536,4 68.513,4 68.491,4C68.469,4 68.446,4 68.424,4C68.401,4 68.379,4 68.357,4C68.334,4 68.312,4 68.289,4C68.267,4 68.244,4 68.222,4C68.2,4 68.177,4 68.155,4C68.132,4 68.11,4 68.087,4C68.065,4 68.042,4 68.02,4C67.997,4 67.975,4 67.952,4C67.93,4 67.907,4 67.885,4C67.862,4 67.84,4 67.817,4C67.795,4 67.772,4 67.75,4C67.727,4 67.705,4 67.682,4C67.66,4 67.637,4 67.615,4C67.592,4 67.569,4 67.547,4C67.524,4 67.502,4 67.479,4C67.457,4 67.434,4 67.411,4C67.389,4 67.366,4 67.344,4C67.321,4 67.299,4 67.276,4C67.253,4 67.231,4 67.208,4C67.185,4 67.163,4 67.14,4C67.118,4 67.095,4 67.072,4C67.05,4 67.027,4 67.004,4C66.982,4 66.959,4 66.936,4C66.914,4 66.891,4 66.869,4C66.846,4 66.823,4 66.801,4C66.778,4 66.755,4 66.733,4C66.71,4 66.687,4 66.665,4C66.642,4 66.619,4 66.596,4C66.574,4 66.551,4 66.528,4C66.506,4 66.483,4 66.46,4C66.438,4 66.415,4 66.392,4C66.37,4 66.347,4 66.324,4C66.301,4 66.279,4 66.256,4C66.233,4 66.211,4 66.188,4C66.165,4 66.142,4 66.12,4C66.097,4 66.074,4 66.051,4C66.029,4 66.006,4 65.983,4C65.961,4 65.938,4 65.915,4C65.892,4 65.87,4 65.847,4C65.824,4 65.801,4 65.779,4C65.756,4 65.733,4 65.71,4C65.688,4 65.665,4 65.642,4C65.62,4 65.597,4 65.574,4C65.551,4 65.529,4 65.506,4C65.483,4 65.46,4 65.438,4C65.415,4 65.392,4 65.369,4C65.347,4 65.324,4 65.301,4C65.278,4 65.256,4 65.233,4C65.21,4 65.187,4 65.165,4C65.142,4 65.119,4 65.096,4C65.074,4 65.051,4 65.028,4C65.005,4 64.983,4 64.96,4C64.937,4 64.914,4 64.892,4C64.869,4 64.846,4 64.823,4C64.801,4 64.778,4 64.755,4C64.733,4 64.71,4 64.687,4C64.664,4 64.642,4 64.619,4C64.596,4 64.573,4 64.551,4C64.528,4 64.505,4 64.483,4C64.46,4 64.437,4 64.414,4C64.392,4 64.369,4 64.346,4C64.324,4 64.301,4 64.278,4C64.255,4 64.233,4 64.21,4C64.187,4 64.165,4 64.142,4C64.119,4 64.097,4 64.074,4C64.051,4 64.028,4 64.006,4C63.983,4 63.96,4 63.938,4C63.915,4 63.892,4 63.87,4C63.847,4 63.824,4 63.802,4C63.779,4 63.756,4 63.734,4C63.711,4 63.688,4 63.666,4C63.643,4 63.62,4 63.598,4C63.575,4 63.553,4 63.53,4C63.507,4 63.485,4 63.462,4C63.439,4 63.417,4 63.394,4C63.372,4 63.349,4 63.326,4C63.304,4 63.281,4 63.259,4C63.236,4 63.213,4 63.191,4C63.168,4 63.146,4 63.123,4C63.1,4 63.078,4 63.055,4C63.033,4 63.01,4 62.988,4C62.965,4 62.943,4 62.92,4C62.898,4 62.875,4 62.852,4C62.83,4 62.807,4 62.785,4C62.762,4 62.74,4 62.717,4C62.695,4 62.672,4 62.65,4C62.627,4 62.605,4 62.582,4C62.56,4 62.537,4 62.515,4C62.493,4 62.47,4 62.448,4C62.425,4 62.403,4 62.38,4C62.358,4 62.335,4 62.313,4C62.291,4 62.268,4 62.246,4C62.223,4 62.201,4 62.179,4C62.156,4 62.134,4 62.111,4C62.089,4 62.067,4 62.044,4C62.022,4 62,4 61.977,4C61.955,4 61.933,4 61.91,4C61.888,4 61.866,4 61.843,4C61.821,4 61.799,4 61.776,4C61.754,4 61.732,4 61.71,4C61.687,4 61.665,4 61.643,4C61.621,4 61.598,4 61.576,4C61.554,4 61.532,4 61.509,4C61.487,4 61.465,4 61.443,4C61.421,4 61.398,4 61.376,4C61.354,4 61.332,4 61.31,4C61.288,4 61.265,4 61.243,4C61.221,4 61.199,4 61.177,4C61.155,4 61.133,4 61.111,4C61.088,4 61.066,4 61.044,4C61.022,4 61,4 60.978,4C60.956,4 60.934,4 60.912,4C60.89,4 60.868,4 60.846,4C60.824,4 60.802,4 60.78,4C60.758,4 60.736,4 60.714,4C60.692,4 60.67,4 60.648,4C60.626,4 60.604,4 60.582,4C60.56,4 60.538,4 60.517,4C60.495,4 60.473,4 60.451,4C60.429,4 60.407,4 60.385,4C60.364,4 60.342,4 60.32,4C60.298,4 60.276,4 60.254,4C60.233,4 60.211,4 60.189,4C60.167,4 60.146,4 60.124,4C60.102,4 60.08,4 60.059,4C60.037,4 60.015,4 59.993,4C59.972,4 59.95,4 59.928,4C59.907,4 59.885,4 59.863,4C59.842,4 59.82,4 59.799,4C59.777,4 59.755,4 59.734,4C59.712,4 59.691,4 59.669,4C59.647,4 59.626,4 59.604,4C59.583,4 59.561,4 59.54,4C59.518,4 59.497,4 59.475,4C59.454,4 59.432,4 59.411,4C59.39,4 59.368,4 59.347,4C59.325,4 59.304,4 59.283,4C59.261,4 59.24,4 59.218,4C59.197,4 59.176,4 59.154,4C59.133,4 59.112,4 59.091,4C59.069,4 59.048,4 59.027,4C59.005,4 58.984,4 58.963,4C58.942,4 58.921,4 58.899,4C58.878,4 58.857,4 58.836,4C58.815,4 58.794,4 58.772,4C58.751,4 58.73,4 58.709,4C58.688,4 58.667,4 58.646,4C58.625,4 58.604,4 58.583,4C58.562,4 58.541,4 58.52,4C58.499,4 58.478,4 58.457,4C58.436,4 58.415,4 58.394,4C58.373,4 58.352,4 58.331,4C58.31,4 58.289,4 58.269,4C58.248,4 58.227,4 58.206,4C58.185,4 58.164,4 58.144,4C58.123,4 58.102,4 58.081,4C58.061,4 58.04,4 58.019,4C57.998,4 57.978,4 57.957,4C57.936,4 57.916,4 57.895,4C57.875,4 57.854,4 57.833,4C57.813,4 57.792,4 57.772,4C57.751,4 57.731,4 57.71,4C57.689,4 57.669,4 57.648,4C57.628,4 57.608,4 57.587,4C57.567,4 57.546,4 57.526,4C57.505,4 57.485,4 57.465,4C57.444,4 57.424,4 57.404,4C57.383,4 57.363,4 57.343,4C57.322,4 57.302,4 57.282,4C57.262,4 57.242,4 57.221,4C57.201,4 57.181,4 57.161,4C57.141,4 57.12,4 57.1,4C57.08,4 57.06,4 57.04,4C57.02,4 57,4 56.98,4C56.96,4 56.94,4 56.92,4C56.9,4 56.88,4 56.86,4C56.84,4 56.82,4 56.8,4C56.78,4 56.76,4 56.741,4C56.721,4 56.701,4 56.681,4C56.661,4 56.642,4 56.622,4C56.602,4 56.582,4 56.563,4C56.543,4 56.523,4 56.503,4C56.484,4 56.464,4 56.444,4C56.425,4 56.405,4 56.386,4C56.366,4 56.346,4 56.327,4C56.307,4 56.288,4 56.268,4C56.249,4 56.229,4 56.21,4C56.191,4 56.171,4 56.152,4C56.132,4 56.113,4 56.094,4C56.074,4 56.055,4 56.036,4C56.016,4 55.997,4 55.978,4C55.958,4 55.939,4 55.92,4C55.901,4 55.882,4 55.862,4C55.843,4 55.824,4 55.805,4C55.786,4 55.767,4 55.748,4C55.729,4 55.71,4 55.691,4C55.672,4 55.653,4 55.634,4C55.615,4 55.596,4 55.577,4C55.558,4 55.539,4 55.52,4C55.501,4 55.483,4 55.464,4C55.445,4 55.426,4 55.408,4C55.389,4 55.37,4 55.351,4C55.333,4 55.314,4 55.295,4C55.277,4 55.258,4 55.239,4C55.221,4 55.202,4 55.184,4C55.165,4 55.147,4 55.128,4C55.11,4 55.091,4 55.073,4C55.054,4 55.036,4 55.018,4C54.999,4 54.981,4 54.962,4C54.944,4 54.926,4 54.908,4C54.889,4 54.871,4 54.853,4C54.835,4 54.816,4 54.798,4C54.78,4 54.762,4 54.744,4C54.726,4 54.708,4 54.69,4C54.672,4 54.654,4 54.636,4C54.618,4 54.6,4 54.582,4C54.564,4 54.546,4 54.528,4C54.51,4 54.492,4 54.474,4C54.457,4 54.439,4 54.421,4C54.403,4 54.385,4 54.368,4C54.35,4 54.332,4 54.315,4C54.297,4 54.279,4 54.262,4C54.244,4 54.227,4 54.209,4C54.192,4 54.174,4 54.157,4C54.139,4 54.122,4 54.104,4C54.087,4 54.07,4 54.052,4C54.035,4 54.017,4 54,4C53.983,4 53.966,4 53.948,4C53.931,4 53.914,4 53.897,4C53.88,4 53.862,4 53.845,4C53.828,4 53.811,4 53.794,4C53.777,4 53.76,4 53.743,4C53.726,4 53.709,4 53.692,4C53.675,4 53.658,4 53.642,4C53.625,4 53.608,4 53.591,4C53.574,4 53.557,4 53.541,4C53.524,4 53.507,4 53.491,4C53.474,4 53.457,4 53.441,4C53.424,4 53.408,4 53.391,4C53.374,4 53.358,4 53.341,4C53.325,4 53.309,4 53.292,4C53.276,4 53.259,4 53.243,4C53.227,4 53.21,4 53.194,4C53.178,4 53.162,4 53.145,4C53.129,4 53.113,4 53.097,4C53.081,4 53.065,4 53.048,4C53.032,4 53.016,4 53,4C52.984,4 52.968,4 52.952,4C52.936,4 52.92,4 52.905,4C52.889,4 52.873,4 52.857,4L52.857,6C52.873,6 52.889,6 52.905,6C52.92,6 52.936,6 52.952,6C52.968,6 52.984,6 53,6C53.016,6 53.032,6 53.048,6C53.065,6 53.081,6 53.097,6C53.113,6 53.129,6 53.145,6C53.162,6 53.178,6 53.194,6C53.21,6 53.227,6 53.243,6C53.259,6 53.276,6 53.292,6C53.309,6 53.325,6 53.341,6C53.358,6 53.374,6 53.391,6C53.408,6 53.424,6 53.441,6C53.457,6 53.474,6 53.491,6C53.507,6 53.524,6 53.541,6C53.557,6 53.574,6 53.591,6C53.608,6 53.625,6 53.642,6C53.658,6 53.675,6 53.692,6C53.709,6 53.726,6 53.743,6C53.76,6 53.777,6 53.794,6C53.811,6 53.828,6 53.845,6C53.862,6 53.88,6 53.897,6C53.914,6 53.931,6 53.948,6C53.966,6 53.983,6 54,6C54.017,6 54.035,6 54.052,6C54.07,6 54.087,6 54.104,6C54.122,6 54.139,6 54.157,6C54.174,6 54.192,6 54.209,6C54.227,6 54.244,6 54.262,6C54.279,6 54.297,6 54.315,6C54.332,6 54.35,6 54.368,6C54.385,6 54.403,6 54.421,6C54.439,6 54.457,6 54.474,6C54.492,6 54.51,6 54.528,6C54.546,6 54.564,6 54.582,6C54.6,6 54.618,6 54.636,6C54.654,6 54.672,6 54.69,6C54.708,6 54.726,6 54.744,6C54.762,6 54.78,6 54.798,6C54.816,6 54.835,6 54.853,6C54.871,6 54.889,6 54.908,6C54.926,6 54.944,6 54.962,6C54.981,6 54.999,6 55.018,6C55.036,6 55.054,6 55.073,6C55.091,6 55.11,6 55.128,6C55.147,6 55.165,6 55.184,6C55.202,6 55.221,6 55.239,6C55.258,6 55.277,6 55.295,6C55.314,6 55.333,6 55.351,6C55.37,6 55.389,6 55.408,6C55.426,6 55.445,6 55.464,6C55.483,6 55.501,6 55.52,6C55.539,6 55.558,6 55.577,6C55.596,6 55.615,6 55.634,6C55.653,6 55.672,6 55.691,6C55.71,6 55.729,6 55.748,6C55.767,6 55.786,6 55.805,6C55.824,6 55.843,6 55.862,6C55.882,6 55.901,6 55.92,6C55.939,6 55.958,6 55.978,6C55.997,6 56.016,6 56.036,6C56.055,6 56.074,6 56.094,6C56.113,6 56.132,6 56.152,6C56.171,6 56.191,6 56.21,6C56.229,6 56.249,6 56.268,6C56.288,6 56.307,6 56.327,6C56.346,6 56.366,6 56.386,6C56.405,6 56.425,6 56.444,6C56.464,6 56.484,6 56.503,6C56.523,6 56.543,6 56.563,6C56.582,6 56.602,6 56.622,6C56.642,6 56.661,6 56.681,6C56.701,6 56.721,6 56.741,6C56.76,6 56.78,6 56.8,6C56.82,6 56.84,6 56.86,6C56.88,6 56.9,6 56.92,6C56.94,6 56.96,6 56.98,6C57,6 57.02,6 57.04,6C57.06,6 57.08,6 57.1,6C57.12,6 57.141,6 57.161,6C57.181,6 57.201,6 57.221,6C57.242,6 57.262,6 57.282,6C57.302,6 57.322,6 57.343,6C57.363,6 57.383,6 57.404,6C57.424,6 57.444,6 57.465,6C57.485,6 57.505,6 57.526,6C57.546,6 57.567,6 57.587,6C57.608,6 57.628,6 57.648,6C57.669,6 57.689,6 57.71,6C57.731,6 57.751,6 57.772,6C57.792,6 57.813,6 57.833,6C57.854,6 57.875,6 57.895,6C57.916,6 57.936,6 57.957,6C57.978,6 57.998,6 58.019,6C58.04,6 58.061,6 58.081,6C58.102,6 58.123,6 58.144,6C58.164,6 58.185,6 58.206,6C58.227,6 58.248,6 58.269,6C58.289,6 58.31,6 58.331,6C58.352,6 58.373,6 58.394,6C58.415,6 58.436,6 58.457,6C58.478,6 58.499,6 58.52,6C58.541,6 58.562,6 58.583,6C58.604,6 58.625,6 58.646,6C58.667,6 58.688,6 58.709,6C58.73,6 58.751,6 58.772,6C58.794,6 58.815,6 58.836,6C58.857,6 58.878,6 58.899,6C58.921,6 58.942,6 58.963,6C58.984,6 59.005,6 59.027,6C59.048,6 59.069,6 59.091,6C59.112,6 59.133,6 59.154,6C59.176,6 59.197,6 59.218,6C59.24,6 59.261,6 59.283,6C59.304,6 59.325,6 59.347,6C59.368,6 59.39,6 59.411,6C59.432,6 59.454,6 59.475,6C59.497,6 59.518,6 59.54,6C59.561,6 59.583,6 59.604,6C59.626,6 59.647,6 59.669,6C59.691,6 59.712,6 59.734,6C59.755,6 59.777,6 59.799,6C59.82,6 59.842,6 59.863,6C59.885,6 59.907,6 59.928,6C59.95,6 59.972,6 59.993,6C60.015,6 60.037,6 60.059,6C60.08,6 60.102,6 60.124,6C60.146,6 60.167,6 60.189,6C60.211,6 60.233,6 60.254,6C60.276,6 60.298,6 60.32,6C60.342,6 60.364,6 60.385,6C60.407,6 60.429,6 60.451,6C60.473,6 60.495,6 60.517,6C60.538,6 60.56,6 60.582,6C60.604,6 60.626,6 60.648,6C60.67,6 60.692,6 60.714,6C60.736,6 60.758,6 60.78,6C60.802,6 60.824,6 60.846,6C60.868,6 60.89,6 60.912,6C60.934,6 60.956,6 60.978,6C61,6 61.022,6 61.044,6C61.066,6 61.088,6 61.111,6C61.133,6 61.155,6 61.177,6C61.199,6 61.221,6 61.243,6C61.265,6 61.288,6 61.31,6C61.332,6 61.354,6 61.376,6C61.398,6 61.421,6 61.443,6C61.465,6 61.487,6 61.509,6C61.532,6 61.554,6 61.576,6C61.598,6 61.621,6 61.643,6C61.665,6 61.687,6 61.71,6C61.732,6 61.754,6 61.776,6C61.799,6 61.821,6 61.843,6C61.866,6 61.888,6 61.91,6C61.933,6 61.955,6 61.977,6C62,6 62.022,6 62.044,6C62.067,6 62.089,6 62.111,6C62.134,6 62.156,6 62.179,6C62.201,6 62.223,6 62.246,6C62.268,6 62.291,6 62.313,6C62.335,6 62.358,6 62.38,6C62.403,6 62.425,6 62.448,6C62.47,6 62.493,6 62.515,6C62.537,6 62.56,6 62.582,6C62.605,6 62.627,6 62.65,6C62.672,6 62.695,6 62.717,6C62.74,6 62.762,6 62.785,6C62.807,6 62.83,6 62.852,6C62.875,6 62.898,6 62.92,6C62.943,6 62.965,6 62.988,6C63.01,6 63.033,6 63.055,6C63.078,6 63.1,6 63.123,6C63.146,6 63.168,6 63.191,6C63.213,6 63.236,6 63.259,6C63.281,6 63.304,6 63.326,6C63.349,6 63.372,6 63.394,6C63.417,6 63.439,6 63.462,6C63.485,6 63.507,6 63.53,6C63.553,6 63.575,6 63.598,6C63.62,6 63.643,6 63.666,6C63.688,6 63.711,6 63.734,6C63.756,6 63.779,6 63.802,6C63.824,6 63.847,6 63.87,6C63.892,6 63.915,6 63.938,6C63.96,6 63.983,6 64.006,6C64.028,6 64.051,6 64.074,6C64.097,6 64.119,6 64.142,6C64.165,6 64.187,6 64.21,6C64.233,6 64.255,6 64.278,6C64.301,6 64.324,6 64.346,6C64.369,6 64.392,6 64.414,6C64.437,6 64.46,6 64.483,6C64.505,6 64.528,6 64.551,6C64.573,6 64.596,6 64.619,6C64.642,6 64.664,6 64.687,6C64.71,6 64.733,6 64.755,6C64.778,6 64.801,6 64.823,6C64.846,6 64.869,6 64.892,6C64.914,6 64.937,6 64.96,6C64.983,6 65.005,6 65.028,6C65.051,6 65.074,6 65.096,6C65.119,6 65.142,6 65.165,6C65.187,6 65.21,6 65.233,6C65.256,6 65.278,6 65.301,6C65.324,6 65.347,6 65.369,6C65.392,6 65.415,6 65.438,6C65.46,6 65.483,6 65.506,6C65.529,6 65.551,6 65.574,6C65.597,6 65.62,6 65.642,6C65.665,6 65.688,6 65.71,6C65.733,6 65.756,6 65.779,6C65.801,6 65.824,6 65.847,6C65.87,6 65.892,6 65.915,6C65.938,6 65.961,6 65.983,6C66.006,6 66.029,6 66.051,6C66.074,6 66.097,6 66.12,6C66.142,6 66.165,6 66.188,6C66.211,6 66.233,6 66.256,6C66.279,6 66.301,6 66.324,6C66.347,6 66.37,6 66.392,6C66.415,6 66.438,6 66.46,6C66.483,6 66.506,6 66.528,6C66.551,6 66.574,6 66.596,6C66.619,6 66.642,6 66.665,6C66.687,6 66.71,6 66.733,6C66.755,6 66.778,6 66.801,6C66.823,6 66.846,6 66.869,6C66.891,6 66.914,6 66.936,6C66.959,6 66.982,6 67.004,6C67.027,6 67.05,6 67.072,6C67.095,6 67.118,6 67.14,6C67.163,6 67.185,6 67.208,6C67.231,6 67.253,6 67.276,6C67.299,6 67.321,6 67.344,6C67.366,6 67.389,6 67.411,6C67.434,6 67.457,6 67.479,6C67.502,6 67.524,6 67.547,6C67.569,6 67.592,6 67.615,6C67.637,6 67.66,6 67.682,6C67.705,6 67.727,6 67.75,6C67.772,6 67.795,6 67.817,6C67.84,6 67.862,6 67.885,6C67.907,6 67.93,6 67.952,6C67.975,6 67.997,6 68.02,6C68.042,6 68.065,6 68.087,6C68.11,6 68.132,6 68.155,6C68.177,6 68.2,6 68.222,6C68.244,6 68.267,6 68.289,6C68.312,6 68.334,6 68.357,6C68.379,6 68.401,6 68.424,6C68.446,6 68.469,6 68.491,6C68.513,6 68.536,6 68.558,6C68.58,6 68.603,6 68.625,6C68.647,6 68.67,6 68.692,6C68.714,6 68.737,6 68.759,6C68.781,6 68.804,6 68.826,6C68.848,6 68.87,6 68.893,6C68.915,6 68.937,6 68.96,6C68.982,6 69.004,6 69.026,6C69.049,6 69.071,6 69.093,6C69.115,6 69.137,6 69.16,6C69.182,6 69.204,6 69.226,6C69.248,6 69.271,6 69.293,6C69.315,6 69.337,6 69.359,6C69.381,6 69.403,6 69.426,6C69.448,6 69.47,6 69.492,6C69.514,6 69.536,6 69.558,6C69.58,6 69.602,6 69.624,6C69.646,6 69.668,6 69.691,6C69.713,6 69.735,6 69.757,6C69.779,6 69.801,6 69.823,6C69.845,6 69.867,6 69.889,6C69.911,6 69.932,6 69.954,6C69.976,6 69.998,6 70.02,6C70.042,6 70.064,6 70.086,6C70.108,6 70.13,6 70.152,6C70.174,6 70.195,6 70.217,6C70.239,6 70.261,6 70.283,6C70.305,6 70.326,6 70.348,6C70.37,6 70.392,6 70.414,6C70.435,6 70.457,6 70.479,6C70.501,6 70.522,6 70.544,6C70.566,6 70.587,6 70.609,6C70.631,6 70.653,6 70.674,6C70.696,6 70.718,6 70.739,6C70.761,6 70.783,6 70.804,6C70.826,6 70.847,6 70.869,6C70.891,6 70.912,6 70.934,6C70.955,6 70.977,6 70.998,6C71.02,6 71.041,6 71.063,6C71.084,6 71.106,6 71.127,6C71.149,6 71.17,6 71.192,6C71.213,6 71.235,6 71.256,6C71.277,6 71.299,6 71.32,6C71.342,6 71.363,6 71.384,6C71.406,6 71.427,6 71.448,6C71.47,6 71.491,6 71.512,6C71.534,6 71.555,6 71.576,6C71.597,6 71.619,6 71.64,6C71.661,6 71.682,6 71.703,6C71.725,6 71.746,6 71.767,6C71.788,6 71.809,6 71.83,6C71.852,6 71.873,6 71.894,6C71.915,6 71.936,6 71.957,6C71.978,6 71.999,6 72.02,6C72.041,6 72.062,6 72.083,6C72.104,6 72.125,6 72.146,6C72.167,6 72.188,6 72.209,6C72.23,6 72.251,6 72.272,6C72.293,6 72.314,6 72.334,6C72.355,6 72.376,6 72.397,6C72.418,6 72.439,6 72.459,6C72.48,6 72.501,6 72.522,6C72.542,6 72.563,6 72.584,6C72.605,6 72.625,6 72.646,6C72.667,6 72.687,6 72.708,6C72.729,6 72.749,6 72.77,6C72.79,6 72.811,6 72.832,6C72.852,6 72.873,6 72.893,6C72.914,6 72.934,6 72.955,6C72.975,6 72.996,6 73.016,6C73.037,6 73.057,6 73.077,6C73.098,6 73.118,6 73.139,6C73.159,6 73.179,6 73.2,6C73.22,6 73.24,6 73.26,6C73.281,6 73.301,6 73.321,6C73.342,6 73.362,6 73.382,6C73.402,6 73.422,6 73.443,6C73.463,6 73.483,6 73.503,6C73.523,6 73.543,6 73.563,6C73.583,6 73.603,6 73.623,6C73.643,6 73.663,6 73.683,6C73.703,6 73.723,6 73.743,6C73.763,6 73.783,6 73.803,6C73.823,6 73.843,6 73.863,6C73.883,6 73.903,6 73.922,6C73.942,6 73.962,6 73.982,6C74.002,6 74.021,6 74.041,6C74.061,6 74.08,6 74.1,6C74.12,6 74.139,6 74.159,6C74.179,6 74.198,6 74.218,6C74.238,6 74.257,6 74.277,6C74.296,6 74.316,6 74.335,6C74.355,6 74.374,6 74.394,6C74.413,6 74.433,6 74.452,6C74.471,6 74.491,6 74.51,6C74.529,6 74.549,6 74.568,6C74.587,6 74.607,6 74.626,6C74.645,6 74.664,6 74.684,6C74.703,6 74.722,6 74.741,6C74.76,6 74.78,6 74.799,6C74.818,6 74.837,6 74.856,6C74.875,6 74.894,6 74.913,6C74.932,6 74.951,6 74.97,6C74.989,6 75.008,6 75.027,6C75.046,6 75.065,6 75.084,6C75.102,6 75.121,6 75.14,6C75.159,6 75.178,6 75.196,6C75.215,6 75.234,6 75.253,6C75.271,6 75.29,6 75.309,6C75.327,6 75.346,6 75.365,6C75.383,6 75.402,6 75.42,6C75.439,6 75.457,6 75.476,6C75.494,6 75.513,6 75.531,6C75.55,6 75.568,6 75.587,6C75.605,6 75.623,6 75.642,6C75.66,6 75.678,6 75.697,6C75.715,6 75.733,6 75.751,6C75.77,6 75.788,6 75.806,6C75.824,6 75.842,6 75.86,6C75.878,6 75.897,6 75.915,6C75.933,6 75.951,6 75.969,6C75.987,6 76.005,6 76.023,6C76.041,6 76.058,6 76.076,6C76.094,6 76.112,6 76.13,6C76.148,6 76.166,6 76.183,6C76.201,6 76.219,6 76.237,6C76.254,6 76.272,6 76.29,6C76.307,6 76.325,6 76.343,6C76.36,6 76.378,6 76.395,6C76.413,6 76.43,6 76.448,6C76.465,6 76.483,6 76.5,6C76.518,6 76.535,6 76.552,6C76.57,6 76.587,6 76.604,6C76.622,6 76.639,6 76.656,6C76.673,6 76.691,6 76.708,6C76.725,6 76.742,6 76.759,6C76.776,6 76.793,6 76.81,6C76.828,6 76.845,6 76.862,6C76.879,6 76.896,6 76.912,6C76.929,6 76.946,6 76.963,6C76.98,6 76.997,6 77.014,6C77.03,6 77.047,6 77.064,6C77.081,6 77.097,6 77.114,6C77.131,6 77.147,6 77.164,6C77.181,6 77.197,6 77.214,6C77.23,6 77.247,6 77.263,6C77.28,6 77.296,6 77.313,6C77.329,6 77.346,6 77.362,6C77.378,6 77.395,6 77.411,6C77.427,6 77.443,6 77.46,6C77.476,6 77.492,6 77.508,6C77.524,6 77.541,6 77.557,6C77.573,6 77.589,6 77.605,6C77.621,6 77.637,6 77.653,6C77.669,6 77.685,6 77.701,6C77.716,6 77.732,6 77.748,6C77.764,6 77.78,6 77.795,6C77.811,6 77.827,6 77.843,6C77.858,6 77.874,6 77.89,6C77.905,6 77.921,6 77.936,6C77.952,6 77.967,6 77.983,6C77.998,6 78.014,6 78.029,6C78.045,6 78.06,6 78.075,6C78.091,6 78.106,6 78.121,6C78.136,6 78.152,6 78.167,6C78.182,6 78.197,6 78.212,6C78.227,6 78.243,6 78.258,6C78.273,6 78.288,6 78.303,6C78.318,6 78.333,6 78.347,6C78.362,6 78.377,6 78.392,6C78.407,6 78.422,6 78.436,6C78.451,6 78.466,6 78.481,6C78.495,6 78.51,6 78.525,6C78.539,6 78.554,6 78.568,6C78.583,6 78.597,6 78.612,6C78.626,6 78.641,6 78.655,6C78.669,6 78.684,6 78.698,6C78.712,6 78.727,6 78.741,6C78.755,6 78.769,6 78.784,6C78.798,6 78.812,6 78.826,6C78.84,6 78.854,6 78.868,6C78.882,6 78.896,6 78.91,6C78.924,6 78.938,6 78.952,6C78.965,6 78.979,6 78.993,6C79.007,6 79.021,6 79.034,6C79.048,6 79.062,6 79.075,6C79.089,6 79.102,6 79.116,6C79.13,6 79.143,6 79.157,6C79.17,6 79.183,6 79.197,6C79.21,6 79.224,6 79.237,6C79.25,6 79.263,6 79.277,6C79.29,6 79.303,6 79.316,6C79.329,6 79.342,6 79.356,6C79.369,6 79.382,6 79.395,6C79.408,6 79.421,6 79.433,6C79.446,6 79.459,6 79.472,6C79.485,6 79.498,6 79.51,6C79.523,6 79.536,6 79.548,6C79.561,6 79.574,6 79.586,6C79.599,6 79.611,6 79.624,6C79.636,6 79.649,6 79.661,6C79.674,6 79.686,6 79.698,6C79.711,6 79.723,6 79.735,6C79.747,6 79.76,6 79.772,6C79.784,6 79.796,6 79.808,6C79.82,6 79.832,6 79.844,6C79.856,6 79.868,6 79.88,6C79.892,6 79.904,6 79.916,6C79.927,6 79.939,6 79.951,6C79.963,6 79.974,6 79.986,6C79.998,6 80.009,6 80.021,6C80.032,6 80.044,6 80.055,6C80.067,6 80.078,6 80.09,6C80.101,6 80.112,6 80.124,6C80.135,6 80.146,6 80.157,6C80.169,6 80.18,6 80.191,6C80.202,6 80.213,6 80.224,6C80.235,6 80.246,6 80.257,6C80.268,6 80.279,6 80.29,6C80.301,6 80.311,6 80.322,6C80.333,6 80.344,6 80.354,6C80.365,6 80.376,6 80.386,6C80.397,6 80.407,6 80.418,6C80.428,6 80.439,6 80.449,6C80.46,6 80.47,6 80.48,6C80.491,6 80.501,6 80.511,6C80.521,6 80.531,6 80.542,6C80.552,6 80.562,6 80.572,6C80.582,6 80.592,6 80.602,6C80.612,6 80.622,6 80.632,6C80.641,6 80.651,6 80.661,6C80.671,6 80.68,6 80.69,6C80.7,6 80.709,6 80.719,6C80.728,6 80.738,6 80.747,6C80.757,6 80.766,6 80.776,6C80.785,6 80.794,6 80.804,6C80.813,6 80.822,6 80.831,6C80.841,6 80.85,6 80.859,6C80.868,6 80.877,6 80.886,6C80.895,6 80.904,6 80.913,6C80.922,6 80.931,6 80.939,6C80.948,6 80.957,6 80.966,6C80.974,6 80.983,6 80.992,6C81,6 81.009,6 81.017,6C81.026,6 81.034,6 81.043,6C81.051,6 81.06,6 81.068,6C81.076,6 81.084,6 81.093,6C81.101,6 81.109,6 81.117,6C81.125,6 81.133,6 81.141,6C81.149,6 81.157,6 81.165,6C81.173,6 81.181,6 81.189,6C81.197,6 81.204,6 81.212,6C81.22,6 81.228,6 81.235,6C81.243,6 81.25,6 81.258,6C81.265,6 81.273,6 81.28,6C81.288,6 81.295,6 81.302,6C81.31,6 81.317,6 81.324,6C81.331,6 81.339,6 81.346,6C81.353,6 81.36,6 81.367,6C81.374,6 81.381,6 81.388,6C81.395,6 81.401,6 81.408,6C81.415,6 81.422,6 81.428,6L81.428,4ZM52.857,4C51.328,4 49.532,4.229 47.802,5.382C46.075,6.534 44.538,8.524 43.346,11.801L45.225,12.485C46.319,9.477 47.639,7.895 48.912,7.046C50.182,6.199 51.529,6 52.857,6L52.857,4Z" fill="#5E80C9"/>
<path d="M5.014,90.715C4.62,91.102 4.614,91.735 5.001,92.129C5.387,92.523 6.02,92.529 6.415,92.142L5.014,90.715ZM82.209,92.19C82.629,92.548 83.26,92.498 83.618,92.077C83.977,91.657 83.926,91.026 83.506,90.668L82.209,92.19ZM6.415,92.142C12.629,86.045 23.022,78.753 36.107,76.63C49.142,74.515 64.982,77.505 82.209,92.19L83.506,90.668C65.875,75.638 49.454,72.438 35.786,74.656C22.169,76.866 11.418,84.431 5.014,90.715L6.415,92.142Z" fill="#5D7DC4"/>
<path d="M12.803,93.645C12.45,94.07 12.507,94.7 12.931,95.054C13.355,95.407 13.986,95.35 14.34,94.926L12.803,93.645ZM73.493,94.896C73.83,95.333 74.458,95.415 74.896,95.078C75.333,94.741 75.415,94.113 75.078,93.675L73.493,94.896ZM14.34,94.926C19.686,88.511 27.976,80.024 38.129,77.36C43.167,76.038 48.683,76.146 54.579,78.69C60.492,81.242 66.848,86.272 73.493,94.896L75.078,93.675C68.294,84.871 61.686,79.579 55.371,76.854C49.04,74.122 43.064,73.998 37.621,75.426C26.81,78.262 18.171,87.204 12.803,93.645L14.34,94.926Z" fill="#5D7DC4"/>
<path d="M27.631,96.801C27.443,97.32 27.711,97.894 28.23,98.083C28.749,98.271 29.322,98.004 29.511,97.485L27.631,96.801ZM59.791,97.527C60.003,98.037 60.588,98.278 61.098,98.066C61.608,97.854 61.849,97.269 61.637,96.759L59.791,97.527ZM29.511,97.485C31.645,91.618 33.841,86.696 36.131,83.114C38.446,79.49 40.728,77.442 42.949,76.951C45.062,76.483 47.507,77.36 50.382,80.619C53.258,83.878 56.389,89.341 59.791,97.527L61.637,96.759C58.207,88.506 54.976,82.803 51.882,79.296C48.789,75.791 45.66,74.303 42.517,74.998C39.482,75.67 36.825,78.313 34.445,82.037C32.04,85.801 29.784,90.882 27.631,96.801L29.511,97.485Z" fill="#5D7DC4"/>
<line x1="43.286" y1="75.714" x2="43.286" y2="99.286" stroke="#5D7DC4" stroke-width="1" stroke-miterlimit="3.999327" stroke-linecap="round"/>
<path d="M9.726,87.674C9.23,87.431 8.631,87.635 8.388,88.131C8.145,88.627 8.35,89.226 8.845,89.469L9.726,87.674ZM79.733,89.466C80.227,89.219 80.427,88.618 80.18,88.124C79.933,87.63 79.332,87.43 78.838,87.677L79.733,89.466ZM8.845,89.469C21.141,95.497 50.776,103.944 79.733,89.466L78.838,87.677C50.652,101.77 21.716,93.551 9.726,87.674L8.845,89.469Z" fill="#5D7DC4"/>
<path d="M23.123,79.036C22.59,78.889 22.04,79.202 21.893,79.734C21.746,80.266 22.059,80.817 22.591,80.964L23.123,79.036ZM65.242,80.97C65.778,80.836 66.104,80.293 65.97,79.757C65.836,79.222 65.293,78.896 64.757,79.03L65.242,80.97ZM22.591,80.964C29.615,82.902 46.748,85.594 65.242,80.97L64.757,79.03C46.68,83.549 29.908,80.908 23.123,79.036L22.591,80.964Z" fill="#5D7DC4"/>
<path d="M17.045,19.479L11.027,11.979L16.648,9.872L17.045,19.479Z" fill="#5F83CF"/>
<path d="M15.488,21.408L5.877,21.096L7.934,15.457L15.488,21.408Z" fill="#5F83CF"/>
<path d="M20.388,19.479L26.405,11.979L20.785,9.872L20.388,19.479Z" fill="#5F83CF"/>
<path d="M21.945,21.408L31.556,21.096L29.498,15.457L21.945,21.408Z" fill="#5F83CF"/>
<path d="M17.045,25.664L11.027,33.164L16.648,35.272L17.045,25.664Z" fill="#5F83CF"/>
<path d="M15.488,23.735L5.877,24.047L7.934,29.686L15.488,23.735Z" fill="#5F83CF"/>
<path d="M20.388,25.664L26.405,33.164L20.785,35.272L20.388,25.664Z" fill="#5F83CF"/>
<path d="M21.945,23.735L31.556,24.047L29.498,29.686L21.945,23.735Z" fill="#5F83CF"/>
<path d="M18.571,27.143C20.938,27.143 22.857,25.224 22.857,22.857C22.857,20.49 20.938,18.572 18.571,18.572C16.204,18.572 14.286,20.49 14.286,22.857C14.286,25.224 16.204,27.143 18.571,27.143Z" fill="#5F83CF"/>
</svg>
