<svg width="90" height="100" viewBox="0 0 90 100" fill="none" xmlns="http://www.w3.org/2000/svg" xmlns:xlink="http://www.w3.org/1999/xlink">
<path d="M47.858,23.571C49.83,23.571 51.429,25.17 51.429,27.143L51.429,70C51.429,71.972 49.83,73.571 47.858,73.571C45.885,73.571 44.286,71.972 44.286,70L44.286,27.143C44.286,25.17 45.885,23.571 47.858,23.571Z" clip-rule="evenodd" fill-rule="evenodd" fill="#FFFFFF"/>
<path d="M78.571,43.571C80.544,43.571 82.143,45.17 82.143,47.143L82.143,69.285C82.143,71.258 80.544,72.857 78.571,72.857C76.599,72.857 75,71.258 75,69.285L75,47.143C75,45.17 76.599,43.571 78.571,43.571Z" clip-rule="evenodd" fill-rule="evenodd" fill="#FFFFFF"/>
<path d="M62.858,43.571C64.83,43.571 66.429,45.17 66.429,47.143L66.429,69.285C66.429,71.258 64.83,72.857 62.858,72.857C60.885,72.857 59.286,71.258 59.286,69.285L59.286,47.143C59.286,45.17 60.885,43.571 62.858,43.571Z" clip-rule="evenodd" fill-rule="evenodd" fill="#FFFFFF"/>
<path d="M32.858,43.571C34.83,43.571 36.429,45.17 36.429,47.143L36.429,69.285C36.429,71.258 34.83,72.857 32.858,72.857C30.885,72.857 29.286,71.258 29.286,69.285L29.286,47.143C29.286,45.17 30.885,43.571 32.858,43.571Z" clip-rule="evenodd" fill-rule="evenodd" fill="#FFFFFF"/>
<path d="M47.473,24.739C48.011,25.316 47.98,26.22 47.403,26.759L4.546,66.758C3.969,67.297 3.065,67.266 2.527,66.689C1.988,66.112 2.02,65.208 2.596,64.67L45.714,24.286C46.291,23.747 46.934,24.163 47.473,24.739Z" clip-rule="evenodd" fill-rule="evenodd" fill="#FFFFFF"/>
<path d="M78.204,44.757C78.732,45.343 78.686,46.246 78.1,46.775L50,72.857C49.414,73.385 47.325,73.685 46.797,73.1C46.268,72.514 46.314,71.611 46.9,71.082L76.429,44.286C77.015,43.757 77.675,44.171 78.204,44.757Z" clip-rule="evenodd" fill-rule="evenodd" fill="#FFFFFF"/>
<path d="M62.491,44.758C63.018,45.345 62.971,46.248 62.385,46.776L35,72.143C34.414,72.671 32.323,72.971 31.795,72.384C31.268,71.798 31.315,70.894 31.902,70.367L60.715,44.286C61.301,43.758 61.963,44.172 62.491,44.758Z" clip-rule="evenodd" fill-rule="evenodd" fill="#FFFFFF"/>
<path d="M32.438,44.704C32.996,45.262 32.996,46.166 32.438,46.724L28.153,51.01C27.595,51.568 26.69,51.568 26.132,51.01C25.574,50.452 25.574,49.547 26.132,48.99L30,45C30.557,44.442 31.88,44.146 32.438,44.704Z" clip-rule="evenodd" fill-rule="evenodd" fill="#FFFFFF"/>
<path d="M86.83,64.822C87.323,65.438 87.223,66.337 86.607,66.83L80.714,72.143C80.098,72.636 77.949,72.937 77.456,72.321C76.963,71.705 77.063,70.806 77.679,70.313L84.822,64.599C85.438,64.106 86.337,64.206 86.83,64.822Z" clip-rule="evenodd" fill-rule="evenodd" fill="#FFFFFF"/>
<path d="M71.116,64.822C71.609,65.438 71.509,66.337 70.893,66.83L65,72.143C64.384,72.636 62.235,72.937 61.742,72.321C61.249,71.705 61.349,70.806 61.965,70.313L69.108,64.599C69.724,64.106 70.623,64.206 71.116,64.822Z" clip-rule="evenodd" fill-rule="evenodd" fill="#FFFFFF"/>
<path d="M62.932,22.957C62.593,22.521 61.965,22.443 61.529,22.782C61.093,23.121 61.014,23.749 61.353,24.185L62.932,22.957ZM61.353,35.814C61.014,36.25 61.093,36.879 61.529,37.218C61.965,37.557 62.593,37.478 62.932,37.042L61.353,35.814ZM61.353,24.185C62.88,26.148 64.953,31.187 61.353,35.814L62.932,37.042C67.332,31.385 64.739,25.28 62.932,22.957L61.353,24.185Z" fill="#FFFFFF"/>
<path d="M69.361,22.957C69.022,22.521 68.393,22.443 67.957,22.782C67.521,23.121 67.443,23.749 67.782,24.185L69.361,22.957ZM67.782,35.814C67.443,36.25 67.521,36.879 67.957,37.218C68.393,37.557 69.022,37.478 69.361,37.042L67.782,35.814ZM67.782,24.185C69.309,26.148 71.381,31.187 67.782,35.814L69.361,37.042C73.761,31.385 71.167,25.28 69.361,22.957L67.782,24.185Z" fill="#FFFFFF"/>
<path d="M75.075,22.957C74.736,22.521 74.108,22.443 73.672,22.782C73.236,23.121 73.158,23.749 73.497,24.185L75.075,22.957ZM73.497,35.814C73.158,36.25 73.236,36.879 73.672,37.218C74.108,37.557 74.736,37.478 75.075,37.042L73.497,35.814ZM73.497,24.185C75.023,26.148 77.096,31.187 73.497,35.814L75.075,37.042C79.476,31.385 76.882,25.28 75.075,22.957L73.497,24.185Z" fill="#FFFFFF"/>
<path d="M1.663,0.398C1.488,-0.126 0.922,-0.409 0.398,-0.234C-0.126,-0.06 -0.409,0.507 -0.235,1.031L1.663,0.398ZM43.345,12.485C43.534,13.004 44.108,13.271 44.627,13.083C45.146,12.894 45.414,12.32 45.225,11.801L43.345,12.485ZM-0.235,1.031C0.05,1.884 0.704,3.101 1.775,4.118C2.864,5.151 4.41,6 6.428,6L6.428,4C5.018,4 3.945,3.42 3.152,2.668C2.343,1.899 1.854,0.973 1.663,0.398L-0.235,1.031ZM6.428,6C6.435,6 6.442,6 6.448,6C6.455,6 6.462,6 6.469,6C6.476,6 6.483,6 6.49,6C6.497,6 6.504,6 6.511,6C6.518,6 6.525,6 6.532,6C6.54,6 6.547,6 6.554,6C6.562,6 6.569,6 6.576,6C6.584,6 6.591,6 6.599,6C6.606,6 6.614,6 6.621,6C6.629,6 6.637,6 6.644,6C6.652,6 6.66,6 6.668,6C6.676,6 6.683,6 6.691,6C6.699,6 6.707,6 6.715,6C6.723,6 6.731,6 6.739,6C6.748,6 6.756,6 6.764,6C6.772,6 6.78,6 6.789,6C6.797,6 6.805,6 6.814,6C6.822,6 6.831,6 6.839,6C6.848,6 6.856,6 6.865,6C6.874,6 6.882,6 6.891,6C6.9,6 6.908,6 6.917,6C6.926,6 6.935,6 6.944,6C6.953,6 6.962,6 6.971,6C6.98,6 6.989,6 6.998,6C7.007,6 7.016,6 7.025,6C7.034,6 7.044,6 7.053,6C7.062,6 7.071,6 7.081,6C7.09,6 7.1,6 7.109,6C7.119,6 7.128,6 7.138,6C7.147,6 7.157,6 7.167,6C7.176,6 7.186,6 7.196,6C7.205,6 7.215,6 7.225,6C7.235,6 7.245,6 7.255,6C7.265,6 7.275,6 7.285,6C7.295,6 7.305,6 7.315,6C7.325,6 7.335,6 7.346,6C7.356,6 7.366,6 7.376,6C7.387,6 7.397,6 7.407,6C7.418,6 7.428,6 7.439,6C7.449,6 7.46,6 7.47,6C7.481,6 7.492,6 7.502,6C7.513,6 7.524,6 7.534,6C7.545,6 7.556,6 7.567,6C7.578,6 7.589,6 7.599,6C7.61,6 7.621,6 7.632,6C7.643,6 7.655,6 7.666,6C7.677,6 7.688,6 7.699,6C7.71,6 7.722,6 7.733,6C7.744,6 7.756,6 7.767,6C7.778,6 7.79,6 7.801,6C7.813,6 7.824,6 7.836,6C7.847,6 7.859,6 7.871,6C7.882,6 7.894,6 7.906,6C7.917,6 7.929,6 7.941,6C7.953,6 7.965,6 7.977,6C7.988,6 8,6 8.012,6C8.024,6 8.036,6 8.048,6C8.061,6 8.073,6 8.085,6C8.097,6 8.109,6 8.121,6C8.134,6 8.146,6 8.158,6C8.171,6 8.183,6 8.195,6C8.208,6 8.22,6 8.233,6C8.245,6 8.258,6 8.27,6C8.283,6 8.296,6 8.308,6C8.321,6 8.334,6 8.346,6C8.359,6 8.372,6 8.385,6C8.397,6 8.41,6 8.423,6C8.436,6 8.449,6 8.462,6C8.475,6 8.488,6 8.501,6C8.514,6 8.527,6 8.54,6C8.554,6 8.567,6 8.58,6C8.593,6 8.606,6 8.62,6C8.633,6 8.646,6 8.66,6C8.673,6 8.687,6 8.7,6C8.714,6 8.727,6 8.741,6C8.754,6 8.768,6 8.781,6C8.795,6 8.809,6 8.822,6C8.836,6 8.85,6 8.864,6C8.877,6 8.891,6 8.905,6C8.919,6 8.933,6 8.947,6C8.961,6 8.975,6 8.989,6C9.003,6 9.017,6 9.031,6C9.045,6 9.059,6 9.073,6C9.087,6 9.101,6 9.116,6C9.13,6 9.144,6 9.159,6C9.173,6 9.187,6 9.202,6C9.216,6 9.23,6 9.245,6C9.259,6 9.274,6 9.288,6C9.303,6 9.317,6 9.332,6C9.347,6 9.361,6 9.376,6C9.391,6 9.405,6 9.42,6C9.435,6 9.45,6 9.465,6C9.479,6 9.494,6 9.509,6C9.524,6 9.539,6 9.554,6C9.569,6 9.584,6 9.599,6C9.614,6 9.629,6 9.644,6C9.659,6 9.675,6 9.69,6C9.705,6 9.72,6 9.735,6C9.751,6 9.766,6 9.781,6C9.797,6 9.812,6 9.827,6C9.843,6 9.858,6 9.874,6C9.889,6 9.905,6 9.92,6C9.936,6 9.951,6 9.967,6C9.983,6 9.998,6 10.014,6C10.03,6 10.045,6 10.061,6C10.077,6 10.093,6 10.109,6C10.124,6 10.14,6 10.156,6C10.172,6 10.188,6 10.204,6C10.22,6 10.236,6 10.252,6C10.268,6 10.284,6 10.3,6C10.316,6 10.332,6 10.348,6C10.365,6 10.381,6 10.397,6C10.413,6 10.429,6 10.446,6C10.462,6 10.478,6 10.495,6C10.511,6 10.527,6 10.544,6C10.56,6 10.577,6 10.593,6C10.61,6 10.626,6 10.643,6C10.659,6 10.676,6 10.693,6C10.709,6 10.726,6 10.742,6C10.759,6 10.776,6 10.793,6C10.809,6 10.826,6 10.843,6C10.86,6 10.877,6 10.893,6C10.91,6 10.927,6 10.944,6C10.961,6 10.978,6 10.995,6C11.012,6 11.029,6 11.046,6C11.063,6 11.08,6 11.097,6C11.115,6 11.132,6 11.149,6C11.166,6 11.183,6 11.2,6C11.218,6 11.235,6 11.252,6C11.27,6 11.287,6 11.304,6C11.322,6 11.339,6 11.356,6C11.374,6 11.391,6 11.409,6C11.426,6 11.444,6 11.461,6C11.479,6 11.496,6 11.514,6C11.532,6 11.549,6 11.567,6C11.585,6 11.602,6 11.62,6C11.638,6 11.655,6 11.673,6C11.691,6 11.709,6 11.727,6C11.744,6 11.762,6 11.78,6C11.798,6 11.816,6 11.834,6C11.852,6 11.87,6 11.888,6C11.906,6 11.924,6 11.942,6C11.96,6 11.978,6 11.996,6C12.014,6 12.033,6 12.051,6C12.069,6 12.087,6 12.105,6C12.124,6 12.142,6 12.16,6C12.178,6 12.197,6 12.215,6C12.233,6 12.252,6 12.27,6C12.288,6 12.307,6 12.325,6C12.344,6 12.362,6 12.381,6C12.399,6 12.418,6 12.436,6C12.455,6 12.473,6 12.492,6C12.511,6 12.529,6 12.548,6C12.567,6 12.585,6 12.604,6C12.623,6 12.641,6 12.66,6C12.679,6 12.698,6 12.717,6C12.735,6 12.754,6 12.773,6C12.792,6 12.811,6 12.83,6C12.849,6 12.868,6 12.887,6C12.906,6 12.925,6 12.944,6C12.963,6 12.982,6 13.001,6C13.02,6 13.039,6 13.058,6C13.077,6 13.096,6 13.115,6C13.135,6 13.154,6 13.173,6C13.192,6 13.211,6 13.231,6C13.25,6 13.269,6 13.289,6C13.308,6 13.327,6 13.347,6C13.366,6 13.385,6 13.405,6C13.424,6 13.444,6 13.463,6C13.482,6 13.502,6 13.521,6C13.541,6 13.56,6 13.58,6C13.6,6 13.619,6 13.639,6C13.658,6 13.678,6 13.698,6C13.717,6 13.737,6 13.757,6C13.776,6 13.796,6 13.816,6C13.835,6 13.855,6 13.875,6C13.895,6 13.914,6 13.934,6C13.954,6 13.974,6 13.994,6C14.014,6 14.034,6 14.053,6C14.073,6 14.093,6 14.113,6C14.133,6 14.153,6 14.173,6C14.193,6 14.213,6 14.233,6C14.253,6 14.273,6 14.293,6C14.313,6 14.334,6 14.354,6C14.374,6 14.394,6 14.414,6C14.434,6 14.454,6 14.475,6C14.495,6 14.515,6 14.535,6C14.556,6 14.576,6 14.596,6C14.616,6 14.637,6 14.657,6C14.677,6 14.698,6 14.718,6C14.738,6 14.759,6 14.779,6C14.8,6 14.82,6 14.841,6C14.861,6 14.881,6 14.902,6C14.922,6 14.943,6 14.963,6C14.984,6 15.005,6 15.025,6C15.046,6 15.066,6 15.087,6C15.107,6 15.128,6 15.149,6C15.169,6 15.19,6 15.211,6C15.231,6 15.252,6 15.273,6C15.293,6 15.314,6 15.335,6C15.356,6 15.376,6 15.397,6C15.418,6 15.439,6 15.46,6C15.48,6 15.501,6 15.522,6C15.543,6 15.564,6 15.585,6C15.606,6 15.627,6 15.648,6C15.668,6 15.689,6 15.71,6C15.731,6 15.752,6 15.773,6C15.794,6 15.815,6 15.836,6C15.857,6 15.878,6 15.9,6C15.921,6 15.942,6 15.963,6C15.984,6 16.005,6 16.026,6C16.047,6 16.068,6 16.09,6C16.111,6 16.132,6 16.153,6C16.174,6 16.196,6 16.217,6C16.238,6 16.259,6 16.281,6C16.302,6 16.323,6 16.344,6C16.366,6 16.387,6 16.408,6C16.43,6 16.451,6 16.472,6C16.494,6 16.515,6 16.536,6C16.558,6 16.579,6 16.601,6C16.622,6 16.643,6 16.665,6C16.686,6 16.708,6 16.729,6C16.751,6 16.772,6 16.794,6C16.815,6 16.837,6 16.858,6C16.88,6 16.901,6 16.923,6C16.945,6 16.966,6 16.988,6C17.009,6 17.031,6 17.052,6C17.074,6 17.096,6 17.117,6C17.139,6 17.161,6 17.182,6C17.204,6 17.226,6 17.247,6C17.269,6 17.291,6 17.313,6C17.334,6 17.356,6 17.378,6C17.4,6 17.421,6 17.443,6C17.465,6 17.487,6 17.508,6C17.53,6 17.552,6 17.574,6C17.596,6 17.618,6 17.639,6C17.661,6 17.683,6 17.705,6C17.727,6 17.749,6 17.771,6C17.793,6 17.814,6 17.836,6C17.858,6 17.88,6 17.902,6C17.924,6 17.946,6 17.968,6C17.99,6 18.012,6 18.034,6C18.056,6 18.078,6 18.1,6C18.122,6 18.144,6 18.166,6C18.188,6 18.21,6 18.232,6C18.254,6 18.276,6 18.298,6C18.321,6 18.343,6 18.365,6C18.387,6 18.409,6 18.431,6C18.453,6 18.475,6 18.497,6C18.52,6 18.542,6 18.564,6C18.586,6 18.608,6 18.63,6C18.653,6 18.675,6 18.697,6C18.719,6 18.741,6 18.764,6C18.786,6 18.808,6 18.83,6C18.853,6 18.875,6 18.897,6C18.919,6 18.942,6 18.964,6C18.986,6 19.008,6 19.031,6C19.053,6 19.075,6 19.098,6C19.12,6 19.142,6 19.165,6C19.187,6 19.209,6 19.232,6C19.254,6 19.276,6 19.299,6C19.321,6 19.343,6 19.366,6C19.388,6 19.41,6 19.433,6C19.455,6 19.478,6 19.5,6C19.522,6 19.545,6 19.567,6C19.59,6 19.612,6 19.635,6C19.657,6 19.679,6 19.702,6C19.724,6 19.747,6 19.769,6C19.792,6 19.814,6 19.837,6C19.859,6 19.882,6 19.904,6C19.927,6 19.949,6 19.972,6C19.994,6 20.017,6 20.039,6C20.062,6 20.084,6 20.107,6C20.129,6 20.152,6 20.174,6C20.197,6 20.219,6 20.242,6C20.265,6 20.287,6 20.31,6C20.332,6 20.355,6 20.377,6C20.4,6 20.423,6 20.445,6C20.468,6 20.49,6 20.513,6C20.535,6 20.558,6 20.581,6C20.603,6 20.626,6 20.649,6C20.671,6 20.694,6 20.716,6C20.739,6 20.762,6 20.784,6C20.807,6 20.829,6 20.852,6C20.875,6 20.897,6 20.92,6C20.943,6 20.965,6 20.988,6C21.011,6 21.033,6 21.056,6C21.079,6 21.101,6 21.124,6C21.147,6 21.169,6 21.192,6C21.215,6 21.237,6 21.26,6C21.283,6 21.305,6 21.328,6C21.351,6 21.374,6 21.396,6C21.419,6 21.442,6 21.464,6C21.487,6 21.51,6 21.532,6C21.555,6 21.578,6 21.601,6C21.623,6 21.646,6 21.669,6C21.691,6 21.714,6 21.737,6C21.76,6 21.782,6 21.805,6C21.828,6 21.851,6 21.873,6C21.896,6 21.919,6 21.941,6C21.964,6 21.987,6 22.01,6C22.032,6 22.055,6 22.078,6C22.101,6 22.123,6 22.146,6C22.169,6 22.192,6 22.214,6C22.237,6 22.26,6 22.283,6C22.305,6 22.328,6 22.351,6C22.373,6 22.396,6 22.419,6C22.442,6 22.464,6 22.487,6C22.51,6 22.533,6 22.555,6C22.578,6 22.601,6 22.624,6C22.646,6 22.669,6 22.692,6C22.715,6 22.737,6 22.76,6C22.783,6 22.806,6 22.828,6C22.851,6 22.874,6 22.897,6C22.919,6 22.942,6 22.965,6C22.988,6 23.01,6 23.033,6C23.056,6 23.079,6 23.101,6C23.124,6 23.147,6 23.169,6C23.192,6 23.215,6 23.238,6C23.26,6 23.283,6 23.306,6C23.329,6 23.351,6 23.374,6C23.397,6 23.419,6 23.442,6C23.465,6 23.488,6 23.51,6C23.533,6 23.556,6 23.578,6C23.601,6 23.624,6 23.647,6C23.669,6 23.692,6 23.715,6C23.737,6 23.76,6 23.783,6C23.805,6 23.828,6 23.851,6C23.874,6 23.896,6 23.919,6C23.942,6 23.964,6 23.987,6C24.01,6 24.032,6 24.055,6C24.078,6 24.1,6 24.123,6C24.146,6 24.168,6 24.191,6C24.213,6 24.236,6 24.259,6C24.281,6 24.304,6 24.327,6C24.349,6 24.372,6 24.395,6C24.417,6 24.44,6 24.462,6C24.485,6 24.508,6 24.53,6C24.553,6 24.575,6 24.598,6C24.621,6 24.643,6 24.666,6C24.688,6 24.711,6 24.734,6C24.756,6 24.779,6 24.801,6C24.824,6 24.846,6 24.869,6C24.891,6 24.914,6 24.937,6C24.959,6 24.982,6 25.004,6C25.027,6 25.049,6 25.072,6C25.094,6 25.117,6 25.139,6C25.162,6 25.184,6 25.207,6C25.229,6 25.252,6 25.274,6C25.297,6 25.319,6 25.342,6C25.364,6 25.386,6 25.409,6C25.431,6 25.454,6 25.476,6C25.499,6 25.521,6 25.544,6C25.566,6 25.588,6 25.611,6C25.633,6 25.656,6 25.678,6C25.7,6 25.723,6 25.745,6C25.767,6 25.79,6 25.812,6C25.835,6 25.857,6 25.879,6C25.902,6 25.924,6 25.946,6C25.969,6 25.991,6 26.013,6C26.036,6 26.058,6 26.08,6C26.102,6 26.125,6 26.147,6C26.169,6 26.191,6 26.214,6C26.236,6 26.258,6 26.28,6C26.303,6 26.325,6 26.347,6C26.369,6 26.392,6 26.414,6C26.436,6 26.458,6 26.48,6C26.503,6 26.525,6 26.547,6C26.569,6 26.591,6 26.613,6C26.635,6 26.658,6 26.68,6C26.702,6 26.724,6 26.746,6C26.768,6 26.79,6 26.812,6C26.834,6 26.856,6 26.878,6C26.901,6 26.923,6 26.945,6C26.967,6 26.989,6 27.011,6C27.033,6 27.055,6 27.077,6C27.099,6 27.121,6 27.143,6C27.165,6 27.187,6 27.208,6C27.23,6 27.252,6 27.274,6C27.296,6 27.318,6 27.34,6C27.362,6 27.384,6 27.406,6C27.428,6 27.449,6 27.471,6C27.493,6 27.515,6 27.537,6C27.559,6 27.58,6 27.602,6C27.624,6 27.646,6 27.668,6C27.689,6 27.711,6 27.733,6C27.755,6 27.776,6 27.798,6C27.82,6 27.841,6 27.863,6C27.885,6 27.907,6 27.928,6C27.95,6 27.971,6 27.993,6C28.015,6 28.036,6 28.058,6C28.08,6 28.101,6 28.123,6C28.144,6 28.166,6 28.188,6C28.209,6 28.231,6 28.252,6C28.274,6 28.295,6 28.317,6C28.338,6 28.36,6 28.381,6C28.403,6 28.424,6 28.446,6C28.467,6 28.488,6 28.51,6C28.531,6 28.553,6 28.574,6C28.595,6 28.617,6 28.638,6C28.659,6 28.681,6 28.702,6C28.723,6 28.745,6 28.766,6C28.787,6 28.809,6 28.83,6C28.851,6 28.872,6 28.894,6C28.915,6 28.936,6 28.957,6C28.978,6 29,6 29.021,6C29.042,6 29.063,6 29.084,6C29.105,6 29.126,6 29.148,6C29.169,6 29.19,6 29.211,6C29.232,6 29.253,6 29.274,6C29.295,6 29.316,6 29.337,6C29.358,6 29.379,6 29.4,6C29.421,6 29.442,6 29.463,6C29.484,6 29.505,6 29.525,6C29.546,6 29.567,6 29.588,6C29.609,6 29.63,6 29.651,6C29.671,6 29.692,6 29.713,6C29.734,6 29.754,6 29.775,6C29.796,6 29.817,6 29.837,6C29.858,6 29.879,6 29.899,6C29.92,6 29.941,6 29.961,6C29.982,6 30.003,6 30.023,6C30.044,6 30.064,6 30.085,6C30.106,6 30.126,6 30.147,6C30.167,6 30.188,6 30.208,6C30.229,6 30.249,6 30.269,6C30.29,6 30.31,6 30.331,6C30.351,6 30.372,6 30.392,6C30.412,6 30.433,6 30.453,6C30.473,6 30.494,6 30.514,6C30.534,6 30.554,6 30.575,6C30.595,6 30.615,6 30.635,6C30.655,6 30.676,6 30.696,6C30.716,6 30.736,6 30.756,6C30.776,6 30.796,6 30.816,6C30.837,6 30.857,6 30.877,6C30.897,6 30.917,6 30.937,6C30.957,6 30.977,6 30.997,6C31.017,6 31.036,6 31.056,6C31.076,6 31.096,6 31.116,6C31.136,6 31.156,6 31.175,6C31.195,6 31.215,6 31.235,6C31.255,6 31.274,6 31.294,6C31.314,6 31.334,6 31.353,6C31.373,6 31.393,6 31.412,6C31.432,6 31.451,6 31.471,6C31.491,6 31.51,6 31.53,6C31.549,6 31.569,6 31.588,6C31.608,6 31.627,6 31.647,6C31.666,6 31.686,6 31.705,6C31.724,6 31.744,6 31.763,6C31.782,6 31.802,6 31.821,6C31.84,6 31.86,6 31.879,6C31.898,6 31.917,6 31.937,6C31.956,6 31.975,6 31.994,6C32.013,6 32.032,6 32.051,6C32.071,6 32.09,6 32.109,6C32.128,6 32.147,6 32.166,6C32.185,6 32.204,6 32.223,6C32.242,6 32.261,6 32.28,6C32.299,6 32.317,6 32.336,6C32.355,6 32.374,6 32.393,6C32.412,6 32.43,6 32.449,6C32.468,6 32.487,6 32.505,6C32.524,6 32.543,6 32.561,6C32.58,6 32.599,6 32.617,6C32.636,6 32.654,6 32.673,6C32.691,6 32.71,6 32.728,6C32.747,6 32.765,6 32.784,6C32.802,6 32.821,6 32.839,6C32.857,6 32.876,6 32.894,6C32.912,6 32.931,6 32.949,6C32.967,6 32.986,6 33.004,6C33.022,6 33.04,6 33.058,6C33.076,6 33.095,6 33.113,6C33.131,6 33.149,6 33.167,6C33.185,6 33.203,6 33.221,6C33.239,6 33.257,6 33.275,6C33.293,6 33.311,6 33.329,6C33.347,6 33.364,6 33.382,6C33.4,6 33.418,6 33.436,6C33.453,6 33.471,6 33.489,6C33.507,6 33.524,6 33.542,6C33.56,6 33.577,6 33.595,6C33.612,6 33.63,6 33.647,6C33.665,6 33.682,6 33.7,6C33.717,6 33.735,6 33.752,6C33.77,6 33.787,6 33.804,6C33.822,6 33.839,6 33.856,6C33.874,6 33.891,6 33.908,6C33.925,6 33.943,6 33.96,6C33.977,6 33.994,6 34.011,6C34.028,6 34.045,6 34.062,6C34.079,6 34.097,6 34.114,6C34.13,6 34.147,6 34.164,6C34.181,6 34.198,6 34.215,6C34.232,6 34.249,6 34.266,6C34.282,6 34.299,6 34.316,6C34.333,6 34.349,6 34.366,6C34.383,6 34.399,6 34.416,6C34.432,6 34.449,6 34.466,6C34.482,6 34.499,6 34.515,6C34.532,6 34.548,6 34.564,6C34.581,6 34.597,6 34.614,6C34.63,6 34.646,6 34.663,6C34.679,6 34.695,6 34.711,6C34.727,6 34.744,6 34.76,6C34.776,6 34.792,6 34.808,6C34.824,6 34.84,6 34.856,6C34.872,6 34.888,6 34.904,6C34.92,6 34.936,6 34.952,6C34.968,6 34.984,6 35,6L35,4C34.984,4 34.968,4 34.952,4C34.936,4 34.92,4 34.904,4C34.888,4 34.872,4 34.856,4C34.84,4 34.824,4 34.808,4C34.792,4 34.776,4 34.76,4C34.744,4 34.727,4 34.711,4C34.695,4 34.679,4 34.663,4C34.646,4 34.63,4 34.614,4C34.597,4 34.581,4 34.564,4C34.548,4 34.532,4 34.515,4C34.499,4 34.482,4 34.466,4C34.449,4 34.432,4 34.416,4C34.399,4 34.383,4 34.366,4C34.349,4 34.333,4 34.316,4C34.299,4 34.282,4 34.266,4C34.249,4 34.232,4 34.215,4C34.198,4 34.181,4 34.164,4C34.147,4 34.13,4 34.114,4C34.097,4 34.079,4 34.062,4C34.045,4 34.028,4 34.011,4C33.994,4 33.977,4 33.96,4C33.943,4 33.925,4 33.908,4C33.891,4 33.874,4 33.856,4C33.839,4 33.822,4 33.804,4C33.787,4 33.77,4 33.752,4C33.735,4 33.717,4 33.7,4C33.682,4 33.665,4 33.647,4C33.63,4 33.612,4 33.595,4C33.577,4 33.56,4 33.542,4C33.524,4 33.507,4 33.489,4C33.471,4 33.453,4 33.436,4C33.418,4 33.4,4 33.382,4C33.364,4 33.347,4 33.329,4C33.311,4 33.293,4 33.275,4C33.257,4 33.239,4 33.221,4C33.203,4 33.185,4 33.167,4C33.149,4 33.131,4 33.113,4C33.095,4 33.076,4 33.058,4C33.04,4 33.022,4 33.004,4C32.986,4 32.967,4 32.949,4C32.931,4 32.912,4 32.894,4C32.876,4 32.857,4 32.839,4C32.821,4 32.802,4 32.784,4C32.765,4 32.747,4 32.728,4C32.71,4 32.691,4 32.673,4C32.654,4 32.636,4 32.617,4C32.599,4 32.58,4 32.561,4C32.543,4 32.524,4 32.505,4C32.487,4 32.468,4 32.449,4C32.43,4 32.412,4 32.393,4C32.374,4 32.355,4 32.336,4C32.317,4 32.299,4 32.28,4C32.261,4 32.242,4 32.223,4C32.204,4 32.185,4 32.166,4C32.147,4 32.128,4 32.109,4C32.09,4 32.071,4 32.051,4C32.032,4 32.013,4 31.994,4C31.975,4 31.956,4 31.937,4C31.917,4 31.898,4 31.879,4C31.86,4 31.84,4 31.821,4C31.802,4 31.782,4 31.763,4C31.744,4 31.724,4 31.705,4C31.686,4 31.666,4 31.647,4C31.627,4 31.608,4 31.588,4C31.569,4 31.549,4 31.53,4C31.51,4 31.491,4 31.471,4C31.451,4 31.432,4 31.412,4C31.393,4 31.373,4 31.353,4C31.334,4 31.314,4 31.294,4C31.274,4 31.255,4 31.235,4C31.215,4 31.195,4 31.175,4C31.156,4 31.136,4 31.116,4C31.096,4 31.076,4 31.056,4C31.036,4 31.017,4 30.997,4C30.977,4 30.957,4 30.937,4C30.917,4 30.897,4 30.877,4C30.857,4 30.837,4 30.816,4C30.796,4 30.776,4 30.756,4C30.736,4 30.716,4 30.696,4C30.676,4 30.655,4 30.635,4C30.615,4 30.595,4 30.575,4C30.554,4 30.534,4 30.514,4C30.494,4 30.473,4 30.453,4C30.433,4 30.412,4 30.392,4C30.372,4 30.351,4 30.331,4C30.31,4 30.29,4 30.269,4C30.249,4 30.229,4 30.208,4C30.188,4 30.167,4 30.147,4C30.126,4 30.106,4 30.085,4C30.064,4 30.044,4 30.023,4C30.003,4 29.982,4 29.961,4C29.941,4 29.92,4 29.899,4C29.879,4 29.858,4 29.837,4C29.817,4 29.796,4 29.775,4C29.754,4 29.734,4 29.713,4C29.692,4 29.671,4 29.651,4C29.63,4 29.609,4 29.588,4C29.567,4 29.546,4 29.525,4C29.505,4 29.484,4 29.463,4C29.442,4 29.421,4 29.4,4C29.379,4 29.358,4 29.337,4C29.316,4 29.295,4 29.274,4C29.253,4 29.232,4 29.211,4C29.19,4 29.169,4 29.148,4C29.126,4 29.105,4 29.084,4C29.063,4 29.042,4 29.021,4C29,4 28.978,4 28.957,4C28.936,4 28.915,4 28.894,4C28.872,4 28.851,4 28.83,4C28.809,4 28.787,4 28.766,4C28.745,4 28.723,4 28.702,4C28.681,4 28.659,4 28.638,4C28.617,4 28.595,4 28.574,4C28.553,4 28.531,4 28.51,4C28.488,4 28.467,4 28.446,4C28.424,4 28.403,4 28.381,4C28.36,4 28.338,4 28.317,4C28.295,4 28.274,4 28.252,4C28.231,4 28.209,4 28.188,4C28.166,4 28.144,4 28.123,4C28.101,4 28.08,4 28.058,4C28.036,4 28.015,4 27.993,4C27.971,4 27.95,4 27.928,4C27.907,4 27.885,4 27.863,4C27.841,4 27.82,4 27.798,4C27.776,4 27.755,4 27.733,4C27.711,4 27.689,4 27.668,4C27.646,4 27.624,4 27.602,4C27.58,4 27.559,4 27.537,4C27.515,4 27.493,4 27.471,4C27.449,4 27.428,4 27.406,4C27.384,4 27.362,4 27.34,4C27.318,4 27.296,4 27.274,4C27.252,4 27.23,4 27.208,4C27.187,4 27.165,4 27.143,4C27.121,4 27.099,4 27.077,4C27.055,4 27.033,4 27.011,4C26.989,4 26.967,4 26.945,4C26.923,4 26.901,4 26.878,4C26.856,4 26.834,4 26.812,4C26.79,4 26.768,4 26.746,4C26.724,4 26.702,4 26.68,4C26.658,4 26.635,4 26.613,4C26.591,4 26.569,4 26.547,4C26.525,4 26.503,4 26.48,4C26.458,4 26.436,4 26.414,4C26.392,4 26.369,4 26.347,4C26.325,4 26.303,4 26.28,4C26.258,4 26.236,4 26.214,4C26.191,4 26.169,4 26.147,4C26.125,4 26.102,4 26.08,4C26.058,4 26.036,4 26.013,4C25.991,4 25.969,4 25.946,4C25.924,4 25.902,4 25.879,4C25.857,4 25.835,4 25.812,4C25.79,4 25.767,4 25.745,4C25.723,4 25.7,4 25.678,4C25.656,4 25.633,4 25.611,4C25.588,4 25.566,4 25.544,4C25.521,4 25.499,4 25.476,4C25.454,4 25.431,4 25.409,4C25.386,4 25.364,4 25.342,4C25.319,4 25.297,4 25.274,4C25.252,4 25.229,4 25.207,4C25.184,4 25.162,4 25.139,4C25.117,4 25.094,4 25.072,4C25.049,4 25.027,4 25.004,4C24.982,4 24.959,4 24.937,4C24.914,4 24.891,4 24.869,4C24.846,4 24.824,4 24.801,4C24.779,4 24.756,4 24.734,4C24.711,4 24.688,4 24.666,4C24.643,4 24.621,4 24.598,4C24.575,4 24.553,4 24.53,4C24.508,4 24.485,4 24.462,4C24.44,4 24.417,4 24.395,4C24.372,4 24.349,4 24.327,4C24.304,4 24.281,4 24.259,4C24.236,4 24.213,4 24.191,4C24.168,4 24.146,4 24.123,4C24.1,4 24.078,4 24.055,4C24.032,4 24.01,4 23.987,4C23.964,4 23.942,4 23.919,4C23.896,4 23.874,4 23.851,4C23.828,4 23.805,4 23.783,4C23.76,4 23.737,4 23.715,4C23.692,4 23.669,4 23.647,4C23.624,4 23.601,4 23.578,4C23.556,4 23.533,4 23.51,4C23.488,4 23.465,4 23.442,4C23.419,4 23.397,4 23.374,4C23.351,4 23.329,4 23.306,4C23.283,4 23.26,4 23.238,4C23.215,4 23.192,4 23.169,4C23.147,4 23.124,4 23.101,4C23.079,4 23.056,4 23.033,4C23.01,4 22.988,4 22.965,4C22.942,4 22.919,4 22.897,4C22.874,4 22.851,4 22.828,4C22.806,4 22.783,4 22.76,4C22.737,4 22.715,4 22.692,4C22.669,4 22.646,4 22.624,4C22.601,4 22.578,4 22.555,4C22.533,4 22.51,4 22.487,4C22.464,4 22.442,4 22.419,4C22.396,4 22.373,4 22.351,4C22.328,4 22.305,4 22.283,4C22.26,4 22.237,4 22.214,4C22.192,4 22.169,4 22.146,4C22.123,4 22.101,4 22.078,4C22.055,4 22.032,4 22.01,4C21.987,4 21.964,4 21.941,4C21.919,4 21.896,4 21.873,4C21.851,4 21.828,4 21.805,4C21.782,4 21.76,4 21.737,4C21.714,4 21.691,4 21.669,4C21.646,4 21.623,4 21.601,4C21.578,4 21.555,4 21.532,4C21.51,4 21.487,4 21.464,4C21.442,4 21.419,4 21.396,4C21.374,4 21.351,4 21.328,4C21.305,4 21.283,4 21.26,4C21.237,4 21.215,4 21.192,4C21.169,4 21.147,4 21.124,4C21.101,4 21.079,4 21.056,4C21.033,4 21.011,4 20.988,4C20.965,4 20.943,4 20.92,4C20.897,4 20.875,4 20.852,4C20.829,4 20.807,4 20.784,4C20.762,4 20.739,4 20.716,4C20.694,4 20.671,4 20.649,4C20.626,4 20.603,4 20.581,4C20.558,4 20.535,4 20.513,4C20.49,4 20.468,4 20.445,4C20.423,4 20.4,4 20.377,4C20.355,4 20.332,4 20.31,4C20.287,4 20.265,4 20.242,4C20.219,4 20.197,4 20.174,4C20.152,4 20.129,4 20.107,4C20.084,4 20.062,4 20.039,4C20.017,4 19.994,4 19.972,4C19.949,4 19.927,4 19.904,4C19.882,4 19.859,4 19.837,4C19.814,4 19.792,4 19.769,4C19.747,4 19.724,4 19.702,4C19.679,4 19.657,4 19.635,4C19.612,4 19.59,4 19.567,4C19.545,4 19.522,4 19.5,4C19.478,4 19.455,4 19.433,4C19.41,4 19.388,4 19.366,4C19.343,4 19.321,4 19.299,4C19.276,4 19.254,4 19.232,4C19.209,4 19.187,4 19.165,4C19.142,4 19.12,4 19.098,4C19.075,4 19.053,4 19.031,4C19.008,4 18.986,4 18.964,4C18.942,4 18.919,4 18.897,4C18.875,4 18.853,4 18.83,4C18.808,4 18.786,4 18.764,4C18.741,4 18.719,4 18.697,4C18.675,4 18.653,4 18.63,4C18.608,4 18.586,4 18.564,4C18.542,4 18.52,4 18.497,4C18.475,4 18.453,4 18.431,4C18.409,4 18.387,4 18.365,4C18.343,4 18.321,4 18.298,4C18.276,4 18.254,4 18.232,4C18.21,4 18.188,4 18.166,4C18.144,4 18.122,4 18.1,4C18.078,4 18.056,4 18.034,4C18.012,4 17.99,4 17.968,4C17.946,4 17.924,4 17.902,4C17.88,4 17.858,4 17.836,4C17.814,4 17.793,4 17.771,4C17.749,4 17.727,4 17.705,4C17.683,4 17.661,4 17.639,4C17.618,4 17.596,4 17.574,4C17.552,4 17.53,4 17.508,4C17.487,4 17.465,4 17.443,4C17.421,4 17.4,4 17.378,4C17.356,4 17.334,4 17.313,4C17.291,4 17.269,4 17.247,4C17.226,4 17.204,4 17.182,4C17.161,4 17.139,4 17.117,4C17.096,4 17.074,4 17.052,4C17.031,4 17.009,4 16.988,4C16.966,4 16.945,4 16.923,4C16.901,4 16.88,4 16.858,4C16.837,4 16.815,4 16.794,4C16.772,4 16.751,4 16.729,4C16.708,4 16.686,4 16.665,4C16.643,4 16.622,4 16.601,4C16.579,4 16.558,4 16.536,4C16.515,4 16.494,4 16.472,4C16.451,4 16.43,4 16.408,4C16.387,4 16.366,4 16.344,4C16.323,4 16.302,4 16.281,4C16.259,4 16.238,4 16.217,4C16.196,4 16.174,4 16.153,4C16.132,4 16.111,4 16.09,4C16.068,4 16.047,4 16.026,4C16.005,4 15.984,4 15.963,4C15.942,4 15.921,4 15.9,4C15.878,4 15.857,4 15.836,4C15.815,4 15.794,4 15.773,4C15.752,4 15.731,4 15.71,4C15.689,4 15.668,4 15.648,4C15.627,4 15.606,4 15.585,4C15.564,4 15.543,4 15.522,4C15.501,4 15.48,4 15.46,4C15.439,4 15.418,4 15.397,4C15.376,4 15.356,4 15.335,4C15.314,4 15.293,4 15.273,4C15.252,4 15.231,4 15.211,4C15.19,4 15.169,4 15.149,4C15.128,4 15.107,4 15.087,4C15.066,4 15.046,4 15.025,4C15.005,4 14.984,4 14.963,4C14.943,4 14.922,4 14.902,4C14.881,4 14.861,4 14.841,4C14.82,4 14.8,4 14.779,4C14.759,4 14.738,4 14.718,4C14.698,4 14.677,4 14.657,4C14.637,4 14.616,4 14.596,4C14.576,4 14.556,4 14.535,4C14.515,4 14.495,4 14.475,4C14.454,4 14.434,4 14.414,4C14.394,4 14.374,4 14.354,4C14.334,4 14.313,4 14.293,4C14.273,4 14.253,4 14.233,4C14.213,4 14.193,4 14.173,4C14.153,4 14.133,4 14.113,4C14.093,4 14.073,4 14.053,4C14.034,4 14.014,4 13.994,4C13.974,4 13.954,4 13.934,4C13.914,4 13.895,4 13.875,4C13.855,4 13.835,4 13.816,4C13.796,4 13.776,4 13.757,4C13.737,4 13.717,4 13.698,4C13.678,4 13.658,4 13.639,4C13.619,4 13.6,4 13.58,4C13.56,4 13.541,4 13.521,4C13.502,4 13.482,4 13.463,4C13.444,4 13.424,4 13.405,4C13.385,4 13.366,4 13.347,4C13.327,4 13.308,4 13.289,4C13.269,4 13.25,4 13.231,4C13.211,4 13.192,4 13.173,4C13.154,4 13.135,4 13.115,4C13.096,4 13.077,4 13.058,4C13.039,4 13.02,4 13.001,4C12.982,4 12.963,4 12.944,4C12.925,4 12.906,4 12.887,4C12.868,4 12.849,4 12.83,4C12.811,4 12.792,4 12.773,4C12.754,4 12.735,4 12.717,4C12.698,4 12.679,4 12.66,4C12.641,4 12.623,4 12.604,4C12.585,4 12.567,4 12.548,4C12.529,4 12.511,4 12.492,4C12.473,4 12.455,4 12.436,4C12.418,4 12.399,4 12.381,4C12.362,4 12.344,4 12.325,4C12.307,4 12.288,4 12.27,4C12.252,4 12.233,4 12.215,4C12.197,4 12.178,4 12.16,4C12.142,4 12.124,4 12.105,4C12.087,4 12.069,4 12.051,4C12.033,4 12.014,4 11.996,4C11.978,4 11.96,4 11.942,4C11.924,4 11.906,4 11.888,4C11.87,4 11.852,4 11.834,4C11.816,4 11.798,4 11.78,4C11.762,4 11.744,4 11.727,4C11.709,4 11.691,4 11.673,4C11.655,4 11.638,4 11.62,4C11.602,4 11.585,4 11.567,4C11.549,4 11.532,4 11.514,4C11.496,4 11.479,4 11.461,4C11.444,4 11.426,4 11.409,4C11.391,4 11.374,4 11.356,4C11.339,4 11.322,4 11.304,4C11.287,4 11.27,4 11.252,4C11.235,4 11.218,4 11.2,4C11.183,4 11.166,4 11.149,4C11.132,4 11.115,4 11.097,4C11.08,4 11.063,4 11.046,4C11.029,4 11.012,4 10.995,4C10.978,4 10.961,4 10.944,4C10.927,4 10.91,4 10.893,4C10.877,4 10.86,4 10.843,4C10.826,4 10.809,4 10.793,4C10.776,4 10.759,4 10.742,4C10.726,4 10.709,4 10.693,4C10.676,4 10.659,4 10.643,4C10.626,4 10.61,4 10.593,4C10.577,4 10.56,4 10.544,4C10.527,4 10.511,4 10.495,4C10.478,4 10.462,4 10.446,4C10.429,4 10.413,4 10.397,4C10.381,4 10.365,4 10.348,4C10.332,4 10.316,4 10.3,4C10.284,4 10.268,4 10.252,4C10.236,4 10.22,4 10.204,4C10.188,4 10.172,4 10.156,4C10.14,4 10.124,4 10.109,4C10.093,4 10.077,4 10.061,4C10.045,4 10.03,4 10.014,4C9.998,4 9.983,4 9.967,4C9.951,4 9.936,4 9.92,4C9.905,4 9.889,4 9.874,4C9.858,4 9.843,4 9.827,4C9.812,4 9.797,4 9.781,4C9.766,4 9.751,4 9.735,4C9.72,4 9.705,4 9.69,4C9.675,4 9.659,4 9.644,4C9.629,4 9.614,4 9.599,4C9.584,4 9.569,4 9.554,4C9.539,4 9.524,4 9.509,4C9.494,4 9.479,4 9.465,4C9.45,4 9.435,4 9.42,4C9.405,4 9.391,4 9.376,4C9.361,4 9.347,4 9.332,4C9.317,4 9.303,4 9.288,4C9.274,4 9.259,4 9.245,4C9.23,4 9.216,4 9.202,4C9.187,4 9.173,4 9.159,4C9.144,4 9.13,4 9.116,4C9.101,4 9.087,4 9.073,4C9.059,4 9.045,4 9.031,4C9.017,4 9.003,4 8.989,4C8.975,4 8.961,4 8.947,4C8.933,4 8.919,4 8.905,4C8.891,4 8.877,4 8.864,4C8.85,4 8.836,4 8.822,4C8.809,4 8.795,4 8.781,4C8.768,4 8.754,4 8.741,4C8.727,4 8.714,4 8.7,4C8.687,4 8.673,4 8.66,4C8.646,4 8.633,4 8.62,4C8.606,4 8.593,4 8.58,4C8.567,4 8.554,4 8.54,4C8.527,4 8.514,4 8.501,4C8.488,4 8.475,4 8.462,4C8.449,4 8.436,4 8.423,4C8.41,4 8.397,4 8.385,4C8.372,4 8.359,4 8.346,4C8.334,4 8.321,4 8.308,4C8.296,4 8.283,4 8.27,4C8.258,4 8.245,4 8.233,4C8.22,4 8.208,4 8.195,4C8.183,4 8.171,4 8.158,4C8.146,4 8.134,4 8.121,4C8.109,4 8.097,4 8.085,4C8.073,4 8.061,4 8.048,4C8.036,4 8.024,4 8.012,4C8,4 7.988,4 7.977,4C7.965,4 7.953,4 7.941,4C7.929,4 7.917,4 7.906,4C7.894,4 7.882,4 7.871,4C7.859,4 7.847,4 7.836,4C7.824,4 7.813,4 7.801,4C7.79,4 7.778,4 7.767,4C7.756,4 7.744,4 7.733,4C7.722,4 7.71,4 7.699,4C7.688,4 7.677,4 7.666,4C7.655,4 7.643,4 7.632,4C7.621,4 7.61,4 7.599,4C7.589,4 7.578,4 7.567,4C7.556,4 7.545,4 7.534,4C7.524,4 7.513,4 7.502,4C7.492,4 7.481,4 7.47,4C7.46,4 7.449,4 7.439,4C7.428,4 7.418,4 7.407,4C7.397,4 7.387,4 7.376,4C7.366,4 7.356,4 7.346,4C7.335,4 7.325,4 7.315,4C7.305,4 7.295,4 7.285,4C7.275,4 7.265,4 7.255,4C7.245,4 7.235,4 7.225,4C7.215,4 7.205,4 7.196,4C7.186,4 7.176,4 7.167,4C7.157,4 7.147,4 7.138,4C7.128,4 7.119,4 7.109,4C7.1,4 7.09,4 7.081,4C7.071,4 7.062,4 7.053,4C7.044,4 7.034,4 7.025,4C7.016,4 7.007,4 6.998,4C6.989,4 6.98,4 6.971,4C6.962,4 6.953,4 6.944,4C6.935,4 6.926,4 6.917,4C6.908,4 6.9,4 6.891,4C6.882,4 6.874,4 6.865,4C6.856,4 6.848,4 6.839,4C6.831,4 6.822,4 6.814,4C6.805,4 6.797,4 6.789,4C6.78,4 6.772,4 6.764,4C6.756,4 6.748,4 6.739,4C6.731,4 6.723,4 6.715,4C6.707,4 6.699,4 6.691,4C6.683,4 6.676,4 6.668,4C6.66,4 6.652,4 6.644,4C6.637,4 6.629,4 6.621,4C6.614,4 6.606,4 6.599,4C6.591,4 6.584,4 6.576,4C6.569,4 6.562,4 6.554,4C6.547,4 6.54,4 6.532,4C6.525,4 6.518,4 6.511,4C6.504,4 6.497,4 6.49,4C6.483,4 6.476,4 6.469,4C6.462,4 6.455,4 6.448,4C6.442,4 6.435,4 6.428,4L6.428,6ZM35,6C36.333,6 37.881,6.201 39.345,7.073C40.794,7.937 42.268,9.521 43.345,12.485L45.225,11.801C44.017,8.479 42.277,6.492 40.368,5.355C38.476,4.228 36.523,4 35,4L35,6Z" fill="#5E80C9"/>
<path d="M88.092,1.031C88.267,0.507 87.983,-0.06 87.46,-0.234C86.936,-0.409 86.369,-0.126 86.195,0.398L88.092,1.031ZM43.346,11.801C43.158,12.32 43.425,12.894 43.944,13.083C44.463,13.271 45.037,13.004 45.226,12.485L43.346,11.801ZM86.195,0.398C86.003,0.973 85.514,1.899 84.705,2.668C83.912,3.42 82.839,4 81.429,4L81.429,6C83.448,6 84.994,5.151 86.082,4.118C87.153,3.101 87.808,1.884 88.092,1.031L86.195,0.398ZM81.429,4C81.422,4 81.416,4 81.409,4C81.402,4 81.395,4 81.388,4C81.381,4 81.374,4 81.367,4C81.36,4 81.353,4 81.346,4C81.339,4 81.332,4 81.325,4C81.318,4 81.31,4 81.303,4C81.296,4 81.288,4 81.281,4C81.273,4 81.266,4 81.258,4C81.251,4 81.243,4 81.236,4C81.228,4 81.22,4 81.213,4C81.205,4 81.197,4 81.189,4C81.182,4 81.174,4 81.166,4C81.158,4 81.15,4 81.142,4C81.134,4 81.126,4 81.118,4C81.11,4 81.101,4 81.093,4C81.085,4 81.077,4 81.068,4C81.06,4 81.052,4 81.043,4C81.035,4 81.026,4 81.018,4C81.009,4 81.001,4 80.992,4C80.984,4 80.975,4 80.966,4C80.958,4 80.949,4 80.94,4C80.931,4 80.922,4 80.913,4C80.905,4 80.896,4 80.887,4C80.878,4 80.869,4 80.859,4C80.85,4 80.841,4 80.832,4C80.823,4 80.814,4 80.804,4C80.795,4 80.786,4 80.776,4C80.767,4 80.758,4 80.748,4C80.739,4 80.729,4 80.719,4C80.71,4 80.7,4 80.691,4C80.681,4 80.671,4 80.662,4C80.652,4 80.642,4 80.632,4C80.622,4 80.612,4 80.602,4C80.592,4 80.582,4 80.572,4C80.562,4 80.552,4 80.542,4C80.532,4 80.522,4 80.512,4C80.501,4 80.491,4 80.481,4C80.471,4 80.46,4 80.45,4C80.439,4 80.429,4 80.418,4C80.408,4 80.397,4 80.387,4C80.376,4 80.366,4 80.355,4C80.344,4 80.334,4 80.323,4C80.312,4 80.301,4 80.29,4C80.28,4 80.269,4 80.258,4C80.247,4 80.236,4 80.225,4C80.214,4 80.203,4 80.192,4C80.18,4 80.169,4 80.158,4C80.147,4 80.136,4 80.124,4C80.113,4 80.102,4 80.09,4C80.079,4 80.067,4 80.056,4C80.045,4 80.033,4 80.021,4C80.01,4 79.998,4 79.987,4C79.975,4 79.963,4 79.952,4C79.94,4 79.928,4 79.916,4C79.904,4 79.893,4 79.881,4C79.869,4 79.857,4 79.845,4C79.833,4 79.821,4 79.809,4C79.797,4 79.785,4 79.772,4C79.76,4 79.748,4 79.736,4C79.724,4 79.711,4 79.699,4C79.687,4 79.674,4 79.662,4C79.649,4 79.637,4 79.624,4C79.612,4 79.599,4 79.587,4C79.574,4 79.562,4 79.549,4C79.536,4 79.524,4 79.511,4C79.498,4 79.485,4 79.473,4C79.46,4 79.447,4 79.434,4C79.421,4 79.408,4 79.395,4C79.382,4 79.369,4 79.356,4C79.343,4 79.33,4 79.317,4C79.304,4 79.29,4 79.277,4C79.264,4 79.251,4 79.237,4C79.224,4 79.211,4 79.197,4C79.184,4 79.171,4 79.157,4C79.144,4 79.13,4 79.117,4C79.103,4 79.089,4 79.076,4C79.062,4 79.049,4 79.035,4C79.021,4 79.007,4 78.994,4C78.98,4 78.966,4 78.952,4C78.938,4 78.924,4 78.911,4C78.897,4 78.883,4 78.869,4C78.855,4 78.841,4 78.826,4C78.812,4 78.798,4 78.784,4C78.77,4 78.756,4 78.742,4C78.727,4 78.713,4 78.699,4C78.684,4 78.67,4 78.656,4C78.641,4 78.627,4 78.612,4C78.598,4 78.583,4 78.569,4C78.554,4 78.54,4 78.525,4C78.511,4 78.496,4 78.481,4C78.466,4 78.452,4 78.437,4C78.422,4 78.407,4 78.393,4C78.378,4 78.363,4 78.348,4C78.333,4 78.318,4 78.303,4C78.288,4 78.273,4 78.258,4C78.243,4 78.228,4 78.213,4C78.198,4 78.183,4 78.167,4C78.152,4 78.137,4 78.122,4C78.106,4 78.091,4 78.076,4C78.061,4 78.045,4 78.03,4C78.014,4 77.999,4 77.983,4C77.968,4 77.952,4 77.937,4C77.921,4 77.906,4 77.89,4C77.875,4 77.859,4 77.843,4C77.828,4 77.812,4 77.796,4C77.78,4 77.764,4 77.749,4C77.733,4 77.717,4 77.701,4C77.685,4 77.669,4 77.653,4C77.637,4 77.621,4 77.605,4C77.589,4 77.573,4 77.557,4C77.541,4 77.525,4 77.509,4C77.493,4 77.476,4 77.46,4C77.444,4 77.428,4 77.411,4C77.395,4 77.379,4 77.363,4C77.346,4 77.33,4 77.313,4C77.297,4 77.28,4 77.264,4C77.247,4 77.231,4 77.214,4C77.198,4 77.181,4 77.165,4C77.148,4 77.131,4 77.115,4C77.098,4 77.081,4 77.065,4C77.048,4 77.031,4 77.014,4C76.997,4 76.981,4 76.964,4C76.947,4 76.93,4 76.913,4C76.896,4 76.879,4 76.862,4C76.845,4 76.828,4 76.811,4C76.794,4 76.777,4 76.76,4C76.743,4 76.726,4 76.708,4C76.691,4 76.674,4 76.657,4C76.64,4 76.622,4 76.605,4C76.588,4 76.57,4 76.553,4C76.536,4 76.518,4 76.501,4C76.483,4 76.466,4 76.448,4C76.431,4 76.413,4 76.396,4C76.378,4 76.361,4 76.343,4C76.326,4 76.308,4 76.29,4C76.273,4 76.255,4 76.237,4C76.219,4 76.202,4 76.184,4C76.166,4 76.148,4 76.131,4C76.113,4 76.095,4 76.077,4C76.059,4 76.041,4 76.023,4C76.005,4 75.987,4 75.969,4C75.951,4 75.933,4 75.915,4C75.897,4 75.879,4 75.861,4C75.843,4 75.825,4 75.806,4C75.788,4 75.77,4 75.752,4C75.734,4 75.715,4 75.697,4C75.679,4 75.661,4 75.642,4C75.624,4 75.606,4 75.587,4C75.569,4 75.55,4 75.532,4C75.513,4 75.495,4 75.476,4C75.458,4 75.439,4 75.421,4C75.402,4 75.384,4 75.365,4C75.347,4 75.328,4 75.309,4C75.291,4 75.272,4 75.253,4C75.234,4 75.216,4 75.197,4C75.178,4 75.159,4 75.141,4C75.122,4 75.103,4 75.084,4C75.065,4 75.046,4 75.027,4C75.009,4 74.99,4 74.971,4C74.952,4 74.933,4 74.914,4C74.895,4 74.876,4 74.857,4C74.837,4 74.818,4 74.799,4C74.78,4 74.761,4 74.742,4C74.723,4 74.703,4 74.684,4C74.665,4 74.646,4 74.627,4C74.607,4 74.588,4 74.569,4C74.549,4 74.53,4 74.511,4C74.491,4 74.472,4 74.453,4C74.433,4 74.414,4 74.394,4C74.375,4 74.355,4 74.336,4C74.316,4 74.297,4 74.277,4C74.258,4 74.238,4 74.219,4C74.199,4 74.179,4 74.16,4C74.14,4 74.12,4 74.101,4C74.081,4 74.061,4 74.042,4C74.022,4 74.002,4 73.982,4C73.963,4 73.943,4 73.923,4C73.903,4 73.883,4 73.863,4C73.844,4 73.824,4 73.804,4C73.784,4 73.764,4 73.744,4C73.724,4 73.704,4 73.684,4C73.664,4 73.644,4 73.624,4C73.604,4 73.584,4 73.564,4C73.544,4 73.524,4 73.504,4C73.483,4 73.463,4 73.443,4C73.423,4 73.403,4 73.383,4C73.362,4 73.342,4 73.322,4C73.302,4 73.281,4 73.261,4C73.241,4 73.22,4 73.2,4C73.18,4 73.159,4 73.139,4C73.119,4 73.098,4 73.078,4C73.058,4 73.037,4 73.017,4C72.996,4 72.976,4 72.955,4C72.935,4 72.914,4 72.894,4C72.873,4 72.853,4 72.832,4C72.812,4 72.791,4 72.77,4C72.75,4 72.729,4 72.709,4C72.688,4 72.667,4 72.647,4C72.626,4 72.605,4 72.584,4C72.564,4 72.543,4 72.522,4C72.502,4 72.481,4 72.46,4C72.439,4 72.418,4 72.398,4C72.377,4 72.356,4 72.335,4C72.314,4 72.293,4 72.272,4C72.251,4 72.231,4 72.21,4C72.189,4 72.168,4 72.147,4C72.126,4 72.105,4 72.084,4C72.063,4 72.042,4 72.021,4C72,4 71.979,4 71.958,4C71.937,4 71.916,4 71.894,4C71.873,4 71.852,4 71.831,4C71.81,4 71.789,4 71.768,4C71.746,4 71.725,4 71.704,4C71.683,4 71.662,4 71.64,4C71.619,4 71.598,4 71.577,4C71.555,4 71.534,4 71.513,4C71.492,4 71.47,4 71.449,4C71.428,4 71.406,4 71.385,4C71.364,4 71.342,4 71.321,4C71.299,4 71.278,4 71.257,4C71.235,4 71.214,4 71.192,4C71.171,4 71.149,4 71.128,4C71.106,4 71.085,4 71.063,4C71.042,4 71.02,4 70.999,4C70.977,4 70.956,4 70.934,4C70.913,4 70.891,4 70.87,4C70.848,4 70.826,4 70.805,4C70.783,4 70.761,4 70.74,4C70.718,4 70.697,4 70.675,4C70.653,4 70.631,4 70.61,4C70.588,4 70.566,4 70.545,4C70.523,4 70.501,4 70.479,4C70.458,4 70.436,4 70.414,4C70.392,4 70.371,4 70.349,4C70.327,4 70.305,4 70.283,4C70.262,4 70.24,4 70.218,4C70.196,4 70.174,4 70.152,4C70.13,4 70.108,4 70.087,4C70.065,4 70.043,4 70.021,4C69.999,4 69.977,4 69.955,4C69.933,4 69.911,4 69.889,4C69.867,4 69.845,4 69.823,4C69.801,4 69.779,4 69.757,4C69.735,4 69.713,4 69.691,4C69.669,4 69.647,4 69.625,4C69.603,4 69.581,4 69.559,4C69.537,4 69.515,4 69.492,4C69.47,4 69.448,4 69.426,4C69.404,4 69.382,4 69.36,4C69.338,4 69.315,4 69.293,4C69.271,4 69.249,4 69.227,4C69.205,4 69.182,4 69.16,4C69.138,4 69.116,4 69.094,4C69.071,4 69.049,4 69.027,4C69.005,4 68.982,4 68.96,4C68.938,4 68.916,4 68.893,4C68.871,4 68.849,4 68.827,4C68.804,4 68.782,4 68.76,4C68.737,4 68.715,4 68.693,4C68.67,4 68.648,4 68.626,4C68.603,4 68.581,4 68.559,4C68.536,4 68.514,4 68.491,4C68.469,4 68.447,4 68.424,4C68.402,4 68.38,4 68.357,4C68.335,4 68.312,4 68.29,4C68.267,4 68.245,4 68.223,4C68.2,4 68.178,4 68.155,4C68.133,4 68.11,4 68.088,4C68.065,4 68.043,4 68.02,4C67.998,4 67.976,4 67.953,4C67.931,4 67.908,4 67.886,4C67.863,4 67.841,4 67.818,4C67.796,4 67.773,4 67.75,4C67.728,4 67.705,4 67.683,4C67.66,4 67.638,4 67.615,4C67.593,4 67.57,4 67.548,4C67.525,4 67.502,4 67.48,4C67.457,4 67.435,4 67.412,4C67.389,4 67.367,4 67.344,4C67.322,4 67.299,4 67.277,4C67.254,4 67.231,4 67.209,4C67.186,4 67.163,4 67.141,4C67.118,4 67.096,4 67.073,4C67.05,4 67.028,4 67.005,4C66.982,4 66.96,4 66.937,4C66.914,4 66.892,4 66.869,4C66.846,4 66.824,4 66.801,4C66.778,4 66.756,4 66.733,4C66.71,4 66.688,4 66.665,4C66.642,4 66.62,4 66.597,4C66.574,4 66.552,4 66.529,4C66.506,4 66.484,4 66.461,4C66.438,4 66.416,4 66.393,4C66.37,4 66.347,4 66.325,4C66.302,4 66.279,4 66.257,4C66.234,4 66.211,4 66.188,4C66.166,4 66.143,4 66.12,4C66.098,4 66.075,4 66.052,4C66.029,4 66.007,4 65.984,4C65.961,4 65.938,4 65.916,4C65.893,4 65.87,4 65.848,4C65.825,4 65.802,4 65.779,4C65.757,4 65.734,4 65.711,4C65.688,4 65.666,4 65.643,4C65.62,4 65.597,4 65.575,4C65.552,4 65.529,4 65.506,4C65.484,4 65.461,4 65.438,4C65.415,4 65.393,4 65.37,4C65.347,4 65.324,4 65.302,4C65.279,4 65.256,4 65.233,4C65.211,4 65.188,4 65.165,4C65.142,4 65.12,4 65.097,4C65.074,4 65.051,4 65.029,4C65.006,4 64.983,4 64.961,4C64.938,4 64.915,4 64.892,4C64.87,4 64.847,4 64.824,4C64.801,4 64.779,4 64.756,4C64.733,4 64.71,4 64.688,4C64.665,4 64.642,4 64.619,4C64.597,4 64.574,4 64.551,4C64.529,4 64.506,4 64.483,4C64.46,4 64.438,4 64.415,4C64.392,4 64.37,4 64.347,4C64.324,4 64.301,4 64.279,4C64.256,4 64.233,4 64.21,4C64.188,4 64.165,4 64.142,4C64.12,4 64.097,4 64.074,4C64.052,4 64.029,4 64.006,4C63.984,4 63.961,4 63.938,4C63.916,4 63.893,4 63.87,4C63.848,4 63.825,4 63.802,4C63.78,4 63.757,4 63.734,4C63.712,4 63.689,4 63.666,4C63.644,4 63.621,4 63.598,4C63.576,4 63.553,4 63.53,4C63.508,4 63.485,4 63.463,4C63.44,4 63.417,4 63.395,4C63.372,4 63.349,4 63.327,4C63.304,4 63.282,4 63.259,4C63.236,4 63.214,4 63.191,4C63.169,4 63.146,4 63.124,4C63.101,4 63.078,4 63.056,4C63.033,4 63.011,4 62.988,4C62.966,4 62.943,4 62.921,4C62.898,4 62.875,4 62.853,4C62.83,4 62.808,4 62.785,4C62.763,4 62.74,4 62.718,4C62.695,4 62.673,4 62.65,4C62.628,4 62.605,4 62.583,4C62.56,4 62.538,4 62.515,4C62.493,4 62.471,4 62.448,4C62.426,4 62.403,4 62.381,4C62.358,4 62.336,4 62.314,4C62.291,4 62.269,4 62.246,4C62.224,4 62.201,4 62.179,4C62.157,4 62.134,4 62.112,4C62.09,4 62.067,4 62.045,4C62.023,4 62,4 61.978,4C61.955,4 61.933,4 61.911,4C61.888,4 61.866,4 61.844,4C61.822,4 61.799,4 61.777,4C61.755,4 61.732,4 61.71,4C61.688,4 61.666,4 61.643,4C61.621,4 61.599,4 61.577,4C61.554,4 61.532,4 61.51,4C61.488,4 61.465,4 61.443,4C61.421,4 61.399,4 61.377,4C61.355,4 61.332,4 61.31,4C61.288,4 61.266,4 61.244,4C61.222,4 61.2,4 61.177,4C61.155,4 61.133,4 61.111,4C61.089,4 61.067,4 61.045,4C61.023,4 61.001,4 60.979,4C60.957,4 60.935,4 60.912,4C60.89,4 60.868,4 60.846,4C60.824,4 60.802,4 60.78,4C60.758,4 60.736,4 60.714,4C60.692,4 60.671,4 60.649,4C60.627,4 60.605,4 60.583,4C60.561,4 60.539,4 60.517,4C60.495,4 60.473,4 60.451,4C60.43,4 60.408,4 60.386,4C60.364,4 60.342,4 60.32,4C60.299,4 60.277,4 60.255,4C60.233,4 60.211,4 60.19,4C60.168,4 60.146,4 60.124,4C60.103,4 60.081,4 60.059,4C60.037,4 60.016,4 59.994,4C59.972,4 59.951,4 59.929,4C59.907,4 59.886,4 59.864,4C59.842,4 59.821,4 59.799,4C59.777,4 59.756,4 59.734,4C59.713,4 59.691,4 59.67,4C59.648,4 59.626,4 59.605,4C59.583,4 59.562,4 59.54,4C59.519,4 59.497,4 59.476,4C59.454,4 59.433,4 59.412,4C59.39,4 59.369,4 59.347,4C59.326,4 59.304,4 59.283,4C59.262,4 59.24,4 59.219,4C59.198,4 59.176,4 59.155,4C59.134,4 59.112,4 59.091,4C59.07,4 59.048,4 59.027,4C59.006,4 58.985,4 58.963,4C58.942,4 58.921,4 58.9,4C58.879,4 58.857,4 58.836,4C58.815,4 58.794,4 58.773,4C58.752,4 58.731,4 58.71,4C58.688,4 58.667,4 58.646,4C58.625,4 58.604,4 58.583,4C58.562,4 58.541,4 58.52,4C58.499,4 58.478,4 58.457,4C58.436,4 58.415,4 58.394,4C58.373,4 58.353,4 58.332,4C58.311,4 58.29,4 58.269,4C58.248,4 58.227,4 58.207,4C58.186,4 58.165,4 58.144,4C58.123,4 58.103,4 58.082,4C58.061,4 58.04,4 58.02,4C57.999,4 57.978,4 57.958,4C57.937,4 57.916,4 57.896,4C57.875,4 57.854,4 57.834,4C57.813,4 57.793,4 57.772,4C57.752,4 57.731,4 57.71,4C57.69,4 57.669,4 57.649,4C57.628,4 57.608,4 57.588,4C57.567,4 57.547,4 57.526,4C57.506,4 57.486,4 57.465,4C57.445,4 57.424,4 57.404,4C57.384,4 57.364,4 57.343,4C57.323,4 57.303,4 57.282,4C57.262,4 57.242,4 57.222,4C57.202,4 57.181,4 57.161,4C57.141,4 57.121,4 57.101,4C57.081,4 57.061,4 57.041,4C57.021,4 57,4 56.98,4C56.96,4 56.94,4 56.92,4C56.9,4 56.88,4 56.86,4C56.841,4 56.821,4 56.801,4C56.781,4 56.761,4 56.741,4C56.721,4 56.701,4 56.682,4C56.662,4 56.642,4 56.622,4C56.602,4 56.583,4 56.563,4C56.543,4 56.524,4 56.504,4C56.484,4 56.465,4 56.445,4C56.425,4 56.406,4 56.386,4C56.366,4 56.347,4 56.327,4C56.308,4 56.288,4 56.269,4C56.249,4 56.23,4 56.21,4C56.191,4 56.172,4 56.152,4C56.133,4 56.113,4 56.094,4C56.075,4 56.055,4 56.036,4C56.017,4 55.997,4 55.978,4C55.959,4 55.94,4 55.921,4C55.901,4 55.882,4 55.863,4C55.844,4 55.825,4 55.806,4C55.786,4 55.767,4 55.748,4C55.729,4 55.71,4 55.691,4C55.672,4 55.653,4 55.634,4C55.615,4 55.596,4 55.577,4C55.559,4 55.54,4 55.521,4C55.502,4 55.483,4 55.464,4C55.446,4 55.427,4 55.408,4C55.389,4 55.371,4 55.352,4C55.333,4 55.314,4 55.296,4C55.277,4 55.259,4 55.24,4C55.221,4 55.203,4 55.184,4C55.166,4 55.147,4 55.129,4C55.11,4 55.092,4 55.073,4C55.055,4 55.036,4 55.018,4C55,4 54.981,4 54.963,4C54.945,4 54.926,4 54.908,4C54.89,4 54.872,4 54.853,4C54.835,4 54.817,4 54.799,4C54.781,4 54.762,4 54.744,4C54.726,4 54.708,4 54.69,4C54.672,4 54.654,4 54.636,4C54.618,4 54.6,4 54.582,4C54.564,4 54.546,4 54.528,4C54.511,4 54.493,4 54.475,4C54.457,4 54.439,4 54.421,4C54.404,4 54.386,4 54.368,4C54.351,4 54.333,4 54.315,4C54.298,4 54.28,4 54.262,4C54.245,4 54.227,4 54.21,4C54.192,4 54.175,4 54.157,4C54.14,4 54.122,4 54.105,4C54.087,4 54.07,4 54.053,4C54.035,4 54.018,4 54.001,4C53.983,4 53.966,4 53.949,4C53.932,4 53.914,4 53.897,4C53.88,4 53.863,4 53.846,4C53.829,4 53.812,4 53.795,4C53.778,4 53.761,4 53.744,4C53.727,4 53.71,4 53.693,4C53.676,4 53.659,4 53.642,4C53.625,4 53.608,4 53.592,4C53.575,4 53.558,4 53.541,4C53.525,4 53.508,4 53.491,4C53.474,4 53.458,4 53.441,4C53.425,4 53.408,4 53.391,4C53.375,4 53.358,4 53.342,4C53.325,4 53.309,4 53.293,4C53.276,4 53.26,4 53.243,4C53.227,4 53.211,4 53.195,4C53.178,4 53.162,4 53.146,4C53.13,4 53.113,4 53.097,4C53.081,4 53.065,4 53.049,4C53.033,4 53.017,4 53.001,4C52.985,4 52.969,4 52.953,4C52.937,4 52.921,4 52.905,4C52.889,4 52.873,4 52.858,4L52.858,6C52.873,6 52.889,6 52.905,6C52.921,6 52.937,6 52.953,6C52.969,6 52.985,6 53.001,6C53.017,6 53.033,6 53.049,6C53.065,6 53.081,6 53.097,6C53.113,6 53.13,6 53.146,6C53.162,6 53.178,6 53.195,6C53.211,6 53.227,6 53.243,6C53.26,6 53.276,6 53.293,6C53.309,6 53.325,6 53.342,6C53.358,6 53.375,6 53.391,6C53.408,6 53.425,6 53.441,6C53.458,6 53.474,6 53.491,6C53.508,6 53.525,6 53.541,6C53.558,6 53.575,6 53.592,6C53.608,6 53.625,6 53.642,6C53.659,6 53.676,6 53.693,6C53.71,6 53.727,6 53.744,6C53.761,6 53.778,6 53.795,6C53.812,6 53.829,6 53.846,6C53.863,6 53.88,6 53.897,6C53.914,6 53.932,6 53.949,6C53.966,6 53.983,6 54.001,6C54.018,6 54.035,6 54.053,6C54.07,6 54.087,6 54.105,6C54.122,6 54.14,6 54.157,6C54.175,6 54.192,6 54.21,6C54.227,6 54.245,6 54.262,6C54.28,6 54.298,6 54.315,6C54.333,6 54.351,6 54.368,6C54.386,6 54.404,6 54.421,6C54.439,6 54.457,6 54.475,6C54.493,6 54.511,6 54.528,6C54.546,6 54.564,6 54.582,6C54.6,6 54.618,6 54.636,6C54.654,6 54.672,6 54.69,6C54.708,6 54.726,6 54.744,6C54.762,6 54.781,6 54.799,6C54.817,6 54.835,6 54.853,6C54.872,6 54.89,6 54.908,6C54.926,6 54.945,6 54.963,6C54.981,6 55,6 55.018,6C55.036,6 55.055,6 55.073,6C55.092,6 55.11,6 55.129,6C55.147,6 55.166,6 55.184,6C55.203,6 55.221,6 55.24,6C55.259,6 55.277,6 55.296,6C55.314,6 55.333,6 55.352,6C55.371,6 55.389,6 55.408,6C55.427,6 55.446,6 55.464,6C55.483,6 55.502,6 55.521,6C55.54,6 55.559,6 55.577,6C55.596,6 55.615,6 55.634,6C55.653,6 55.672,6 55.691,6C55.71,6 55.729,6 55.748,6C55.767,6 55.786,6 55.806,6C55.825,6 55.844,6 55.863,6C55.882,6 55.901,6 55.921,6C55.94,6 55.959,6 55.978,6C55.997,6 56.017,6 56.036,6C56.055,6 56.075,6 56.094,6C56.113,6 56.133,6 56.152,6C56.172,6 56.191,6 56.21,6C56.23,6 56.249,6 56.269,6C56.288,6 56.308,6 56.327,6C56.347,6 56.366,6 56.386,6C56.406,6 56.425,6 56.445,6C56.465,6 56.484,6 56.504,6C56.524,6 56.543,6 56.563,6C56.583,6 56.602,6 56.622,6C56.642,6 56.662,6 56.682,6C56.701,6 56.721,6 56.741,6C56.761,6 56.781,6 56.801,6C56.821,6 56.841,6 56.86,6C56.88,6 56.9,6 56.92,6C56.94,6 56.96,6 56.98,6C57,6 57.021,6 57.041,6C57.061,6 57.081,6 57.101,6C57.121,6 57.141,6 57.161,6C57.181,6 57.202,6 57.222,6C57.242,6 57.262,6 57.282,6C57.303,6 57.323,6 57.343,6C57.364,6 57.384,6 57.404,6C57.424,6 57.445,6 57.465,6C57.486,6 57.506,6 57.526,6C57.547,6 57.567,6 57.588,6C57.608,6 57.628,6 57.649,6C57.669,6 57.69,6 57.71,6C57.731,6 57.752,6 57.772,6C57.793,6 57.813,6 57.834,6C57.854,6 57.875,6 57.896,6C57.916,6 57.937,6 57.958,6C57.978,6 57.999,6 58.02,6C58.04,6 58.061,6 58.082,6C58.103,6 58.123,6 58.144,6C58.165,6 58.186,6 58.207,6C58.227,6 58.248,6 58.269,6C58.29,6 58.311,6 58.332,6C58.353,6 58.373,6 58.394,6C58.415,6 58.436,6 58.457,6C58.478,6 58.499,6 58.52,6C58.541,6 58.562,6 58.583,6C58.604,6 58.625,6 58.646,6C58.667,6 58.688,6 58.71,6C58.731,6 58.752,6 58.773,6C58.794,6 58.815,6 58.836,6C58.857,6 58.879,6 58.9,6C58.921,6 58.942,6 58.963,6C58.985,6 59.006,6 59.027,6C59.048,6 59.07,6 59.091,6C59.112,6 59.134,6 59.155,6C59.176,6 59.198,6 59.219,6C59.24,6 59.262,6 59.283,6C59.304,6 59.326,6 59.347,6C59.369,6 59.39,6 59.412,6C59.433,6 59.454,6 59.476,6C59.497,6 59.519,6 59.54,6C59.562,6 59.583,6 59.605,6C59.626,6 59.648,6 59.67,6C59.691,6 59.713,6 59.734,6C59.756,6 59.777,6 59.799,6C59.821,6 59.842,6 59.864,6C59.886,6 59.907,6 59.929,6C59.951,6 59.972,6 59.994,6C60.016,6 60.037,6 60.059,6C60.081,6 60.103,6 60.124,6C60.146,6 60.168,6 60.19,6C60.211,6 60.233,6 60.255,6C60.277,6 60.299,6 60.32,6C60.342,6 60.364,6 60.386,6C60.408,6 60.43,6 60.451,6C60.473,6 60.495,6 60.517,6C60.539,6 60.561,6 60.583,6C60.605,6 60.627,6 60.649,6C60.671,6 60.692,6 60.714,6C60.736,6 60.758,6 60.78,6C60.802,6 60.824,6 60.846,6C60.868,6 60.89,6 60.912,6C60.935,6 60.957,6 60.979,6C61.001,6 61.023,6 61.045,6C61.067,6 61.089,6 61.111,6C61.133,6 61.155,6 61.177,6C61.2,6 61.222,6 61.244,6C61.266,6 61.288,6 61.31,6C61.332,6 61.355,6 61.377,6C61.399,6 61.421,6 61.443,6C61.465,6 61.488,6 61.51,6C61.532,6 61.554,6 61.577,6C61.599,6 61.621,6 61.643,6C61.666,6 61.688,6 61.71,6C61.732,6 61.755,6 61.777,6C61.799,6 61.822,6 61.844,6C61.866,6 61.888,6 61.911,6C61.933,6 61.955,6 61.978,6C62,6 62.023,6 62.045,6C62.067,6 62.09,6 62.112,6C62.134,6 62.157,6 62.179,6C62.201,6 62.224,6 62.246,6C62.269,6 62.291,6 62.314,6C62.336,6 62.358,6 62.381,6C62.403,6 62.426,6 62.448,6C62.471,6 62.493,6 62.515,6C62.538,6 62.56,6 62.583,6C62.605,6 62.628,6 62.65,6C62.673,6 62.695,6 62.718,6C62.74,6 62.763,6 62.785,6C62.808,6 62.83,6 62.853,6C62.875,6 62.898,6 62.921,6C62.943,6 62.966,6 62.988,6C63.011,6 63.033,6 63.056,6C63.078,6 63.101,6 63.124,6C63.146,6 63.169,6 63.191,6C63.214,6 63.236,6 63.259,6C63.282,6 63.304,6 63.327,6C63.349,6 63.372,6 63.395,6C63.417,6 63.44,6 63.463,6C63.485,6 63.508,6 63.53,6C63.553,6 63.576,6 63.598,6C63.621,6 63.644,6 63.666,6C63.689,6 63.712,6 63.734,6C63.757,6 63.78,6 63.802,6C63.825,6 63.848,6 63.87,6C63.893,6 63.916,6 63.938,6C63.961,6 63.984,6 64.006,6C64.029,6 64.052,6 64.074,6C64.097,6 64.12,6 64.142,6C64.165,6 64.188,6 64.21,6C64.233,6 64.256,6 64.279,6C64.301,6 64.324,6 64.347,6C64.37,6 64.392,6 64.415,6C64.438,6 64.46,6 64.483,6C64.506,6 64.529,6 64.551,6C64.574,6 64.597,6 64.619,6C64.642,6 64.665,6 64.688,6C64.71,6 64.733,6 64.756,6C64.779,6 64.801,6 64.824,6C64.847,6 64.87,6 64.892,6C64.915,6 64.938,6 64.961,6C64.983,6 65.006,6 65.029,6C65.051,6 65.074,6 65.097,6C65.12,6 65.142,6 65.165,6C65.188,6 65.211,6 65.233,6C65.256,6 65.279,6 65.302,6C65.324,6 65.347,6 65.37,6C65.393,6 65.415,6 65.438,6C65.461,6 65.484,6 65.506,6C65.529,6 65.552,6 65.575,6C65.597,6 65.62,6 65.643,6C65.666,6 65.688,6 65.711,6C65.734,6 65.757,6 65.779,6C65.802,6 65.825,6 65.848,6C65.87,6 65.893,6 65.916,6C65.938,6 65.961,6 65.984,6C66.007,6 66.029,6 66.052,6C66.075,6 66.098,6 66.12,6C66.143,6 66.166,6 66.188,6C66.211,6 66.234,6 66.257,6C66.279,6 66.302,6 66.325,6C66.347,6 66.37,6 66.393,6C66.416,6 66.438,6 66.461,6C66.484,6 66.506,6 66.529,6C66.552,6 66.574,6 66.597,6C66.62,6 66.642,6 66.665,6C66.688,6 66.71,6 66.733,6C66.756,6 66.778,6 66.801,6C66.824,6 66.846,6 66.869,6C66.892,6 66.914,6 66.937,6C66.96,6 66.982,6 67.005,6C67.028,6 67.05,6 67.073,6C67.096,6 67.118,6 67.141,6C67.163,6 67.186,6 67.209,6C67.231,6 67.254,6 67.277,6C67.299,6 67.322,6 67.344,6C67.367,6 67.389,6 67.412,6C67.435,6 67.457,6 67.48,6C67.502,6 67.525,6 67.548,6C67.57,6 67.593,6 67.615,6C67.638,6 67.66,6 67.683,6C67.705,6 67.728,6 67.75,6C67.773,6 67.796,6 67.818,6C67.841,6 67.863,6 67.886,6C67.908,6 67.931,6 67.953,6C67.976,6 67.998,6 68.02,6C68.043,6 68.065,6 68.088,6C68.11,6 68.133,6 68.155,6C68.178,6 68.2,6 68.223,6C68.245,6 68.267,6 68.29,6C68.312,6 68.335,6 68.357,6C68.38,6 68.402,6 68.424,6C68.447,6 68.469,6 68.491,6C68.514,6 68.536,6 68.559,6C68.581,6 68.603,6 68.626,6C68.648,6 68.67,6 68.693,6C68.715,6 68.737,6 68.76,6C68.782,6 68.804,6 68.827,6C68.849,6 68.871,6 68.893,6C68.916,6 68.938,6 68.96,6C68.982,6 69.005,6 69.027,6C69.049,6 69.071,6 69.094,6C69.116,6 69.138,6 69.16,6C69.182,6 69.205,6 69.227,6C69.249,6 69.271,6 69.293,6C69.315,6 69.338,6 69.36,6C69.382,6 69.404,6 69.426,6C69.448,6 69.47,6 69.492,6C69.515,6 69.537,6 69.559,6C69.581,6 69.603,6 69.625,6C69.647,6 69.669,6 69.691,6C69.713,6 69.735,6 69.757,6C69.779,6 69.801,6 69.823,6C69.845,6 69.867,6 69.889,6C69.911,6 69.933,6 69.955,6C69.977,6 69.999,6 70.021,6C70.043,6 70.065,6 70.087,6C70.108,6 70.13,6 70.152,6C70.174,6 70.196,6 70.218,6C70.24,6 70.262,6 70.283,6C70.305,6 70.327,6 70.349,6C70.371,6 70.392,6 70.414,6C70.436,6 70.458,6 70.479,6C70.501,6 70.523,6 70.545,6C70.566,6 70.588,6 70.61,6C70.631,6 70.653,6 70.675,6C70.697,6 70.718,6 70.74,6C70.761,6 70.783,6 70.805,6C70.826,6 70.848,6 70.87,6C70.891,6 70.913,6 70.934,6C70.956,6 70.977,6 70.999,6C71.02,6 71.042,6 71.063,6C71.085,6 71.106,6 71.128,6C71.149,6 71.171,6 71.192,6C71.214,6 71.235,6 71.257,6C71.278,6 71.299,6 71.321,6C71.342,6 71.364,6 71.385,6C71.406,6 71.428,6 71.449,6C71.47,6 71.492,6 71.513,6C71.534,6 71.555,6 71.577,6C71.598,6 71.619,6 71.64,6C71.662,6 71.683,6 71.704,6C71.725,6 71.746,6 71.768,6C71.789,6 71.81,6 71.831,6C71.852,6 71.873,6 71.894,6C71.916,6 71.937,6 71.958,6C71.979,6 72,6 72.021,6C72.042,6 72.063,6 72.084,6C72.105,6 72.126,6 72.147,6C72.168,6 72.189,6 72.21,6C72.231,6 72.251,6 72.272,6C72.293,6 72.314,6 72.335,6C72.356,6 72.377,6 72.398,6C72.418,6 72.439,6 72.46,6C72.481,6 72.502,6 72.522,6C72.543,6 72.564,6 72.584,6C72.605,6 72.626,6 72.647,6C72.667,6 72.688,6 72.709,6C72.729,6 72.75,6 72.77,6C72.791,6 72.812,6 72.832,6C72.853,6 72.873,6 72.894,6C72.914,6 72.935,6 72.955,6C72.976,6 72.996,6 73.017,6C73.037,6 73.058,6 73.078,6C73.098,6 73.119,6 73.139,6C73.159,6 73.18,6 73.2,6C73.22,6 73.241,6 73.261,6C73.281,6 73.302,6 73.322,6C73.342,6 73.362,6 73.383,6C73.403,6 73.423,6 73.443,6C73.463,6 73.483,6 73.504,6C73.524,6 73.544,6 73.564,6C73.584,6 73.604,6 73.624,6C73.644,6 73.664,6 73.684,6C73.704,6 73.724,6 73.744,6C73.764,6 73.784,6 73.804,6C73.824,6 73.844,6 73.863,6C73.883,6 73.903,6 73.923,6C73.943,6 73.963,6 73.982,6C74.002,6 74.022,6 74.042,6C74.061,6 74.081,6 74.101,6C74.12,6 74.14,6 74.16,6C74.179,6 74.199,6 74.219,6C74.238,6 74.258,6 74.277,6C74.297,6 74.316,6 74.336,6C74.355,6 74.375,6 74.394,6C74.414,6 74.433,6 74.453,6C74.472,6 74.491,6 74.511,6C74.53,6 74.549,6 74.569,6C74.588,6 74.607,6 74.627,6C74.646,6 74.665,6 74.684,6C74.703,6 74.723,6 74.742,6C74.761,6 74.78,6 74.799,6C74.818,6 74.837,6 74.857,6C74.876,6 74.895,6 74.914,6C74.933,6 74.952,6 74.971,6C74.99,6 75.009,6 75.027,6C75.046,6 75.065,6 75.084,6C75.103,6 75.122,6 75.141,6C75.159,6 75.178,6 75.197,6C75.216,6 75.234,6 75.253,6C75.272,6 75.291,6 75.309,6C75.328,6 75.347,6 75.365,6C75.384,6 75.402,6 75.421,6C75.439,6 75.458,6 75.476,6C75.495,6 75.513,6 75.532,6C75.55,6 75.569,6 75.587,6C75.606,6 75.624,6 75.642,6C75.661,6 75.679,6 75.697,6C75.715,6 75.734,6 75.752,6C75.77,6 75.788,6 75.806,6C75.825,6 75.843,6 75.861,6C75.879,6 75.897,6 75.915,6C75.933,6 75.951,6 75.969,6C75.987,6 76.005,6 76.023,6C76.041,6 76.059,6 76.077,6C76.095,6 76.113,6 76.131,6C76.148,6 76.166,6 76.184,6C76.202,6 76.219,6 76.237,6C76.255,6 76.273,6 76.29,6C76.308,6 76.326,6 76.343,6C76.361,6 76.378,6 76.396,6C76.413,6 76.431,6 76.448,6C76.466,6 76.483,6 76.501,6C76.518,6 76.536,6 76.553,6C76.57,6 76.588,6 76.605,6C76.622,6 76.64,6 76.657,6C76.674,6 76.691,6 76.708,6C76.726,6 76.743,6 76.76,6C76.777,6 76.794,6 76.811,6C76.828,6 76.845,6 76.862,6C76.879,6 76.896,6 76.913,6C76.93,6 76.947,6 76.964,6C76.981,6 76.997,6 77.014,6C77.031,6 77.048,6 77.065,6C77.081,6 77.098,6 77.115,6C77.131,6 77.148,6 77.165,6C77.181,6 77.198,6 77.214,6C77.231,6 77.247,6 77.264,6C77.28,6 77.297,6 77.313,6C77.33,6 77.346,6 77.363,6C77.379,6 77.395,6 77.411,6C77.428,6 77.444,6 77.46,6C77.476,6 77.493,6 77.509,6C77.525,6 77.541,6 77.557,6C77.573,6 77.589,6 77.605,6C77.621,6 77.637,6 77.653,6C77.669,6 77.685,6 77.701,6C77.717,6 77.733,6 77.749,6C77.764,6 77.78,6 77.796,6C77.812,6 77.828,6 77.843,6C77.859,6 77.875,6 77.89,6C77.906,6 77.921,6 77.937,6C77.952,6 77.968,6 77.983,6C77.999,6 78.014,6 78.03,6C78.045,6 78.061,6 78.076,6C78.091,6 78.106,6 78.122,6C78.137,6 78.152,6 78.167,6C78.183,6 78.198,6 78.213,6C78.228,6 78.243,6 78.258,6C78.273,6 78.288,6 78.303,6C78.318,6 78.333,6 78.348,6C78.363,6 78.378,6 78.393,6C78.407,6 78.422,6 78.437,6C78.452,6 78.466,6 78.481,6C78.496,6 78.511,6 78.525,6C78.54,6 78.554,6 78.569,6C78.583,6 78.598,6 78.612,6C78.627,6 78.641,6 78.656,6C78.67,6 78.684,6 78.699,6C78.713,6 78.727,6 78.742,6C78.756,6 78.77,6 78.784,6C78.798,6 78.812,6 78.826,6C78.841,6 78.855,6 78.869,6C78.883,6 78.897,6 78.911,6C78.924,6 78.938,6 78.952,6C78.966,6 78.98,6 78.994,6C79.007,6 79.021,6 79.035,6C79.049,6 79.062,6 79.076,6C79.089,6 79.103,6 79.117,6C79.13,6 79.144,6 79.157,6C79.171,6 79.184,6 79.197,6C79.211,6 79.224,6 79.237,6C79.251,6 79.264,6 79.277,6C79.29,6 79.304,6 79.317,6C79.33,6 79.343,6 79.356,6C79.369,6 79.382,6 79.395,6C79.408,6 79.421,6 79.434,6C79.447,6 79.46,6 79.473,6C79.485,6 79.498,6 79.511,6C79.524,6 79.536,6 79.549,6C79.562,6 79.574,6 79.587,6C79.599,6 79.612,6 79.624,6C79.637,6 79.649,6 79.662,6C79.674,6 79.687,6 79.699,6C79.711,6 79.724,6 79.736,6C79.748,6 79.76,6 79.772,6C79.785,6 79.797,6 79.809,6C79.821,6 79.833,6 79.845,6C79.857,6 79.869,6 79.881,6C79.893,6 79.904,6 79.916,6C79.928,6 79.94,6 79.952,6C79.963,6 79.975,6 79.987,6C79.998,6 80.01,6 80.021,6C80.033,6 80.045,6 80.056,6C80.067,6 80.079,6 80.09,6C80.102,6 80.113,6 80.124,6C80.136,6 80.147,6 80.158,6C80.169,6 80.18,6 80.192,6C80.203,6 80.214,6 80.225,6C80.236,6 80.247,6 80.258,6C80.269,6 80.28,6 80.29,6C80.301,6 80.312,6 80.323,6C80.334,6 80.344,6 80.355,6C80.366,6 80.376,6 80.387,6C80.397,6 80.408,6 80.418,6C80.429,6 80.439,6 80.45,6C80.46,6 80.471,6 80.481,6C80.491,6 80.501,6 80.512,6C80.522,6 80.532,6 80.542,6C80.552,6 80.562,6 80.572,6C80.582,6 80.592,6 80.602,6C80.612,6 80.622,6 80.632,6C80.642,6 80.652,6 80.662,6C80.671,6 80.681,6 80.691,6C80.7,6 80.71,6 80.719,6C80.729,6 80.739,6 80.748,6C80.758,6 80.767,6 80.776,6C80.786,6 80.795,6 80.804,6C80.814,6 80.823,6 80.832,6C80.841,6 80.85,6 80.859,6C80.869,6 80.878,6 80.887,6C80.896,6 80.905,6 80.913,6C80.922,6 80.931,6 80.94,6C80.949,6 80.958,6 80.966,6C80.975,6 80.984,6 80.992,6C81.001,6 81.009,6 81.018,6C81.026,6 81.035,6 81.043,6C81.052,6 81.06,6 81.068,6C81.077,6 81.085,6 81.093,6C81.101,6 81.11,6 81.118,6C81.126,6 81.134,6 81.142,6C81.15,6 81.158,6 81.166,6C81.174,6 81.182,6 81.189,6C81.197,6 81.205,6 81.213,6C81.22,6 81.228,6 81.236,6C81.243,6 81.251,6 81.258,6C81.266,6 81.273,6 81.281,6C81.288,6 81.296,6 81.303,6C81.31,6 81.318,6 81.325,6C81.332,6 81.339,6 81.346,6C81.353,6 81.36,6 81.367,6C81.374,6 81.381,6 81.388,6C81.395,6 81.402,6 81.409,6C81.416,6 81.422,6 81.429,6L81.429,4ZM52.858,4C51.328,4 49.532,4.229 47.803,5.382C46.075,6.534 44.538,8.524 43.346,11.801L45.226,12.485C46.32,9.477 47.64,7.895 48.912,7.046C50.183,6.199 51.53,6 52.858,6L52.858,4Z" fill="#5E80C9"/>
<path d="M5.014,90.715C4.619,91.102 4.613,91.735 5,92.129C5.387,92.523 6.02,92.529 6.414,92.143L5.014,90.715ZM82.208,92.19C82.628,92.548 83.259,92.498 83.618,92.078C83.976,91.657 83.926,91.026 83.505,90.668L82.208,92.19ZM6.414,92.143C12.629,86.045 23.021,78.754 36.106,76.63C49.141,74.515 64.982,77.505 82.208,92.19L83.505,90.668C65.874,75.638 49.453,72.438 35.786,74.656C22.168,76.866 11.418,84.431 5.014,90.715L6.414,92.143Z" fill="#5D7DC4"/>
<path d="M12.803,93.645C12.45,94.07 12.507,94.7 12.931,95.054C13.355,95.407 13.986,95.35 14.34,94.926L12.803,93.645ZM73.493,94.896C73.83,95.333 74.458,95.415 74.896,95.078C75.333,94.741 75.415,94.113 75.078,93.675L73.493,94.896ZM14.34,94.926C19.686,88.511 27.976,80.024 38.129,77.36C43.167,76.038 48.683,76.146 54.579,78.69C60.492,81.242 66.848,86.272 73.493,94.896L75.078,93.675C68.294,84.871 61.686,79.579 55.371,76.854C49.04,74.122 43.064,73.998 37.621,75.426C26.81,78.262 18.171,87.204 12.803,93.645L14.34,94.926Z" fill="#5D7DC4"/>
<path d="M27.631,96.801C27.443,97.32 27.711,97.894 28.23,98.083C28.749,98.271 29.322,98.004 29.511,97.485L27.631,96.801ZM59.791,97.527C60.003,98.037 60.588,98.278 61.098,98.066C61.608,97.854 61.849,97.269 61.637,96.759L59.791,97.527ZM29.511,97.485C31.645,91.618 33.841,86.696 36.131,83.114C38.446,79.49 40.728,77.442 42.949,76.951C45.062,76.483 47.507,77.36 50.382,80.619C53.258,83.878 56.389,89.341 59.791,97.527L61.637,96.759C58.207,88.506 54.976,82.803 51.882,79.296C48.789,75.791 45.66,74.303 42.517,74.998C39.482,75.67 36.825,78.313 34.445,82.037C32.04,85.801 29.784,90.882 27.631,96.801L29.511,97.485Z" fill="#5D7DC4"/>
<line x1="43.286" y1="75.714" x2="43.286" y2="99.286" stroke="#5D7DC4" stroke-width="1" stroke-miterlimit="3.999327" stroke-linecap="round"/>
<path d="M9.726,87.673C9.23,87.43 8.631,87.635 8.388,88.131C8.145,88.627 8.35,89.226 8.846,89.469L9.726,87.673ZM79.733,89.466C80.227,89.219 80.428,88.618 80.181,88.124C79.934,87.63 79.333,87.43 78.839,87.677L79.733,89.466ZM8.846,89.469C21.142,95.497 50.777,103.944 79.733,89.466L78.839,87.677C50.653,101.77 21.716,93.551 9.726,87.673L8.846,89.469Z" fill="#5D7DC4"/>
<path d="M23.123,79.036C22.591,78.889 22.04,79.202 21.893,79.734C21.747,80.266 22.059,80.817 22.591,80.964L23.123,79.036ZM65.243,80.97C65.779,80.836 66.104,80.293 65.97,79.757C65.836,79.222 65.294,78.896 64.758,79.03L65.243,80.97ZM22.591,80.964C29.616,82.902 46.749,85.594 65.243,80.97L64.758,79.03C46.681,83.549 29.909,80.908 23.123,79.036L22.591,80.964Z" fill="#5D7DC4"/>
<path d="M17.045,19.479L11.027,11.979L16.648,9.872L17.045,19.479Z" fill="#5F83CF"/>
<path d="M15.488,21.407L5.877,21.096L7.934,15.457L15.488,21.407Z" fill="#5F83CF"/>
<path d="M20.388,19.479L26.405,11.979L20.784,9.872L20.388,19.479Z" fill="#5F83CF"/>
<path d="M21.944,21.407L31.555,21.096L29.498,15.457L21.944,21.407Z" fill="#5F83CF"/>
<path d="M17.045,25.664L11.027,33.164L16.648,35.271L17.045,25.664Z" fill="#5F83CF"/>
<path d="M15.488,23.735L5.877,24.047L7.934,29.686L15.488,23.735Z" fill="#5F83CF"/>
<path d="M20.388,25.664L26.405,33.164L20.784,35.271L20.388,25.664Z" fill="#5F83CF"/>
<path d="M21.944,23.735L31.555,24.047L29.498,29.686L21.944,23.735Z" fill="#5F83CF"/>
<path d="M18.572,27.143C20.939,27.143 22.858,25.224 22.858,22.857C22.858,20.49 20.939,18.571 18.572,18.571C16.205,18.571 14.286,20.49 14.286,22.857C14.286,25.224 16.205,27.143 18.572,27.143Z" fill="#5F83CF"/>
</svg>
