<svg width="50" height="50" viewBox="0 0 50 50" fill="none" xmlns="http://www.w3.org/2000/svg" xmlns:xlink="http://www.w3.org/1999/xlink">
<path d="M47.725,24.807C47.725,37.25 37.638,47.337 25.196,47.337L25.196,49.337C38.743,49.337 49.725,38.355 49.725,24.807L47.725,24.807ZM25.196,47.337C12.753,47.337 2.666,37.25 2.666,24.807L0.666,24.807C0.666,38.355 11.648,49.337 25.196,49.337L25.196,47.337ZM2.666,24.807C2.666,12.365 12.753,2.278 25.196,2.278L25.196,0.278C11.648,0.278 0.666,11.26 0.666,24.807L2.666,24.807ZM25.196,2.278C37.638,2.278 47.725,12.365 47.725,24.807L49.725,24.807C49.725,11.26 38.743,0.278 25.196,0.278L25.196,2.278Z" fill="#E4B474"/>
<path d="M37.631,25.173L38.104,26.054L39.744,25.173L38.104,24.292L37.631,25.173ZM28.269,30.203L27.796,29.322L27.796,29.322L28.269,30.203ZM18.907,35.233L17.907,35.233L17.907,36.905L19.38,36.114L18.907,35.233ZM18.907,15.114L19.38,14.233L17.907,13.441L17.907,15.114L18.907,15.114ZM37.158,24.292L27.796,29.322L28.742,31.084L38.104,26.054L37.158,24.292ZM27.796,29.322L18.433,34.352L19.38,36.114L28.742,31.084L27.796,29.322ZM19.907,35.233L19.907,25.173L17.907,25.173L17.907,35.233L19.907,35.233ZM19.907,25.173L19.907,15.114L17.907,15.114L17.907,25.173L19.907,25.173ZM18.433,15.994L27.796,21.024L28.742,19.262L19.38,14.233L18.433,15.994ZM27.796,21.024L37.158,26.054L38.104,24.292L28.742,19.262L27.796,21.024Z" fill="#E4B474"/>
</svg>
