<svg width="42" height="50" viewBox="0 0 42 50" fill="none" xmlns="http://www.w3.org/2000/svg" xmlns:xlink="http://www.w3.org/1999/xlink">
<path d="M27.515,1.315L28.223,0.609L27.93,0.315L27.515,0.315L27.515,1.315ZM39.146,12.993L40.146,12.993L40.146,12.58L39.855,12.288L39.146,12.993ZM6.43,2.315L27.515,2.315L27.515,0.315L6.43,0.315L6.43,2.315ZM26.806,2.02L38.438,13.699L39.855,12.288L28.223,0.609L26.806,2.02ZM38.146,12.993L38.146,43.054L40.146,43.054L40.146,12.993L38.146,12.993ZM38.146,43.054C38.146,45.471 36.164,47.453 33.747,47.453L33.747,49.453C37.269,49.453 40.146,46.576 40.146,43.054L38.146,43.054ZM33.747,47.453L6.43,47.453L6.43,49.453L33.747,49.453L33.747,47.453ZM6.43,47.453C4.012,47.453 2.03,45.471 2.03,43.054L0.03,43.054C0.03,46.576 2.908,49.453 6.43,49.453L6.43,47.453ZM2.03,43.054L2.03,6.714L0.03,6.714L0.03,43.054L2.03,43.054ZM2.03,6.714C2.03,4.296 4.012,2.315 6.43,2.315L6.43,0.315C2.908,0.315 0.03,3.192 0.03,6.714L2.03,6.714Z" fill="#E2D4C4"/>
<path d="M8.293,19.796C7.74,19.794 7.291,20.239 7.288,20.792C7.286,21.344 7.731,21.794 8.284,21.796L8.293,19.796ZM32.375,21.904C32.928,21.906 33.377,21.46 33.38,20.908C33.382,20.356 32.937,19.906 32.384,19.904L32.375,21.904ZM8.284,21.796L32.375,21.904L32.384,19.904L8.293,19.796L8.284,21.796Z" fill="#E2D4C4"/>
<path d="M8.311,26.395C7.759,26.392 7.309,26.838 7.307,27.39C7.304,27.942 7.75,28.392 8.302,28.395L8.311,26.395ZM32.394,28.502C32.946,28.504 33.396,28.059 33.398,27.506C33.401,26.954 32.955,26.504 32.403,26.502L32.394,28.502ZM8.302,28.395L32.394,28.502L32.403,26.502L8.311,26.395L8.302,28.395Z" fill="#E2D4C4"/>
<path d="M8.311,33.346C7.759,33.343 7.309,33.789 7.307,34.341C7.304,34.894 7.75,35.343 8.302,35.346L8.311,33.346ZM32.394,35.453C32.946,35.456 33.396,35.01 33.398,34.458C33.401,33.905 32.955,33.456 32.403,33.453L32.394,35.453ZM8.302,35.346L32.394,35.453L32.403,33.453L8.311,33.346L8.302,35.346Z" fill="#E2D4C4"/>
<path d="M8.127,40.173C7.574,40.171 7.125,40.617 7.122,41.169C7.12,41.721 7.565,42.171 8.118,42.173L8.127,40.173ZM32.209,42.281C32.762,42.283 33.211,41.838 33.214,41.285C33.216,40.733 32.771,40.283 32.218,40.281L32.209,42.281ZM8.118,42.173L32.209,42.281L32.218,40.281L8.127,40.173L8.118,42.173Z" fill="#E2D4C4"/>
</svg>
