<svg width="60" height="62" viewBox="0 0 60 62" fill="none" xmlns="http://www.w3.org/2000/svg" xmlns:xlink="http://www.w3.org/1999/xlink">
<rect  x="0" y="6" width="56" height="52" rx="6" stroke="#E4B474" stroke-width="2" stroke-miterlimit="3.999327"/>
<line x1="14" y1="0" x2="14" y2="14" stroke="#E4B474" stroke-width="2" stroke-miterlimit="3.999327"/>
<line x1="30" y1="0" x2="30" y2="14" stroke="#E4B474" stroke-width="2" stroke-miterlimit="3.999327"/>
<line x1="46" y1="0" x2="46" y2="14" stroke="#E4B474" stroke-width="2" stroke-miterlimit="3.999327"/>
<line x1="10" y1="24" x2="16" y2="24" stroke="#E4B474" stroke-width="2" stroke-miterlimit="3.999327"/>
<line x1="22" y1="24" x2="28" y2="24" stroke="#E4B474" stroke-width="2" stroke-miterlimit="3.999327"/>
<line x1="44" y1="24" x2="50" y2="24" stroke="#E4B474" stroke-width="2" stroke-miterlimit="3.999327"/>
<line x1="32" y1="24" x2="38" y2="24" stroke="#E4B474" stroke-width="2" stroke-miterlimit="3.999327"/>
<line x1="10" y1="32" x2="16" y2="32" stroke="#E4B474" stroke-width="2" stroke-miterlimit="3.999327"/>
<line x1="22" y1="32" x2="28" y2="32" stroke="#E4B474" stroke-width="2" stroke-miterlimit="3.999327"/>
<line x1="32" y1="32" x2="38" y2="32" stroke="#E4B474" stroke-width="2" stroke-miterlimit="3.999327"/>
<line x1="44" y1="32" x2="50" y2="32" stroke="#E4B474" stroke-width="2" stroke-miterlimit="3.999327"/>
<line x1="10" y1="40" x2="16" y2="40" stroke="#E4B474" stroke-width="2" stroke-miterlimit="3.999327"/>
<line x1="22" y1="40" x2="28" y2="40" stroke="#E4B474" stroke-width="2" stroke-miterlimit="3.999327"/>
<line x1="32" y1="40" x2="38" y2="40" stroke="#E4B474" stroke-width="2" stroke-miterlimit="3.999327"/>
<line x1="44" y1="40" x2="50" y2="40" stroke="#E4B474" stroke-width="2" stroke-miterlimit="3.999327"/>
</svg>
