<svg width="48" height="30" viewBox="0 0 48 30" fill="none" xmlns="http://www.w3.org/2000/svg" xmlns:xlink="http://www.w3.org/1999/xlink">
<path d="M4.387,11.893C3.282,11.893 2.387,12.789 2.387,13.893C2.387,14.998 3.282,15.893 4.387,15.893L4.387,11.893ZM44.387,15.893C45.491,15.893 46.387,14.998 46.387,13.893C46.387,12.789 45.491,11.893 44.387,11.893L44.387,15.893ZM4.387,15.893L44.387,15.893L44.387,11.893L4.387,11.893L4.387,15.893Z" transform="rotate(88 24.387 13.893)" fill="#000000"/>
<path d="M2.728,12.929C1.624,12.929 0.728,13.824 0.728,14.929C0.728,16.034 1.624,16.929 2.728,16.929L2.728,12.929ZM42.728,16.929C43.833,16.929 44.728,16.034 44.728,14.929C44.728,13.824 43.833,12.929 42.728,12.929L42.728,16.929ZM2.728,16.929L42.728,16.929L42.728,12.929L2.728,12.929L2.728,16.929Z" transform="rotate(-90 22.728 14.929)" fill="#000000"/>
</svg>
