<svg width="40" height="40" viewBox="0 0 40 40" fill="none" xmlns="http://www.w3.org/2000/svg">
<rect width="40" height="40" fill="#F5F5F5"/>
<g clip-path="url(#clip0_0_1)">
<path d="M19.6327 32.2548C26.1356 32.2548 31.4072 26.9831 31.4072 20.4802C31.4072 13.9773 26.1356 8.70569 19.6327 8.70569C13.1298 8.70569 7.85815 13.9773 7.85815 20.4802C7.85815 26.9831 13.1298 32.2548 19.6327 32.2548Z" fill="#544C41" stroke="#B4AEA7" stroke-width="1.5" stroke-miterlimit="22.9256"/>
<path fill-rule="evenodd" clip-rule="evenodd" d="M14.8755 12.8947C15.1427 12.5624 15.3121 12.3538 15.4621 12.1519C15.612 11.9498 15.7422 11.7543 15.9639 11.5979C16.1854 11.4414 16.4981 11.3241 16.824 11.3241C17.1498 11.3241 17.4888 11.4414 17.7494 11.6566C18.0101 11.8716 18.1925 12.1844 18.2838 12.3408C18.3749 12.4972 18.3749 12.4972 18.4793 12.4061C18.5835 12.3148 18.792 12.1322 18.8376 11.8259C18.8833 11.5197 18.766 11.0897 18.8247 10.8812C18.8833 10.6726 19.1179 10.6855 19.3525 10.8745C19.5871 11.0635 19.8216 11.4285 20.115 11.6631C20.4082 11.8976 20.7601 12.002 20.9491 12.1519C21.1381 12.3017 21.1642 12.4971 20.9231 12.6535C20.6819 12.8099 20.1737 12.9272 19.7761 13.1619C19.3785 13.3965 19.0919 13.7484 18.9355 13.931C18.779 14.1134 18.7529 14.1264 18.9419 14.1329C19.1308 14.1394 19.535 14.1394 19.8413 14.335C20.1475 14.5305 20.356 14.9214 20.6428 15.2082C20.9295 15.4948 21.2945 15.6773 21.4769 15.7686C21.6593 15.8597 21.6593 15.8597 21.7701 15.6513C21.8809 15.4427 22.1026 15.0256 22.1808 14.6216C22.259 14.2175 22.1937 13.8266 22.2003 13.5529C22.2068 13.2792 22.285 13.1228 22.5522 13.2335C22.8194 13.3443 23.2755 13.7224 23.6991 13.9114C24.1227 14.1003 24.5136 14.1003 24.9503 14.3284C25.3868 14.5565 25.8692 15.0127 26.0972 15.3255C26.3253 15.6382 26.2991 15.8077 26.2862 15.8924C26.2731 15.977 26.2731 15.977 26.0647 15.9967C25.8561 16.0161 25.439 16.0552 25.1002 16.2769C24.7613 16.4984 24.5007 16.9024 24.2009 17.2609C23.9012 17.6194 23.5622 17.9321 23.2364 18.1601C22.9105 18.3882 22.5978 18.5317 22.4219 18.8836C22.2459 19.2354 22.2068 19.7959 22.1612 20.2781C22.1155 20.7603 22.0635 21.1644 21.9787 21.3794C21.894 21.5944 21.7767 21.6206 21.5551 21.4967C21.3336 21.3729 21.0077 21.0992 20.6624 20.8711C20.317 20.643 19.952 20.4606 19.6328 20.4802C19.3134 20.4997 19.0397 20.7212 18.8573 21.0275C18.6747 21.3338 18.5835 21.7248 18.5575 22.0833C18.5313 22.4416 18.5704 22.7675 18.6878 22.9696C18.8051 23.1715 19.0006 23.2497 19.1701 23.2759C19.3394 23.3019 19.4829 23.2757 19.6002 23.1455C19.7174 23.0151 19.8087 22.7805 19.9195 22.7414C20.0302 22.7023 20.1605 22.8587 20.2257 23.0673C20.2909 23.2757 20.2909 23.5365 20.3822 23.6995C20.4733 23.8623 20.6559 23.9274 20.8383 23.9079C21.0208 23.8883 21.2032 23.7841 21.2879 23.921C21.3725 24.0578 21.3596 24.4357 21.2879 24.8202C21.2163 25.2047 21.0859 25.5956 20.9622 25.7846C20.8383 25.9736 20.721 25.9606 20.6102 25.7913C20.4995 25.6218 20.3951 25.2959 20.1997 24.9832C20.0042 24.6704 19.7174 24.3705 19.4242 24.1555C19.131 23.9405 18.8311 23.8101 18.4857 23.7841C18.1403 23.7581 17.7494 23.8361 17.4757 23.8036C17.202 23.771 17.0456 23.6277 16.9479 23.3475C16.85 23.0673 16.8109 22.6502 16.5308 22.194C16.2505 21.7379 15.7291 21.2425 15.3186 20.7798C14.9081 20.3171 14.6083 19.8871 14.263 19.6656C13.9176 19.4439 13.5267 19.4309 13.4224 19.1963C13.3181 18.9617 13.5005 18.5055 13.6569 17.9777C13.8133 17.4499 13.9436 16.8502 13.8524 16.5179C13.7611 16.1856 13.4485 16.1204 13.1944 15.9967C12.9401 15.8728 12.7446 15.6904 12.7317 15.4297C12.7186 15.1691 12.8879 14.8301 13.1096 14.602C13.3312 14.3739 13.6047 14.2568 13.9241 13.9701C14.2433 13.6833 14.6083 13.227 14.8755 12.8947Z" fill="#B4AEA7"/>
<path fill-rule="evenodd" clip-rule="evenodd" d="M22.2326 25.7C22.1935 25.8824 22.337 26.13 22.3175 26.3908C22.2979 26.6514 22.1153 26.925 21.8808 27.0685C21.6462 27.2118 21.3594 27.2247 21.1704 27.3877C20.9814 27.5507 20.8903 27.8635 20.8381 28.248C20.7859 28.6325 20.773 29.0886 20.9163 29.382C21.0596 29.6752 21.3594 29.8054 21.7373 29.7403C22.1153 29.6752 22.5714 29.4144 22.8386 29.1734C23.1058 28.9322 23.184 28.7107 23.3666 28.5348C23.549 28.3587 23.8357 28.2285 24.1225 28.0199C24.4092 27.8113 24.696 27.5246 25.087 27.4139C25.4779 27.3029 25.9732 27.3682 26.3185 27.4008C26.6639 27.4333 26.8595 27.4333 26.8725 27.1792C26.8855 26.925 26.7161 26.4168 26.4033 26.0585C26.0905 25.7 25.6343 25.4914 25.2303 25.4263C24.8262 25.3611 24.4744 25.4392 24.1812 25.3675C23.8879 25.2959 23.6532 25.0743 23.4186 25.0352C23.184 24.9961 22.9495 25.1396 22.7215 25.27C22.4934 25.4003 22.2717 25.5174 22.2326 25.7Z" fill="#B4AEA7"/>
<path fill-rule="evenodd" clip-rule="evenodd" d="M28.4514 18.3267C28.3774 18.6125 28.417 19.0855 28.5205 19.6376C28.624 20.1896 28.7914 20.8205 29.0281 21.3528C29.2646 21.885 29.5703 22.3188 29.7231 22.6392C29.8759 22.9594 29.8759 23.1664 29.94 23.1468C30.0039 23.127 30.1322 22.8806 30.2455 22.4765C30.3588 22.0724 30.4573 21.5104 30.4031 21.131C30.3489 20.7514 30.1419 20.5543 30.1025 20.17C30.0631 19.7855 30.1912 19.2138 30.206 18.6963C30.2208 18.1788 30.1223 17.7155 29.9301 17.3705C29.7378 17.0254 29.452 16.7988 29.2499 16.7347C29.0477 16.6706 28.9295 16.7691 28.8852 16.9811C28.8407 17.193 28.8704 17.5182 28.7916 17.7302C28.7127 17.9421 28.5253 18.0408 28.4514 18.3267Z" fill="#B4AEA7"/>
<path fill-rule="evenodd" clip-rule="evenodd" d="M28.2157 14.6343C28.4214 14.7971 28.6444 14.9772 28.7859 15.1959C28.9273 15.4144 28.9872 15.6715 29.0044 15.8387C29.0215 16.0059 28.9959 16.083 28.893 16.1002C28.7901 16.1173 28.6101 16.0745 28.4687 15.9117C28.3272 15.7487 28.2243 15.4658 28.0915 15.1572C27.9586 14.8486 27.7958 14.5142 27.8086 14.42C27.8214 14.3257 28.01 14.4714 28.2157 14.6343Z" fill="#B4AEA7"/>
</g>
<circle cx="20" cy="20" r="19.5" stroke="#B4AEA7"/>
<defs>
<clipPath id="clip0_0_1">
<rect width="25" height="25" fill="white" transform="translate(7 8)"/>
</clipPath>
</defs>
</svg>
