<svg width="25" height="26" viewBox="0 0 25 26" fill="none" xmlns="http://www.w3.org/2000/svg">
<g clip-path="url(#clip0_416_1364)">
<path d="M22.9727 1.17578H2.2223C1.45488 1.17578 0.832764 1.7979 0.832764 2.56531V23.3158C0.832764 24.0832 1.45488 24.7053 2.2223 24.7053H22.9727C23.7401 24.7053 24.3623 24.0832 24.3623 23.3158V2.56531C24.3623 1.7979 23.7401 1.17578 22.9727 1.17578Z" stroke="#4D4B48" stroke-opacity="0.9" stroke-miterlimit="22.9256"/>
<path d="M1.29956 17.7402C2.57321 16.3331 3.84671 14.9261 4.53203 14.1862C5.21734 13.4463 5.31447 13.3736 5.4601 13.3372C5.60558 13.3008 5.79956 13.3008 6.40609 13.8709C7.01262 14.4409 8.03142 15.5811 9.05037 16.7212" stroke="#4D4B48" stroke-opacity="0.9" stroke-miterlimit="22.9256" stroke-linecap="round"/>
<path d="M6 22.3332C9.65739 18.0983 13.3149 13.8633 15.2319 11.7138C17.1488 9.56419 17.3251 9.5 17.5256 9.5C17.7261 9.5 17.9508 9.5642 19.0497 10.7353C20.1485 11.9063 22.1215 14.1841 23.1081 15.3231C24.0946 16.462 24.0946 16.462 24.0946 16.462" stroke="#4D4B48" stroke-opacity="0.9" stroke-miterlimit="22.9256" stroke-linecap="round"/>
<path d="M8.31662 9.37441C9.69866 9.37441 10.819 8.23252 10.819 6.82392C10.819 5.41533 9.69866 4.27344 8.31662 4.27344C6.93457 4.27344 5.81421 5.41533 5.81421 6.82392C5.81421 8.23252 6.93457 9.37441 8.31662 9.37441Z" stroke="#4D4B48" stroke-opacity="0.9" stroke-miterlimit="22.9256"/>
</g>
<defs>
<clipPath id="clip0_416_1364">
<rect width="25" height="25" fill="white" transform="translate(0 0.5)"/>
</clipPath>
</defs>
</svg>
