<svg width="80" height="80" viewBox="0 0 80 80" fill="none" xmlns="http://www.w3.org/2000/svg">
<circle cx="40" cy="40" r="39" fill="#3A547F" stroke="white" stroke-width="2"/>
<g clip-path="url(#clip0_209_553)">
<path fill-rule="evenodd" clip-rule="evenodd" d="M41.9285 26.7856C42.9148 26.7856 43.7143 27.5851 43.7143 28.5714V49.9999C43.7143 50.9861 42.9148 51.7856 41.9285 51.7856C40.9423 51.7856 40.1428 50.9861 40.1428 49.9999V28.5714C40.1428 27.5851 40.9423 26.7856 41.9285 26.7856Z" fill="white"/>
<path fill-rule="evenodd" clip-rule="evenodd" d="M57.2857 36.7856C58.2719 36.7856 59.0714 37.5851 59.0714 38.5714V49.6428C59.0714 50.629 58.2719 51.4285 57.2857 51.4285C56.2995 51.4285 55.5 50.629 55.5 49.6428V38.5714C55.5 37.5851 56.2995 36.7856 57.2857 36.7856Z" fill="white"/>
<path fill-rule="evenodd" clip-rule="evenodd" d="M49.4285 36.7856C50.4148 36.7856 51.2143 37.5851 51.2143 38.5714V49.6428C51.2143 50.629 50.4148 51.4285 49.4285 51.4285C48.4423 51.4285 47.6428 50.629 47.6428 49.6428V38.5714C47.6428 37.5851 48.4423 36.7856 49.4285 36.7856Z" fill="white"/>
<path fill-rule="evenodd" clip-rule="evenodd" d="M34.4285 36.7856C35.4148 36.7856 36.2143 37.5851 36.2143 38.5714V49.6428C36.2143 50.629 35.4148 51.4285 34.4285 51.4285C33.4423 51.4285 32.6428 50.629 32.6428 49.6428V38.5714C32.6428 37.5851 33.4423 36.7856 34.4285 36.7856Z" fill="white"/>
<path fill-rule="evenodd" clip-rule="evenodd" d="M41.7365 27.3697C42.0056 27.658 41.9901 28.11 41.7016 28.3793L20.2731 48.3792C19.9847 48.6484 19.5327 48.6328 19.2635 48.3444C18.9943 48.056 19.0099 47.604 19.2983 47.3348L40.8571 27.1428C41.1455 26.8736 41.4673 27.0813 41.7365 27.3697Z" fill="white"/>
<path fill-rule="evenodd" clip-rule="evenodd" d="M57.1017 37.3785C57.366 37.6714 57.3428 38.1231 57.05 38.3874L43 51.4285C42.7071 51.6928 41.6625 51.8428 41.3982 51.5499C41.134 51.2571 41.1571 50.8054 41.45 50.5411L56.2142 37.1428C56.5071 36.8785 56.8374 37.0856 57.1017 37.3785Z" fill="white"/>
<path fill-rule="evenodd" clip-rule="evenodd" d="M49.2452 37.3792C49.509 37.6724 49.4853 38.1241 49.1921 38.388L35.5 51.0713C35.2068 51.3353 34.1615 51.4853 33.8976 51.192C33.6337 50.8988 33.6575 50.4472 33.9507 50.1833L48.3571 37.1428C48.6503 36.8788 48.9813 37.086 49.2452 37.3792Z" fill="white"/>
<path fill-rule="evenodd" clip-rule="evenodd" d="M34.2194 37.352C34.4983 37.6309 34.4983 38.0832 34.2194 38.3621L32.0765 40.505C31.7976 40.7839 31.3453 40.7839 31.0664 40.505C30.7874 40.226 30.7874 39.7737 31.0664 39.4948L33 37.4999C33.2789 37.221 33.9404 37.073 34.2194 37.352Z" fill="white"/>
<path fill-rule="evenodd" clip-rule="evenodd" d="M61.415 47.4109C61.6614 47.719 61.6115 48.1685 61.3034 48.4149L58.3572 51.0714C58.0491 51.3179 56.9744 51.4686 56.728 51.1605C56.4815 50.8524 56.5315 50.4029 56.8395 50.1565L60.411 47.2994C60.719 47.0529 61.1685 47.1029 61.415 47.4109Z" fill="white"/>
<path fill-rule="evenodd" clip-rule="evenodd" d="M53.5578 47.4109C53.8042 47.719 53.7543 48.1685 53.4462 48.4149L50.5 51.0714C50.1919 51.3179 49.1172 51.4686 48.8708 51.1605C48.6244 50.8524 48.6743 50.4029 48.9824 50.1565L52.5538 47.2994C52.8619 47.0529 53.3113 47.1029 53.5578 47.4109Z" fill="white"/>
<path d="M49.0714 26.7856C49.9048 27.8571 51.0714 30.6428 49.0714 33.2142" stroke="white" stroke-linecap="round"/>
<path d="M52.2858 26.7856C53.1191 27.8571 54.2858 30.6428 52.2858 33.2142" stroke="white" stroke-linecap="round"/>
<path d="M55.1428 26.7856C55.9762 27.8571 57.1428 30.6428 55.1428 33.2142" stroke="white" stroke-linecap="round"/>
<path d="M18.3572 15.3572C18.5953 16.0715 19.5 17.5 21.2143 17.5C22.9286 17.5 31.4524 17.5 35.5 17.5C36.9286 17.5 39 17.9286 40.1429 21.0715" stroke="#5E80C9" stroke-linecap="round"/>
<path d="M61.5714 15.3572C61.3333 16.0715 60.4285 17.5 58.7143 17.5C57 17.5 48.4762 17.5 44.4285 17.5C43 17.5 41.2857 17.9286 40.1428 21.0715" stroke="#5E80C9" stroke-linecap="round"/>
<path d="M20.8572 60.7144C27.1667 54.5239 42 45.8572 59.4286 60.7144" stroke="#5D7DC4" stroke-linecap="round"/>
<path d="M24.7858 62.1428C30.1429 55.7143 41.7143 44.7143 55.1429 62.1428" stroke="#5D7DC4" stroke-linecap="round"/>
<path d="M32.2858 63.5714C36.5715 51.7857 41.5249 47.1327 48.3572 63.5714" stroke="#5D7DC4" stroke-linecap="round"/>
<path d="M40.1428 64.6429V52.8572" stroke="#5D7DC4" stroke-linecap="round"/>
<path d="M22.6428 59.2856C28.7143 62.2619 43.3571 66.4285 57.6428 59.2856" stroke="#5D7DC4" stroke-linecap="round"/>
<path d="M29.4286 55C32.8809 55.9524 41.3572 57.2857 50.5 55" stroke="#5D7DC4" stroke-linecap="round"/>
<path d="M26.5223 24.7396L23.5137 20.9894L26.324 19.9358L26.5223 24.7396Z" fill="#5F83CF"/>
<path d="M25.7438 25.7036L20.9385 25.5478L21.9672 22.7283L25.7438 25.7036Z" fill="#5F83CF"/>
<path d="M28.194 24.7396L31.2025 20.9894L28.3923 19.9358L28.194 24.7396Z" fill="#5F83CF"/>
<path d="M28.9724 25.7036L33.7778 25.5478L32.7491 22.7283L28.9724 25.7036Z" fill="#5F83CF"/>
<path d="M26.5223 27.8318L23.5137 31.582L26.324 32.6356L26.5223 27.8318Z" fill="#5F83CF"/>
<path d="M25.7438 26.8677L20.9385 27.0235L21.9672 29.843L25.7438 26.8677Z" fill="#5F83CF"/>
<path d="M28.194 27.8318L31.2025 31.582L28.3923 32.6356L28.194 27.8318Z" fill="#5F83CF"/>
<path d="M28.9724 26.8677L33.7778 27.0235L32.7491 29.843L28.9724 26.8677Z" fill="#5F83CF"/>
<path d="M27.2857 28.5714C28.4691 28.5714 29.4285 27.612 29.4285 26.4285C29.4285 25.245 28.4691 24.2856 27.2857 24.2856C26.1022 24.2856 25.1428 25.245 25.1428 26.4285C25.1428 27.612 26.1022 28.5714 27.2857 28.5714Z" fill="#5F83CF"/>
</g>
<defs>
<clipPath id="clip0_209_553">
<rect width="44.2857" height="50" fill="white" transform="translate(18 15)"/>
</clipPath>
</defs>
</svg>
