<svg width="25" height="26" viewBox="0 0 25 26" fill="none" xmlns="http://www.w3.org/2000/svg">
<g clip-path="url(#clip0_537_1550)">
<path d="M10.8214 9.875C10.8214 9.7566 10.7744 9.64305 10.6907 9.55933C10.607 9.47561 10.4934 9.42857 10.375 9.42857C10.2566 9.42857 10.143 9.47561 10.0593 9.55933C9.97561 9.64305 9.92857 9.7566 9.92857 9.875V19.6964C9.92857 19.8148 9.97561 19.9284 10.0593 20.0121C10.143 20.0958 10.2566 20.1429 10.375 20.1429C10.4934 20.1429 10.607 20.0958 10.6907 20.0121C10.7744 19.9284 10.8214 19.8148 10.8214 19.6964V9.875ZM14.8393 9.42857C14.9577 9.42857 15.0712 9.47561 15.155 9.55933C15.2387 9.64305 15.2857 9.7566 15.2857 9.875V19.6964C15.2857 19.8148 15.2387 19.9284 15.155 20.0121C15.0712 20.0958 14.9577 20.1429 14.8393 20.1429C14.7209 20.1429 14.6073 20.0958 14.5236 20.0121C14.4399 19.9284 14.3929 19.8148 14.3929 19.6964V9.875C14.3929 9.7566 14.4399 9.64305 14.5236 9.55933C14.6073 9.47561 14.7209 9.42857 14.8393 9.42857ZM16.625 4.51786V4.96429H23.7679C23.8863 4.96429 23.9998 5.01132 24.0835 5.09504C24.1673 5.17876 24.2143 5.29231 24.2143 5.41071C24.2143 5.52911 24.1673 5.64267 24.0835 5.72639C23.9998 5.81011 23.8863 5.85714 23.7679 5.85714H21.4973L20.0438 21.8455C19.9531 22.8442 19.4922 23.7728 18.7517 24.449C18.0113 25.1252 17.0447 25.5001 16.042 25.5H9.17232C8.16956 25.5001 7.203 25.1252 6.46254 24.449C5.72208 23.7728 5.26123 22.8442 5.17054 21.8455L3.71696 5.85714H1.44643C1.32803 5.85714 1.21448 5.81011 1.13076 5.72639C1.04703 5.64267 1 5.52911 1 5.41071C1 5.29231 1.04703 5.17876 1.13076 5.09504C1.21448 5.01132 1.32803 4.96429 1.44643 4.96429H8.58929V4.51786C8.58929 3.45226 9.0126 2.4303 9.76609 1.6768C10.5196 0.923309 11.5415 0.5 12.6071 0.5C13.6727 0.5 14.6947 0.923309 15.4482 1.6768C16.2017 2.4303 16.625 3.45226 16.625 4.51786ZM9.48214 4.51786V4.96429H15.7321V4.51786C15.7321 3.68906 15.4029 2.8942 14.8169 2.30815C14.2308 1.7221 13.4359 1.39286 12.6071 1.39286C11.7783 1.39286 10.9835 1.7221 10.3974 2.30815C9.81138 2.8942 9.48214 3.68906 9.48214 4.51786ZM4.61429 5.85714L6.06071 21.7652C6.13132 22.5415 6.48954 23.2635 7.06507 23.7893C7.6406 24.3151 8.39187 24.6068 9.17143 24.6071H16.0411C16.8209 24.6072 17.5726 24.3157 18.1486 23.7899C18.7245 23.264 19.0829 22.5418 19.1536 21.7652L20.6009 5.85714H4.61429Z" fill="#1F1B16"/>
</g>
<defs>
<clipPath id="clip0_537_1550">
<rect width="25" height="25" fill="white" transform="translate(0 0.5)"/>
</clipPath>
</defs>
</svg>
