<svg width="25" height="26" viewBox="0 0 25 26" fill="none" xmlns="http://www.w3.org/2000/svg">
<g clip-path="url(#clip0_537_1543)">
<mask id="path-1-inside-1_537_1543" fill="white">
<path d="M24 24.5417V14C24 14 24 13.5 23.5 13.5C23 13.5 23.0417 14 23.0417 14V24.5417H1.95833V3.45833H12.5C12.5 3.45833 13 3.5 13 3C13 2.5 12.5 2.5 12.5 2.5H1.95833C1.70417 2.5 1.46041 2.60097 1.28069 2.78069C1.10097 2.96041 1 3.20417 1 3.45833V24.5417C1 24.7958 1.10097 25.0396 1.28069 25.2193C1.46041 25.399 1.70417 25.5 1.95833 25.5H23.0417C23.2958 25.5 23.5396 25.399 23.7193 25.2193C23.899 25.0396 24 24.7958 24 24.5417Z"/>
</mask>
<path d="M24 24.5417V14C24 14 24 13.5 23.5 13.5C23 13.5 23.0417 14 23.0417 14V24.5417H1.95833V3.45833H12.5C12.5 3.45833 13 3.5 13 3C13 2.5 12.5 2.5 12.5 2.5H1.95833C1.70417 2.5 1.46041 2.60097 1.28069 2.78069C1.10097 2.96041 1 3.20417 1 3.45833V24.5417C1 24.7958 1.10097 25.0396 1.28069 25.2193C1.46041 25.399 1.70417 25.5 1.95833 25.5H23.0417C23.2958 25.5 23.5396 25.399 23.7193 25.2193C23.899 25.0396 24 24.7958 24 24.5417Z" fill="#1F1B16"/>
<path d="M1.28069 25.2193L0.573584 25.9264H0.573584L1.28069 25.2193ZM1.28069 2.78069L0.573583 2.07358L0.573583 2.07358L1.28069 2.78069ZM12.5 3.45833L12.583 2.46179C12.5554 2.45949 12.5277 2.45833 12.5 2.45833V3.45833ZM1.95833 3.45833V2.45833C1.40605 2.45833 0.958333 2.90605 0.958333 3.45833H1.95833ZM1.95833 24.5417H0.958333C0.958333 25.094 1.40605 25.5417 1.95833 25.5417V24.5417ZM23.0417 24.5417V25.5417C23.594 25.5417 24.0417 25.094 24.0417 24.5417H23.0417ZM23.0417 14H24.0417C24.0417 13.9723 24.0405 13.9446 24.0382 13.917L23.0417 14ZM23 14V24.5417H25V14H23ZM23 24.5417C23 24.5306 23.0044 24.52 23.0122 24.5122L24.4264 25.9264C24.7937 25.5592 25 25.0611 25 24.5417H23ZM23.0122 24.5122C23.02 24.5044 23.0306 24.5 23.0417 24.5V26.5C23.5611 26.5 24.0592 26.2937 24.4264 25.9264L23.0122 24.5122ZM23.0417 24.5H1.95833V26.5H23.0417V24.5ZM1.95833 24.5C1.96939 24.5 1.97998 24.5044 1.9878 24.5122L0.573584 25.9264C0.940841 26.2937 1.43895 26.5 1.95833 26.5V24.5ZM1.9878 24.5122C1.99561 24.52 2 24.5306 2 24.5417H0C0 25.0611 0.206325 25.5592 0.573584 25.9264L1.9878 24.5122ZM2 24.5417V3.45833H0V24.5417H2ZM2 3.45833C2 3.46938 1.99561 3.47998 1.9878 3.4878L0.573583 2.07358C0.206325 2.44084 0 2.93895 0 3.45833H2ZM1.9878 3.4878C1.97998 3.49561 1.96938 3.5 1.95833 3.5V1.5C1.43895 1.5 0.940841 1.70632 0.573583 2.07358L1.9878 3.4878ZM1.95833 3.5H12.5V1.5H1.95833V3.5ZM12.5 2.45833H1.95833V4.45833H12.5V2.45833ZM0.958333 3.45833V24.5417H2.95833V3.45833H0.958333ZM1.95833 25.5417H23.0417V23.5417H1.95833V25.5417ZM24.0417 24.5417V14H22.0417V24.5417H24.0417ZM12.5 3.45833C12.417 4.45488 12.4174 4.45492 12.4179 4.45496C12.4181 4.45497 12.4186 4.45501 12.4189 4.45504C12.4196 4.4551 12.4203 4.45515 12.4209 4.4552C12.4223 4.45531 12.4237 4.45542 12.4252 4.45553C12.4281 4.45575 12.4312 4.45597 12.4344 4.45619C12.4408 4.45662 12.4479 4.45705 12.4557 4.45743C12.4711 4.4582 12.4892 4.45883 12.5096 4.45908C12.55 4.45956 12.6016 4.45854 12.6612 4.45358C12.7745 4.44413 12.9467 4.41803 13.1346 4.33974C13.3278 4.25926 13.5592 4.11374 13.7388 3.85924C13.9224 3.5992 14 3.29878 14 3H12C12 2.95122 12.0151 2.83309 12.1049 2.70587C12.1908 2.58418 12.2972 2.52199 12.3654 2.49359C12.4283 2.46739 12.4755 2.46212 12.4951 2.46049C12.5078 2.45943 12.5203 2.45906 12.5334 2.45922C12.5401 2.4593 12.5475 2.45952 12.5556 2.45993C12.5596 2.46013 12.5639 2.46038 12.5685 2.46069C12.5708 2.46084 12.5731 2.46101 12.5755 2.46119C12.5768 2.46128 12.578 2.46138 12.5792 2.46148C12.5799 2.46153 12.5805 2.46158 12.5811 2.46163C12.5814 2.46166 12.5819 2.46169 12.5821 2.46171C12.5826 2.46175 12.583 2.46179 12.5 3.45833ZM14 3C14 2.70002 13.9221 2.40855 13.7539 2.15624C13.5899 1.91019 13.3783 1.75864 13.1972 1.66807C13.02 1.57947 12.8549 1.54015 12.7425 1.52142C12.684 1.51166 12.633 1.50639 12.5927 1.50352C12.5724 1.50207 12.5544 1.50119 12.5389 1.50068C12.5312 1.50042 12.5241 1.50025 12.5176 1.50015C12.5143 1.50009 12.5112 1.50006 12.5083 1.50003C12.5068 1.50002 12.5054 1.50001 12.504 1.50001C12.5033 1.50001 12.5027 1.5 12.502 1.5C12.5016 1.5 12.5012 1.5 12.501 1.5C12.5005 1.5 12.5 1.5 12.5 2.5C12.5 3.5 12.4995 3.5 12.499 3.5C12.4989 3.5 12.4984 3.5 12.4981 3.5C12.4974 3.5 12.4968 3.49999 12.4962 3.49999C12.4949 3.49999 12.4936 3.49998 12.4924 3.49997C12.49 3.49995 12.4876 3.49992 12.4853 3.49989C12.4807 3.49981 12.4764 3.4997 12.4723 3.49957C12.4642 3.4993 12.4569 3.49891 12.4502 3.49844C12.4373 3.49751 12.4254 3.49615 12.4137 3.49421C12.3951 3.4911 12.355 3.48303 12.3028 3.45693C12.2467 3.42886 12.1601 3.37106 12.0898 3.26564C12.0154 3.15395 12 3.04998 12 3H14ZM23.0417 14C24.0382 13.917 24.0383 13.9174 24.0383 13.9179C24.0383 13.9181 24.0383 13.9186 24.0384 13.9189C24.0384 13.9195 24.0385 13.9201 24.0385 13.9208C24.0386 13.922 24.0387 13.9232 24.0388 13.9245C24.039 13.9269 24.0392 13.9292 24.0393 13.9315C24.0396 13.9361 24.0399 13.9404 24.0401 13.9444C24.0405 13.9525 24.0407 13.9599 24.0408 13.9666C24.0409 13.9797 24.0406 13.9922 24.0395 14.0049C24.0379 14.0245 24.0326 14.0717 24.0064 14.1346C23.978 14.2028 23.9158 14.3092 23.7941 14.3951C23.6669 14.4849 23.5488 14.5 23.5 14.5V12.5C23.2012 12.5 22.9008 12.5776 22.6408 12.7612C22.3863 12.9408 22.2407 13.1722 22.1603 13.3654C22.082 13.5533 22.0559 13.7255 22.0464 13.8388C22.0415 13.8984 22.0404 13.95 22.0409 13.9904C22.0412 14.0108 22.0418 14.0289 22.0426 14.0443C22.043 14.0521 22.0434 14.0592 22.0438 14.0656C22.044 14.0688 22.0443 14.0719 22.0445 14.0748C22.0446 14.0763 22.0447 14.0777 22.0448 14.0791C22.0449 14.0797 22.0449 14.0804 22.045 14.0811C22.045 14.0814 22.045 14.0819 22.045 14.0821C22.0451 14.0826 22.0451 14.083 23.0417 14ZM23.5 14.5C23.45 14.5 23.346 14.4846 23.2344 14.4102C23.1289 14.3399 23.0711 14.2533 23.0431 14.1972C23.017 14.145 23.0089 14.1049 23.0058 14.0863C23.0038 14.0746 23.0025 14.0627 23.0016 14.0498C23.0011 14.0431 23.0007 14.0358 23.0004 14.0277C23.0003 14.0236 23.0002 14.0193 23.0001 14.0147C23.0001 14.0124 23 14.01 23 14.0076C23 14.0064 23 14.0051 23 14.0038C23 14.0032 23 14.0026 23 14.0019C23 14.0016 23 14.0011 23 14.001C23 14.0005 23 14 24 14C25 14 25 13.9995 25 13.999C25 13.9988 25 13.9984 25 13.998C25 13.9973 25 13.9967 25 13.996C25 13.9946 25 13.9932 25 13.9917C24.9999 13.9888 24.9999 13.9857 24.9999 13.9824C24.9998 13.9759 24.9996 13.9688 24.9993 13.9611C24.9988 13.9456 24.9979 13.9276 24.9965 13.9073C24.9936 13.867 24.9883 13.816 24.9786 13.7575C24.9599 13.6451 24.9205 13.48 24.8319 13.3028C24.7414 13.1217 24.5898 12.9101 24.3438 12.7461C24.0915 12.5779 23.8 12.5 23.5 12.5V14.5Z" fill="#1F1B16" mask="url(#path-1-inside-1_537_1543)"/>
<path d="M24.2322 1.36719C23.9757 1.0975 23.6679 0.881865 23.3268 0.732972C22.9857 0.584079 22.6183 0.504942 22.2462 0.500224C21.8741 0.495506 21.5048 0.565301 21.16 0.705499C20.8153 0.845696 20.5021 1.05346 20.2388 1.31656L11.4486 10.1068C11.1415 10.414 10.9281 10.8023 10.8335 11.2263L10.0112 14.9299C9.99407 15.0069 9.99661 15.087 10.0186 15.1627C10.0406 15.2384 10.0813 15.3074 10.137 15.3632C10.1927 15.419 10.2616 15.4598 10.3373 15.4819C10.413 15.5041 10.4931 15.5067 10.5701 15.4897L14.2521 14.6712C14.6907 14.5745 15.0923 14.3538 15.4091 14.0354L24.1834 5.26115C24.6977 4.74662 24.9907 4.05152 24.9998 3.32408C25.0089 2.59665 24.7334 1.89444 24.2322 1.36719ZM20.9017 1.97946C21.0733 1.80548 21.2775 1.66715 21.5027 1.57245C21.7279 1.47775 21.9696 1.42854 22.2139 1.42767C22.4582 1.42679 22.7002 1.47426 22.9261 1.56735C23.152 1.66043 23.3572 1.79729 23.53 1.97004C23.7027 2.14278 23.8396 2.348 23.9326 2.57388C24.0257 2.79975 24.0732 3.0418 24.0723 3.2861C24.0715 3.5304 24.0222 3.77211 23.9275 3.99731C23.8328 4.22251 23.6945 4.42674 23.5205 4.59825L22.8914 5.22739L20.2726 2.60954L20.9017 1.97946ZM19.6097 3.27338L22.2285 5.89123L14.7462 13.3735C14.5555 13.5658 14.3133 13.699 14.0486 13.757L11.0858 14.4152L11.7496 11.4307C11.8049 11.1804 11.9306 10.9516 12.1115 10.7706L19.6097 3.27338Z" fill="#1F1B16"/>
</g>
<defs>
<clipPath id="clip0_537_1543">
<rect width="25" height="25" fill="white" transform="translate(0 0.5)"/>
</clipPath>
</defs>
</svg>
