<svg width="25" height="26" viewBox="0 0 25 26" fill="none" xmlns="http://www.w3.org/2000/svg">
<g clip-path="url(#clip0_427_1489)">
<path d="M24.53 17.0003V2.88956C24.53 2.12213 23.9079 1.5 23.1404 1.5H2.38956C1.62213 1.5 1 2.12213 1 2.88956V23.6404C1 24.4079 1.62213 25.03 2.38956 25.03H16.0003" stroke="#E4B474" stroke-miterlimit="22.9256" stroke-linecap="round"/>
<path d="M1.29919 16.7405C2.57287 15.3335 3.8464 13.9264 4.53173 13.1864C5.21706 12.4465 5.31419 12.3738 5.45982 12.3374C5.60531 12.301 5.79929 12.301 6.40583 12.8712C7.01238 13.4412 8.0312 14.5814 9.05017 15.7216" stroke="#E4B474" stroke-miterlimit="22.9256" stroke-linecap="round"/>
<path d="M6.00012 21.3337C9.65759 17.0987 13.3152 12.8636 15.2322 10.7141C17.1491 8.56444 17.3255 8.50024 17.526 8.50024C17.7265 8.50024 17.9512 8.56444 19.0501 9.73556C20.1489 10.9065 22.122 13.1845 23.1085 14.3235C24.0951 15.4624 24.0951 15.4624 24.0951 15.4624" stroke="#E4B474" stroke-miterlimit="22.9256" stroke-linecap="round"/>
<path d="M8.31642 8.37452C9.6985 8.37452 10.8189 7.2326 10.8189 5.82398C10.8189 4.41535 9.6985 3.27344 8.31642 3.27344C6.93435 3.27344 5.81396 4.41535 5.81396 5.82398C5.81396 7.2326 6.93435 8.37452 8.31642 8.37452Z" stroke="#E4B474" stroke-miterlimit="22.9256"/>
<path d="M16 20.4473H23.8947M19.9473 16.5V24.3947" stroke="#E4B474" stroke-linecap="round" stroke-linejoin="round"/>
</g>
<defs>
<clipPath id="clip0_427_1489">
<rect width="25" height="25" fill="white" transform="translate(0 0.5)"/>
</clipPath>
</defs>
</svg>
