<svg width="25" height="26" viewBox="0 0 25 26" fill="none" xmlns="http://www.w3.org/2000/svg">
<g clip-path="url(#clip0_427_1453)">
<path d="M24.53 17.0003V2.88956C24.53 2.12213 23.9079 1.5 23.1404 1.5H2.38956C1.62213 1.5 1 2.12213 1 2.88956V23.6404C1 24.4079 1.62213 25.03 2.38956 25.03H16.0003" stroke="#E2D4C4" stroke-miterlimit="22.9256" stroke-linecap="round"/>
<path d="M1.29918 16.7405C2.57285 15.3335 3.84638 13.9264 4.53171 13.1864C5.21705 12.4465 5.31418 12.3738 5.4598 12.3374C5.60529 12.301 5.79927 12.301 6.40582 12.8712C7.01236 13.4412 8.03119 14.5814 9.05015 15.7216" stroke="#E2D4C4" stroke-miterlimit="22.9256" stroke-linecap="round"/>
<path d="M6.00012 21.3334C9.65759 17.0985 13.3152 12.8634 15.2322 10.7138C17.1491 8.5642 17.3255 8.5 17.526 8.5C17.7265 8.5 17.9512 8.5642 19.0501 9.73532C20.1489 10.9063 22.122 13.1842 23.1085 14.3232C24.0951 15.4621 24.0951 15.4621 24.0951 15.4621" stroke="#E2D4C4" stroke-miterlimit="22.9256" stroke-linecap="round"/>
<path d="M8.31645 8.37452C9.69853 8.37452 10.8189 7.2326 10.8189 5.82398C10.8189 4.41535 9.69853 3.27344 8.31645 3.27344C6.93438 3.27344 5.814 4.41535 5.814 5.82398C5.814 7.2326 6.93438 8.37452 8.31645 8.37452Z" stroke="#E2D4C4" stroke-miterlimit="22.9256"/>
<path d="M16 20.4473H23.8947M19.9473 16.5V24.3947" stroke="#E2D4C4" stroke-linecap="round" stroke-linejoin="round"/>
</g>
<defs>
<clipPath id="clip0_427_1453">
<rect width="25" height="25" fill="white" transform="translate(0 0.5)"/>
</clipPath>
</defs>
</svg>
